<svg width="25" height="25" viewBox="0 0 25 25" fill="none" xmlns="http://www.w3.org/2000/svg">
<path d="M12.5 25C19.4036 25 25 19.4036 25 12.5C25 5.59644 19.4036 0 12.5 0C5.59644 0 0 5.59644 0 12.5C0 19.4036 5.59644 25 12.5 25Z" fill="#F0F0F0"/>
<path d="M12.5 25C16.2887 25 19.6834 23.3142 21.9757 20.6522H3.02441C5.31675 23.3142 8.71143 25 12.5 25Z" fill="#0052B4"/>
<path d="M25 12.5C25 5.59648 19.4035 0 12.5 0C5.59648 0 0 5.59648 0 12.5C0 13.6283 0.150391 14.7211 0.430615 15.7609H24.5694C24.8496 14.7211 25 13.6283 25 12.5Z" fill="#0052B4"/>
<path d="M0.993408 17.3913C1.23438 17.9575 1.51606 18.5021 1.83457 19.0217H23.1652C23.4836 18.502 23.7653 17.9575 24.0064 17.3913H0.993408Z" fill="#D80027"/>
<path d="M8.93501 13.3152L9.13735 13.938H9.79219L9.26245 14.3229L9.46479 14.9456L8.93501 14.5607L8.40522 14.9456L8.60762 14.3229L8.07788 13.938H8.73271L8.93501 13.3152Z" fill="#FFDA44"/>
<path d="M8.93501 21.4674L9.13735 22.0902H9.79219L9.26245 22.475L9.46479 23.0978L8.93501 22.7129L8.40522 23.0978L8.60762 22.475L8.07788 22.0902H8.73271L8.93501 21.4674Z" fill="#FFDA44"/>
<path d="M5.14009 18.7104L5.34243 19.3331H5.99727L5.46753 19.718L5.66987 20.3408L5.14009 19.9559L4.6103 20.3408L4.81274 19.718L4.28296 19.3331H4.93774L5.14009 18.7104Z" fill="#FFDA44"/>
<path d="M6.58947 14.1304L6.79182 14.7532H7.4466L6.91691 15.1381L7.11926 15.7609L6.58947 15.376L6.05969 15.7609L6.26213 15.1381L5.7323 14.7532H6.38713L6.58947 14.1304Z" fill="#FFDA44"/>
<path d="M4.28296 16.695L4.93765 16.6951L5.14004 16.0722L5.34243 16.695L5.99727 16.695L5.46748 17.0799L5.66987 17.7027L5.14004 17.3178L4.6103 17.7025L4.81265 17.0798L4.28296 16.695Z" fill="#FFDA44"/>
<path d="M6.05967 22.1636L6.26201 21.5409L5.73218 21.1561H6.38701L6.5894 20.5333L6.7918 21.156H7.44658L6.9168 21.5409L7.11914 22.1637L6.58936 21.7788L6.05967 22.1636Z" fill="#FFDA44"/>
<path d="M12.7283 18.7104L12.526 19.3331H11.8712L12.4009 19.718L12.1986 20.3408L12.7283 19.9559L13.2581 20.3408L13.0557 19.718L13.5855 19.3331H12.9307L12.7283 18.7104Z" fill="#FFDA44"/>
<path d="M11.2789 14.1304L11.0766 14.7532H10.4218L10.9514 15.1381L10.7491 15.7609L11.2789 15.376L11.8087 15.7609L11.6063 15.1381L12.1361 14.7532H11.4812L11.2789 14.1304Z" fill="#FFDA44"/>
<path d="M13.5855 16.695L12.9308 16.6951L12.7284 16.0722L12.526 16.695L11.8712 16.695L12.4009 17.0799L12.1986 17.7027L12.7284 17.3178L13.2581 17.7025L13.0558 17.0798L13.5855 16.695Z" fill="#FFDA44"/>
<path d="M11.8085 22.1636L11.6063 21.5409L12.136 21.1561H11.4812L11.2788 20.5333L11.0765 21.156H10.4216L10.9514 21.5409L10.7491 22.1637L11.2789 21.7788L11.8085 22.1636Z" fill="#FFDA44"/>
</svg>
