<svg width="25" height="25" viewBox="0 0 25 25" fill="none" xmlns="http://www.w3.org/2000/svg">
<g clip-path="url(#clip0)">
<path d="M12.4998 25C14.0288 25 15.4935 24.725 16.8476 24.2225L17.3911 12.5L16.8477 0.77749C15.4935 0.275049 14.0288 0 12.4998 0C10.9708 0 9.50612 0.275049 8.15203 0.77749L7.60852 12.5L8.15198 24.2225C9.50612 24.725 10.9708 25 12.4998 25Z" fill="#F0F0F0"/>
<path d="M0 12.5C0 17.8746 3.39219 22.4564 8.1522 24.2225V0.777512C3.39219 2.54367 0 7.12546 0 12.5Z" fill="#FF9811"/>
<path d="M16.8478 0.777512V24.2226C21.6078 22.4564 25 17.8746 25 12.5C25 7.12546 21.6078 2.54367 16.8478 0.777512Z" fill="#6DA544"/>
</g>
<defs>
<clipPath id="clip0">
<rect width="25" height="25" fill="white"/>
</clipPath>
</defs>
</svg>
