<svg width="25" height="25" viewBox="0 0 25 25" fill="none" xmlns="http://www.w3.org/2000/svg">
<path d="M12.5 25C19.4036 25 25 19.4036 25 12.5C25 5.59644 19.4036 0 12.5 0C5.59644 0 0 5.59644 0 12.5C0 19.4036 5.59644 25 12.5 25Z" fill="#F0F0F0"/>
<path d="M12.4999 0C7.33213 0 2.89717 3.13604 0.993408 7.60869H24.0063C22.1026 3.13604 17.6676 0 12.4999 0Z" fill="#A2001D"/>
<path d="M12.4999 25C17.6676 25 22.1026 21.864 24.0063 17.3913H0.993408C2.89717 21.864 7.33213 25 12.4999 25Z" fill="#496E2D"/>
<path d="M24.5694 9.23912H0.430615C0.150391 10.2788 0 11.3717 0 12.5C0 13.6283 0.150391 14.7212 0.430615 15.7609H24.5694C24.8496 14.7212 25 13.6283 25 12.5C25 11.3717 24.8496 10.2788 24.5694 9.23912Z" fill="#0052B4"/>
</svg>
