<svg width="25" height="25" viewBox="0 0 25 25" fill="none" xmlns="http://www.w3.org/2000/svg">
<g clip-path="url(#clip0)">
<path d="M0 12.5C0 14.029 0.275049 15.4937 0.77749 16.8478L12.5 17.3913L24.2225 16.8479C24.725 15.4937 25 14.029 25 12.5C25 10.971 24.725 9.50636 24.2225 8.15221L12.5 7.6087L0.77749 8.15216C0.275049 9.50636 0 10.971 0 12.5Z" fill="#FFDA44"/>
<path d="M12.5001 0C7.12554 0 2.54375 3.39219 0.777588 8.1522H24.2227C22.4564 3.39219 17.8747 0 12.5001 0Z" fill="#D80027"/>
<path d="M24.2226 16.8478H0.777588C2.54375 21.6078 7.12554 25 12.5001 25C17.8747 25 22.4564 21.6078 24.2226 16.8478Z" fill="#496E2D"/>
<path d="M12.4998 8.15216L13.5789 11.4735H17.0715L14.2462 13.5263L15.3253 16.8478L12.4998 14.795L9.67439 16.8478L10.7537 13.5263L7.92834 11.4735H11.4207L12.4998 8.15216Z" fill="black"/>
</g>
<defs>
<clipPath id="clip0">
<rect width="25" height="25" fill="white"/>
</clipPath>
</defs>
</svg>
