<svg width="25" height="25" viewBox="0 0 25 25" fill="none" xmlns="http://www.w3.org/2000/svg">
<g clip-path="url(#clip0)">
<path d="M16.8478 0.777539C15.4936 0.275049 14.0289 0 12.4999 0C10.9709 0 9.50625 0.275049 8.15215 0.777441L7.60864 12.5L8.1521 24.2226C9.50625 24.725 10.9709 25 12.4999 25C14.029 25 15.4936 24.725 16.8478 24.2225L17.3913 12.5L16.8478 0.777539Z" fill="#FFDA44"/>
<path d="M0 12.5C0 17.8745 3.39219 22.4563 8.1522 24.2225V0.777443C3.39219 2.54365 0 7.12539 0 12.5Z" fill="#D80027"/>
<path d="M25 12.5C25 7.12539 21.6078 2.54365 16.8478 0.777443V24.2225C21.6078 22.4563 25 17.8745 25 12.5Z" fill="#6DA544"/>
</g>
<defs>
<clipPath id="clip0">
<rect width="25" height="25" fill="white"/>
</clipPath>
</defs>
</svg>
