<svg width="25" height="25" viewBox="0 0 25 25" fill="none" xmlns="http://www.w3.org/2000/svg">
<path d="M12.5 0C11.3718 0 10.2788 0.150391 9.23914 0.430615L8.15222 12.5L9.23919 24.5694C10.2788 24.8496 11.3718 25 12.5 25C19.4036 25 25.0001 19.4035 25.0001 12.5C25.0001 5.59648 19.4036 0 12.5 0Z" fill="#FFDA44"/>
<path d="M8.15222 12.5L9.23919 24.5694C10.2788 24.8496 11.3718 25 12.5 25C19.4036 25 25.0001 19.4035 25.0001 12.5H8.15222Z" fill="#6DA544"/>
<path d="M0 12.5C0 17.2381 2.63623 21.3601 6.52173 23.4802V1.51991C2.63623 3.63993 0 7.762 0 12.5Z" fill="#D80027"/>
<path d="M0 12.5C0 18.2754 3.91704 23.135 9.23911 24.5694V0.430641C3.91704 1.86502 0 6.72468 0 12.5Z" fill="#D80027"/>
<path d="M4.72334 9.23913L5.53267 11.7301H8.1521L6.03306 13.2698L6.84233 15.7609L4.72334 14.2213L2.60425 15.7609L3.41372 13.2698L1.29468 11.7301H3.91397L4.72334 9.23913Z" fill="black"/>
</svg>
