<svg width="25" height="25" viewBox="0 0 25 25" fill="none" xmlns="http://www.w3.org/2000/svg">
<g clip-path="url(#clip0)">
<path d="M12.5 25C19.4036 25 25 19.4036 25 12.5C25 5.59644 19.4036 0 12.5 0C5.59644 0 0 5.59644 0 12.5C0 19.4036 5.59644 25 12.5 25Z" fill="#F0F0F0"/>
<path d="M2.85754 4.54552H22.1431C21.4308 3.68297 20.6046 2.91807 19.6882 2.27281H5.31248C4.39602 2.91798 3.5699 3.68292 2.85754 4.54552Z" fill="#F0F0F0"/>
<path d="M0 12.5C0 12.8831 0.0182129 13.2619 0.0519531 13.6363H24.948C24.9818 13.2619 25 12.8831 25 12.5C25 12.1168 24.9818 11.738 24.948 11.3636H0.0519531C0.0182129 11.738 0 12.1168 0 12.5Z" fill="#F0F0F0"/>
<path d="M1.36345 18.1818H23.6373C24.0053 17.4618 24.3055 16.7015 24.5297 15.9092H0.471069C0.695142 16.7015 0.995435 17.4618 1.36345 18.1818Z" fill="#F0F0F0"/>
<path d="M5.31248 22.7273H19.6881C20.6046 22.082 21.4307 21.3171 22.143 20.4546H2.85754C3.5699 21.317 4.39602 22.082 5.31248 22.7273Z" fill="#F0F0F0"/>
<path d="M0.470947 9.09095H24.5296C24.3055 8.29856 24.0053 7.53821 23.6372 6.81824H1.36338C0.995361 7.53821 0.695068 8.29856 0.470947 9.09095Z" fill="#F0F0F0"/>
<path d="M5.97778 2.27271H19.6874C17.6542 0.841162 15.1751 0 12.4995 0C10.8691 0 8.01099 0.841162 5.97778 2.27271Z" fill="#D80027"/>
<path d="M11.9564 6.81824H23.6368C23.2211 6.0051 22.7191 5.24343 22.1427 4.54553H11.9564V6.81824Z" fill="#D80027"/>
<path d="M11.9564 11.3637H24.9479C24.8776 10.5833 24.7363 9.82335 24.5292 9.09098H11.9564V11.3637Z" fill="#D80027"/>
<path d="M0.470264 15.9091H24.5289C24.736 15.1768 24.8773 14.4168 24.9476 13.6364H0.0515137C0.121826 14.4168 0.263135 15.1768 0.470264 15.9091Z" fill="#D80027"/>
<path d="M2.85718 20.4545H22.1427C22.7191 19.7565 23.2212 18.9948 23.6369 18.1818H1.36304C1.77871 18.9949 2.28076 19.7566 2.85718 20.4545Z" fill="#D80027"/>
<path d="M12.5 25C15.1756 25 17.6546 24.1589 19.6878 22.7273H5.31213C7.34534 24.1589 9.82434 25 12.5 25Z" fill="#D80027"/>
<path d="M0.470215 9.09092C0.263086 9.82334 0.121826 10.5833 0.0515137 11.3636H12.4996V0C6.77788 0 1.9542 3.84434 0.470215 9.09092Z" fill="#0052B4"/>
<path d="M7.44087 3.26087L8.2502 5.75184H10.8696L8.75059 7.29148L9.55986 9.7826L7.44087 8.24305L5.32178 9.7826L6.13125 7.29148L4.01221 5.75184H6.63149L7.44087 3.26087Z" fill="#F0F0F0"/>
</g>
<defs>
<clipPath id="clip0">
<rect width="25" height="25" fill="white"/>
</clipPath>
</defs>
</svg>
