<svg width="25" height="25" viewBox="0 0 25 25" fill="none" xmlns="http://www.w3.org/2000/svg">
<g clip-path="url(#clip0)">
<path d="M16.8478 0.77749C15.4936 0.275049 14.029 0 12.5 0C10.971 0 9.5063 0.275049 8.15215 0.77749L7.06519 12.5L8.15215 24.2225C9.5063 24.725 10.971 25 12.5 25C14.029 25 15.4936 24.725 16.8478 24.2225L17.9347 12.5L16.8478 0.77749Z" fill="#FFDA44"/>
<path d="M25 12.5C25 7.1255 21.6078 2.54366 16.8478 0.777543V24.2226C21.6078 22.4564 25 17.8746 25 12.5Z" fill="#D80027"/>
<path d="M0 12.5C0 17.8746 3.39219 22.4563 8.1522 24.2225V0.777543C3.39219 2.54366 0 7.12549 0 12.5Z" fill="#6DA544"/>
</g>
<defs>
<clipPath id="clip0">
<rect width="25" height="25" fill="white"/>
</clipPath>
</defs>
</svg>
