<svg width="25" height="25" viewBox="0 0 25 25" fill="none" xmlns="http://www.w3.org/2000/svg">
<g clip-path="url(#clip0)">
<path d="M1.24033 7.06523C0.445703 8.70859 0 10.5522 0 12.5C0 14.4478 0.445703 16.2914 1.24033 17.9348L12.5 19.0217L23.7597 17.9348C24.5543 16.2914 25 14.4478 25 12.5C25 10.5522 24.5543 8.70859 23.7597 7.06523L12.5 5.97827L1.24033 7.06523Z" fill="#F0F0F0"/>
<path d="M1.2406 17.9348C3.26238 22.116 7.54407 25 12.4998 25C17.4556 25 21.7373 22.116 23.7591 17.9348H1.2406Z" fill="#6DA544"/>
<path d="M1.2406 7.06523H23.7591C21.7373 2.88403 17.4555 0 12.4998 0C7.54412 0 3.26238 2.88403 1.2406 7.06523Z" fill="#FF9811"/>
<path d="M12.4999 16.8478C14.9011 16.8478 16.8477 14.9012 16.8477 12.5C16.8477 10.0987 14.9011 8.15217 12.4999 8.15217C10.0987 8.15217 8.1521 10.0987 8.1521 12.5C8.1521 14.9012 10.0987 16.8478 12.4999 16.8478Z" fill="#FF9811"/>
</g>
<defs>
<clipPath id="clip0">
<rect width="25" height="25" fill="white"/>
</clipPath>
</defs>
</svg>
