<svg width="25" height="25" viewBox="0 0 25 25" fill="none" xmlns="http://www.w3.org/2000/svg">
<path d="M17.9348 1.24033C16.2914 0.445703 14.4478 0 12.5 0C10.5522 0 8.70859 0.445703 7.06523 1.24033L5.97827 12.5L7.06523 23.7597C8.70859 24.5543 10.5522 25 12.5 25C14.4478 25 16.2914 24.5543 17.9348 23.7597L19.0217 12.5L17.9348 1.24033Z" fill="#FFDA44"/>
<path d="M12.4998 8.15218L13.5789 11.4735H17.0715L14.2461 13.5263L15.3253 16.8478L12.4998 14.795L9.67439 16.8478L10.7537 13.5263L7.92834 11.4735H11.4207L12.4998 8.15218Z" fill="#496E2D"/>
<path d="M7.06523 1.24076C2.88408 3.26259 0 7.54428 0 12.5C0 17.4557 2.88408 21.7374 7.06523 23.7592V1.24076Z" fill="#496E2D"/>
<path d="M17.9346 1.24076V23.7592C22.1157 21.7374 24.9998 17.4557 24.9998 12.5C24.9998 7.54428 22.1157 3.26259 17.9346 1.24076Z" fill="#D80027"/>
</svg>
