<svg width="25" height="25" viewBox="0 0 25 25" fill="none" xmlns="http://www.w3.org/2000/svg">
<g clip-path="url(#clip0)">
<path d="M24.2225 16.8478C24.725 15.4936 25 14.029 25 12.5C25 10.971 24.725 9.5063 24.2225 8.15215L12.5 7.06519L0.77749 8.15215C0.275 9.5063 0 10.971 0 12.5C0 14.029 0.275 15.4936 0.77749 16.8478L12.5 17.9347L24.2225 16.8478Z" fill="#F0F0F0"/>
<path d="M12.5001 25C17.8747 25 22.4565 21.6078 24.2226 16.8478H0.777588C2.5438 21.6078 7.12554 25 12.5001 25Z" fill="#338AF3"/>
<path d="M12.5001 0C7.12554 0 2.5438 3.39219 0.777588 8.1522H24.2227C22.4565 3.39219 17.8747 0 12.5001 0Z" fill="#6DA544"/>
</g>
<defs>
<clipPath id="clip0">
<rect width="25" height="25" fill="white"/>
</clipPath>
</defs>
</svg>
