<svg width="25" height="25" viewBox="0 0 25 25" fill="none" xmlns="http://www.w3.org/2000/svg">
<g clip-path="url(#clip0)">
<path d="M12.5 25C19.4036 25 25 19.4036 25 12.5C25 5.59644 19.4036 0 12.5 0C5.59644 0 0 5.59644 0 12.5C0 19.4036 5.59644 25 12.5 25Z" fill="#FFDA44"/>
<path d="M12.4999 0C12.4908 9.76563e-05 11.9564 5 11.9564 5H22.5005C20.2199 1.96401 16.5893 0 12.4999 0Z" fill="#496E2D"/>
<path d="M12.5 25C16.5895 25 20.2201 23.036 22.5006 20H2.49951C4.77998 23.036 8.4106 25 12.5 25Z" fill="#496E2D"/>
<path d="M24.7496 9.99995H11.9564L12.4999 14.9999H24.7496C24.9136 14.1922 24.9999 13.3561 24.9999 12.4999C24.9999 11.6437 24.9135 10.8077 24.7496 9.99995Z" fill="#496E2D"/>
<path d="M12.5 15C12.5 12.3913 12.5 2.93477 12.5 0C5.59648 0 0 5.59648 0 12.5C0 13.3562 0.0863281 14.1922 0.250293 15H12.5Z" fill="#D80027"/>
<path d="M6.89724 5.97821L7.70662 8.46918H10.326L8.20701 10.0089L9.01628 12.4999L6.89724 10.9604L4.7782 12.4999L5.58762 10.0089L3.46863 8.46918H6.08792L6.89724 5.97821Z" fill="#F0F0F0"/>
</g>
<defs>
<clipPath id="clip0">
<rect width="25" height="25" fill="white"/>
</clipPath>
</defs>
</svg>
