<svg width="24" height="24" viewBox="0 0 24 24" fill="none" xmlns="http://www.w3.org/2000/svg">
<path d="M4.5 15.5L5.03033 16.0303C5.17098 15.8897 5.25 15.6989 5.25 15.5H4.5ZM18.5 15.5H17.75C17.75 15.6989 17.829 15.8897 17.9697 16.0303L18.5 15.5ZM20 17H20.75C20.75 16.8011 20.671 16.6103 20.5303 16.4697L20 17ZM20 20V20.75C20.4142 20.75 20.75 20.4142 20.75 20H20ZM3 20H2.25C2.25 20.4142 2.58579 20.75 3 20.75V20ZM3 17L2.46967 16.4697C2.32902 16.6103 2.25 16.8011 2.25 17H3ZM12.25 1C12.25 0.585786 11.9142 0.25 11.5 0.25C11.0858 0.25 10.75 0.585786 10.75 1H12.25ZM5.25 15.5V10H3.75V15.5H5.25ZM4.5 10C5.25 10 5.25 10.0003 5.25 10.0007C5.25 10.0007 5.25 10.001 5.25 10.0012C5.25 10.0014 5.25 10.0016 5.25 10.0017C5.25 10.0018 5.25 10.0016 5.25 10.0009C5.25001 9.99953 5.25004 9.99656 5.25012 9.99201C5.25026 9.98293 5.25059 9.96757 5.25129 9.94637C5.25271 9.90395 5.25565 9.83826 5.26177 9.75265C5.27401 9.58119 5.29887 9.33134 5.34917 9.02955C5.45036 8.42242 5.65134 7.62437 6.04582 6.83541C6.43883 6.04938 7.01658 5.28617 7.86915 4.71779C8.71703 4.15254 9.88124 3.75 11.5 3.75V2.25C9.61876 2.25 8.15797 2.72246 7.0371 3.46971C5.92092 4.21383 5.18617 5.20062 4.70418 6.16459C4.22366 7.12563 3.98714 8.07758 3.86958 8.78295C3.8105 9.13741 3.78067 9.43444 3.76558 9.64578C3.75802 9.75158 3.75413 9.83629 3.75213 9.8964C3.75112 9.92647 3.75059 9.95042 3.75031 9.96782C3.75017 9.97653 3.75009 9.98359 3.75005 9.98897C3.75003 9.99166 3.75002 9.99393 3.75001 9.99577C3.75001 9.99669 3.75 9.99751 3.75 9.99821C3.75 9.99856 3.75 9.99901 3.75 9.99919C3.75 9.99961 3.75 10 4.5 10ZM11.5 3.75C13.1188 3.75 14.283 4.15254 15.1308 4.71779C15.9834 5.28617 16.5612 6.04938 16.9542 6.83541C17.3487 7.62437 17.5496 8.42242 17.6508 9.02955C17.7011 9.33134 17.726 9.58119 17.7382 9.75265C17.7443 9.83826 17.7473 9.90395 17.7487 9.94637C17.7494 9.96757 17.7497 9.98293 17.7499 9.99201C17.75 9.99656 17.75 9.99953 17.75 10.0009C17.75 10.0016 17.75 10.0018 17.75 10.0017C17.75 10.0016 17.75 10.0014 17.75 10.0012C17.75 10.001 17.75 10.0007 17.75 10.0007C17.75 10.0003 17.75 10 18.5 10C19.25 10 19.25 9.99961 19.25 9.99919C19.25 9.99901 19.25 9.99856 19.25 9.99821C19.25 9.99751 19.25 9.99669 19.25 9.99577C19.25 9.99393 19.25 9.99166 19.25 9.98897C19.2499 9.98359 19.2498 9.97653 19.2497 9.96782C19.2494 9.95042 19.2489 9.92647 19.2479 9.8964C19.2459 9.83629 19.242 9.75158 19.2344 9.64578C19.2193 9.43444 19.1895 9.13741 19.1304 8.78295C19.0129 8.07758 18.7763 7.12563 18.2958 6.16459C17.8138 5.20062 17.0791 4.21383 15.9629 3.46971C14.842 2.72246 13.3812 2.25 11.5 2.25V3.75ZM17.75 10V15.5H19.25V10H17.75ZM17.9697 16.0303L19.4697 17.5303L20.5303 16.4697L19.0303 14.9697L17.9697 16.0303ZM19.25 17V20H20.75V17H19.25ZM3.75 20V17H2.25V20H3.75ZM3.53033 17.5303L5.03033 16.0303L3.96967 14.9697L2.46967 16.4697L3.53033 17.5303ZM8.5 19.25H3V20.75H8.5V19.25ZM7.7602 20.1233C7.85928 20.7178 8.14849 21.5894 8.7173 22.3313C9.30052 23.092 10.2108 23.75 11.5 23.75V22.25C10.7892 22.25 10.2828 21.908 9.9077 21.4187C9.51818 20.9106 9.30738 20.2822 9.2398 19.8767L7.7602 20.1233ZM20 19.25H14.25V20.75H20V19.25ZM14.25 19.25H8.5V20.75H14.25V19.25ZM11.5 23.75C12.7978 23.75 13.677 23.0825 14.213 22.2981C14.73 21.5416 14.9477 20.6586 14.9974 20.0623L13.5026 19.9377C13.469 20.3414 13.3117 20.9584 12.9745 21.4519C12.6563 21.9175 12.2022 22.25 11.5 22.25V23.75ZM12.25 3V1H10.75V3H12.25Z" fill="#263BBA"/>
</svg>
