<svg width="13" height="15" viewBox="0 0 13 15" fill="none" xmlns="http://www.w3.org/2000/svg">
<path d="M6.74683 1.30589C7.73235 0.00694297 9.10247 0.000610352 9.10247 0.000610352C9.10247 0.000610352 9.30627 1.22185 8.3272 2.39828C7.2818 3.65446 6.09356 3.44891 6.09356 3.44891C6.09356 3.44891 5.87044 2.46097 6.74683 1.30589V1.30589ZM6.21891 4.30438C6.72591 4.30438 7.66688 3.60745 8.89169 3.60745C11 3.60745 11.8294 5.10764 11.8294 5.10764C11.8294 5.10764 10.2072 5.93701 10.2072 7.94946C10.2072 10.2197 12.228 11.0021 12.228 11.0021C12.228 11.0021 10.8154 14.978 8.90739 14.978C8.03105 14.978 7.34974 14.3874 6.42638 14.3874C5.48541 14.3874 4.55163 15 3.94345 15C2.20114 15.0001 0 11.2285 0 8.19675C0 5.21396 1.86312 3.64924 3.61065 3.64924C4.74671 3.64924 5.6283 4.30438 6.21891 4.30438V4.30438Z" fill="#999999"/>
</svg>
