<svg width="41" height="41" viewBox="0 0 41 41" fill="none" xmlns="http://www.w3.org/2000/svg">
<rect opacity="0.1" width="41" height="41" rx="8" fill="#263BBA"/>
<path fill-rule="evenodd" clip-rule="evenodd" d="M23.5618 17.4922C23.5607 19.8585 19.8479 19.583 18.6648 19.583V15.4002C19.8479 15.4002 23.5618 15.0251 23.5618 17.4922ZM24.5355 23.9985C24.5366 26.5987 20.0841 26.3024 18.6648 26.3047V21.6936C20.0853 21.6936 24.5355 21.2849 24.5355 23.9985ZM27.4668 16.5568C27.2283 14.0759 25.0866 13.2447 22.3822 13.0073V9.56665H20.2879V12.917C19.738 12.917 19.1742 12.9274 18.6162 12.939V9.56665H16.5219V13.0062C16.0681 13.0154 15.6236 13.0247 15.1883 13.0247V13.0131H12.2998V15.2498C12.2998 15.2498 13.8465 15.2208 13.821 15.2486C14.6696 15.2498 14.9451 15.7418 15.0262 16.1667V20.0866C15.0841 20.0866 15.1616 20.089 15.2473 20.1005C15.1778 20.1005 15.1026 20.1005 15.0262 20.1017L15.025 25.5926C14.988 25.8601 14.8317 26.2861 14.2389 26.2873C14.2656 26.3104 12.7166 26.2861 12.7166 26.2861L12.2998 28.7879H15.025C15.5333 28.7879 16.0322 28.7971 16.5219 28.8006L16.5231 32.2795L18.615 32.2807V28.8365C19.1893 28.8492 19.7461 28.8527 20.2879 28.8527L20.2868 32.2807L22.3822 32.2795V28.8064C25.9039 28.6038 28.3686 27.717 28.6743 24.4106C28.9208 21.7479 27.6694 20.559 25.67 20.0797C26.8845 19.4615 27.6439 18.3721 27.4668 16.5568Z" fill="#263BBA"/>
</svg>
