<svg width="32" height="32" viewBox="0 0 32 32" fill="none" xmlns="http://www.w3.org/2000/svg">
<path d="M17.5 12C17.5 10.6193 18.6193 9.5 20 9.5C21.3807 9.5 22.5 10.6193 22.5 12C22.5 13.3807 21.3807 14.5 20 14.5C18.6193 14.5 17.5 13.3807 17.5 12Z" fill="#263BBA"/>
<path fill-rule="evenodd" clip-rule="evenodd" d="M17.6069 16.731H16.025C11.7023 13.1119 14.2314 6 19.9097 6C23.2552 6 25.9745 8.72467 25.9744 12.0716C25.9744 15.4938 23.137 18.2295 19.7728 18.1416C19.4105 17.3223 18.5859 16.731 17.6069 16.731ZM20 8.5C18.067 8.5 16.5 10.067 16.5 12C16.5 13.933 18.067 15.5 20 15.5C21.933 15.5 23.5 13.933 23.5 12C23.5 10.067 21.933 8.5 20 8.5Z" fill="#263BBA"/>
<path d="M13.8764 16.73C13.067 16.7278 12.7592 16.727 12.2448 16.8118C10.8565 15.6979 9.96633 13.987 9.96629 12.0719C9.96629 8.74889 12.6467 6.04069 15.9565 6.00066C12.295 8.39771 11.5848 13.4196 14.3659 16.7309C14.1838 16.7309 14.0219 16.7304 13.8764 16.73Z" fill="#263BBA"/>
<path d="M23.768 20.6647C24.2795 20.1526 25.1073 20.154 25.6174 20.6647C26.1272 21.1767 26.128 22.0047 25.617 22.5159L22.5578 25.5786C22.2887 25.8479 21.9236 25.9994 21.5425 25.9994H6.39216C6.17557 25.9994 6 25.8237 6 25.6068V21.0456C6 20.8287 6.17557 20.653 6.39216 20.653H8.60875C8.66882 20.653 8.72561 20.6254 8.76278 20.5782L9.47177 19.677C10.4025 18.5543 11.7828 17.9079 13.2342 17.9079C14.5359 17.9079 14.7257 17.908 14.931 17.9081C15.1744 17.9082 15.4405 17.9083 17.6067 17.9083C18.2716 17.9083 18.8122 18.4559 18.7966 19.1281C18.7823 19.7758 18.2367 20.2922 17.5816 20.2922H16.0601C15.3377 20.2922 14.7503 20.8787 14.7503 21.6039C14.7503 22.3278 15.3366 22.9148 16.0601 22.9148H21.0562C21.3535 22.9148 21.6386 22.7962 21.8488 22.5862L23.768 20.6647Z" fill="#263BBA"/>
</svg>
