<svg width="24" height="24" viewBox="0 0 24 24" fill="none" xmlns="http://www.w3.org/2000/svg">
<path d="M5.83749 19C5.68809 19.0005 5.54048 18.9676 5.4055 18.9035C5.27052 18.8395 5.15161 18.7461 5.05749 18.63L0.227488 12.63C0.0804062 12.4511 0 12.2267 0 11.995C0 11.7634 0.0804062 11.539 0.227488 11.36L5.22749 5.36003C5.39723 5.15581 5.64114 5.02739 5.90556 5.00301C6.16999 4.97863 6.43327 5.06029 6.63749 5.23003C6.8417 5.39977 6.97013 5.64368 6.99451 5.90811C7.01889 6.17253 6.93723 6.43581 6.76749 6.64003L2.29749 12L6.61749 17.36C6.73977 17.5068 6.81745 17.6856 6.84133 17.8751C6.86521 18.0647 6.83429 18.2571 6.75223 18.4296C6.67018 18.6021 6.54042 18.7475 6.37831 18.8486C6.2162 18.9497 6.02852 19.0023 5.83749 19Z" fill="black"/>
</svg>
