<svg width="14" height="16" viewBox="0 0 14 16" fill="none" xmlns="http://www.w3.org/2000/svg">
<path d="M12.4444 1.55556H11.6667V0H10.1111V1.55556H3.88889V0H2.33333V1.55556H1.55556C0.692222 1.55556 0.00777777 2.25556 0.00777777 3.11111L0 14C0 14.4126 0.163888 14.8082 0.455612 15.0999C0.747335 15.3917 1.143 15.5556 1.55556 15.5556H12.4444C13.3 15.5556 14 14.8556 14 14V3.11111C14 2.25556 13.3 1.55556 12.4444 1.55556ZM12.4444 14H1.55556V6.22222H12.4444V14ZM12.4444 4.66667H1.55556V3.11111H12.4444V4.66667ZM7 8.55556H10.8889V12.4444H7V8.55556Z" fill="#263BBA"/>
</svg>
