<svg width="177" height="127" viewBox="0 0 177 127" fill="none" xmlns="http://www.w3.org/2000/svg">
<path fill-rule="evenodd" clip-rule="evenodd" d="M176.704 0H161.041V3.10282H172.118L160.118 17.5826V20.5131H176.992V17.4103H164.704L176.704 2.72933V0ZM154.675 19.9594H143.284V22.216H151.339L142.613 32.7467V34.878H154.885V32.6214H145.948L154.675 21.9443V19.9594Z" fill="#02034A" fill-opacity="0.5"/>
<path fill-rule="evenodd" clip-rule="evenodd" d="M2.93167 47.2817C2.59503 45.1419 4.05421 43.1335 6.19328 42.7924L115.06 25.4332C117.205 25.0911 119.221 26.5555 119.558 28.7016L130.204 96.3698C130.541 98.5096 129.082 100.518 126.943 100.859L18.0759 118.218C15.9306 118.56 13.915 117.096 13.5773 114.95L2.93167 47.2817Z" fill="white"/>
<path d="M113.467 26.8822L113.203 25.267L113.467 26.8822ZM117.598 30.0426L119.216 29.7945L117.598 30.0426ZM8.33721 44.0816L8.07297 42.4665L8.33721 44.0816ZM5.32103 48.4521L3.70335 48.7002L5.32103 48.4521ZM15.2229 113.012L16.8406 112.764L15.2229 113.012ZM19.3534 116.172L19.0891 114.557H19.0891L19.3534 116.172ZM23.5275 115.489L23.7918 117.105H23.7918L23.5275 115.489ZM25.4106 116.84L27.0251 116.572L25.4106 116.84ZM24.0635 118.718L24.3278 120.334H24.3278L24.0635 118.718ZM19.8894 119.401L19.6251 117.786L19.8894 119.401ZM11.9863 113.501L13.604 113.252L11.9863 113.501ZM2.08447 48.9408L3.70216 48.6927L2.08447 48.9408ZM7.80121 40.8526L8.06545 42.4677L7.80121 40.8526ZM112.931 23.6531L112.667 22.038L112.931 23.6531ZM120.834 29.5539L119.217 29.802L119.217 29.802L120.834 29.5539ZM121.896 36.4755L123.514 36.2274V36.2274L121.896 36.4755ZM120.526 38.3375L120.282 36.7193V36.7193L120.526 38.3375ZM118.659 36.9642L120.277 36.7161V36.7161L118.659 36.9642ZM122.627 41.317L121.009 41.5642L122.627 41.317ZM120.762 39.9444L120.517 38.3263L120.762 39.9444ZM123.253 45.4088L124.87 45.1616L123.253 45.4088ZM121.882 47.2718L121.636 45.6537L121.882 47.2718ZM120.016 45.8993L121.634 45.652L120.016 45.8993ZM119.391 41.8074L117.773 42.0546L119.391 41.8074ZM113.732 28.4973C114.703 28.3383 115.785 29.0213 115.98 30.2907L119.216 29.7945C118.759 26.8171 116.062 24.7994 113.203 25.267L113.732 28.4973ZM8.60145 45.6968L113.732 28.4973L113.203 25.267L8.07297 42.4665L8.60145 45.6968ZM6.93871 48.204C6.74011 46.9091 7.59886 45.8608 8.60145 45.6968L8.07297 42.4665C5.21049 42.9348 3.24641 45.721 3.70335 48.7002L6.93871 48.204ZM16.8406 112.764L6.93871 48.204L3.70335 48.7002L13.6052 113.26L16.8406 112.764ZM19.0891 114.557C18.1173 114.716 17.0353 114.033 16.8406 112.764L13.6052 113.26C14.0619 116.237 16.7592 118.255 19.6176 117.787L19.0891 114.557ZM23.2633 113.874L19.0891 114.557L19.6176 117.787L23.7918 117.105L23.2633 113.874ZM27.0251 116.572C26.7294 114.79 25.0459 113.583 23.2633 113.874L23.7918 117.105C23.7939 117.104 23.7944 117.104 23.7937 117.104C23.7931 117.104 23.7925 117.104 23.792 117.104C23.7913 117.104 23.7924 117.104 23.7944 117.105C23.7964 117.107 23.7969 117.108 23.7965 117.107C23.7962 117.107 23.7959 117.106 23.7957 117.106C23.7955 117.105 23.7958 117.106 23.7961 117.108L27.0251 116.572ZM24.3278 120.334C26.1133 120.041 27.3214 118.356 27.0251 116.572L23.7961 117.108C23.7965 117.11 23.7963 117.11 23.7964 117.109C23.7964 117.108 23.7965 117.107 23.7968 117.106C23.7972 117.104 23.7976 117.104 23.797 117.105C23.7965 117.106 23.7965 117.105 23.7981 117.104C23.799 117.104 23.7999 117.103 23.8008 117.103C23.8017 117.103 23.8014 117.103 23.7993 117.103L24.3278 120.334ZM20.1536 121.016L24.3278 120.334L23.7993 117.103L19.6251 117.786L20.1536 121.016ZM10.3686 113.749C11.0836 118.41 15.3799 121.797 20.1536 121.016L19.6251 117.786C16.76 118.255 14.0605 116.229 13.604 113.252L10.3686 113.749ZM0.466792 49.1889L10.3686 113.749L13.604 113.252L3.70216 48.6927L0.466792 49.1889ZM7.53697 39.2374C2.7952 40.0132 -0.244478 44.5514 0.466792 49.1889L3.70216 48.6927C3.24609 45.7191 5.20329 42.9359 8.06545 42.4677L7.53697 39.2374ZM112.667 22.038L7.53697 39.2374L8.06545 42.4677L113.196 25.2682L112.667 22.038ZM122.452 29.3058C121.737 24.644 117.441 21.257 112.667 22.038L113.196 25.2682C116.061 24.7995 118.76 26.8256 119.217 29.802L122.452 29.3058ZM123.514 36.2274L122.452 29.3058L119.217 29.802L120.278 36.7237L123.514 36.2274ZM120.77 39.9558C122.559 39.6857 123.788 38.0158 123.514 36.2274L120.278 36.7236C120.279 36.7258 120.279 36.7261 120.279 36.7251C120.279 36.7242 120.279 36.7232 120.279 36.7222C120.279 36.7204 120.28 36.7202 120.279 36.721C120.279 36.7217 120.279 36.7213 120.28 36.7204C120.281 36.7198 120.282 36.7194 120.283 36.7191C120.284 36.7187 120.284 36.719 120.282 36.7193L120.77 39.9558ZM117.042 37.2123C117.316 38.9977 118.984 40.2255 120.77 39.9558L120.282 36.7193C120.279 36.7196 120.279 36.7195 120.28 36.7195C120.28 36.7196 120.281 36.7197 120.281 36.7198C120.282 36.72 120.281 36.7198 120.279 36.7183C120.277 36.7169 120.276 36.7159 120.277 36.7165C120.277 36.7169 120.277 36.7175 120.278 36.718C120.278 36.7187 120.277 36.7182 120.277 36.7161L117.042 37.2123ZM115.98 30.2907L117.042 37.2123L120.277 36.7161L119.216 29.7945L115.98 30.2907ZM124.245 41.0697C123.972 39.2835 122.303 38.0555 120.517 38.3263L121.007 41.5625C121.009 41.5622 121.01 41.5623 121.009 41.5623C121.008 41.5622 121.008 41.5621 121.007 41.562C121.006 41.5617 121.007 41.5618 121.009 41.563C121.01 41.5643 121.011 41.565 121.01 41.5642C121.01 41.5637 121.009 41.563 121.009 41.5624C121.009 41.5617 121.009 41.5621 121.009 41.5642L124.245 41.0697ZM124.87 45.1616L124.245 41.0697L121.009 41.5642L121.635 45.656L124.87 45.1616ZM122.127 48.89C123.915 48.619 125.144 46.9494 124.87 45.1616L121.635 45.656C121.635 45.6581 121.635 45.6585 121.635 45.6576C121.635 45.6568 121.635 45.6558 121.635 45.655C121.636 45.6534 121.636 45.6536 121.635 45.6546C121.635 45.6556 121.634 45.6555 121.636 45.6546C121.636 45.6542 121.637 45.6537 121.638 45.6535C121.639 45.6531 121.639 45.6534 121.636 45.6537L122.127 48.89ZM118.398 46.1465C118.671 47.9327 120.34 49.1607 122.127 48.89L121.636 45.6537C121.634 45.654 121.634 45.6539 121.635 45.654C121.635 45.654 121.636 45.6541 121.637 45.6543C121.638 45.6545 121.637 45.6544 121.635 45.6532C121.633 45.652 121.633 45.6512 121.634 45.652C121.634 45.6526 121.634 45.6532 121.634 45.6539C121.635 45.6546 121.634 45.6542 121.634 45.652L118.398 46.1465ZM117.773 42.0546L118.398 46.1465L121.634 45.652L121.009 41.5602L117.773 42.0546ZM120.517 38.3263C118.729 38.5972 117.5 40.2668 117.773 42.0546L121.009 41.5602C121.009 41.5581 121.009 41.5577 121.009 41.5586C121.009 41.5594 121.008 41.5604 121.008 41.5613C121.008 41.5628 121.008 41.5626 121.008 41.5616C121.009 41.5606 121.009 41.5608 121.008 41.5616C121.007 41.5621 121.006 41.5625 121.006 41.5628C121.005 41.5631 121.005 41.5628 121.007 41.5625L120.517 38.3263Z" fill="#02034A" fill-opacity="0.5"/>
<rect x="28.5439" y="49.9519" width="116.691" height="77.0481" rx="5.23711" fill="white"/>
<rect x="30.1805" y="51.5885" width="113.417" height="73.7749" rx="3.60052" stroke="#02034A" stroke-opacity="0.5" stroke-width="3.2732"/>
<path d="M57.3888 75.7422C57.3888 80.7908 61.4979 84.8835 66.5667 84.8835C71.6355 84.8835 75.7446 80.7908 75.7446 75.7422" stroke="#02034A" stroke-opacity="0.5" stroke-width="3.2732" stroke-linecap="round"/>
<path d="M95.4116 75.7422C95.4116 80.7908 99.5207 84.8835 104.59 84.8835C109.658 84.8835 113.767 80.7908 113.767 75.7422" stroke="#02034A" stroke-opacity="0.5" stroke-width="3.2732" stroke-linecap="round"/>
<path d="M75.7446 100.554H94.756" stroke="#02034A" stroke-opacity="0.5" stroke-width="3.2732" stroke-linecap="round"/>
</svg>
