<svg width="41" height="41" viewBox="0 0 41 41" fill="none" xmlns="http://www.w3.org/2000/svg">
<path opacity="0.1" d="M0 8C0 3.58172 3.58172 0 8 0H33C37.4183 0 41 3.58172 41 8V33C41 37.4183 37.4183 41 33 41H8C3.58172 41 0 37.4183 0 33V8Z" fill="#263BBA"/>
<path fill-rule="evenodd" clip-rule="evenodd" d="M17.5 30C21.0899 30 24 27.0899 24 23.5C24 19.9101 21.0899 17 17.5 17C13.9101 17 11 19.9101 11 23.5C11 27.0899 13.9101 30 17.5 30ZM17.5 33C22.7467 33 27 28.7467 27 23.5C27 18.2533 22.7467 14 17.5 14C12.2533 14 8 18.2533 8 23.5C8 28.7467 12.2533 33 17.5 33Z" fill="#263BBA"/>
<path fill-rule="evenodd" clip-rule="evenodd" d="M23.5 24C27.0899 24 30 21.0899 30 17.5C30 13.9101 27.0899 11 23.5 11C19.9101 11 17 13.9101 17 17.5C17 21.0899 19.9101 24 23.5 24ZM23.5 27C28.7467 27 33 22.7467 33 17.5C33 12.2533 28.7467 8 23.5 8C18.2533 8 14 12.2533 14 17.5C14 22.7467 18.2533 27 23.5 27Z" fill="#263BBA"/>
</svg>
