<svg width="12" height="12" viewBox="0 0 12 12" fill="none" xmlns="http://www.w3.org/2000/svg">
<path d="M4.92995 8.99996C4.86139 8.99973 4.79361 8.98542 4.73082 8.95789C4.66803 8.93037 4.61157 8.89022 4.56495 8.83996L2.13495 6.25496C2.04411 6.15815 1.99545 6.02923 1.99967 5.89655C2.00389 5.76386 2.06065 5.63829 2.15745 5.54746C2.25426 5.45662 2.38318 5.40796 2.51586 5.41218C2.64854 5.4164 2.77411 5.47315 2.86495 5.56996L4.92495 7.76496L9.12995 3.16496C9.17262 3.11182 9.22571 3.06796 9.28595 3.03609C9.34619 3.00421 9.41231 2.98499 9.48025 2.97959C9.54818 2.9742 9.61651 2.98276 9.68102 3.00473C9.74553 3.02671 9.80487 3.06164 9.85539 3.10738C9.90591 3.15312 9.94655 3.20871 9.97481 3.27073C10.0031 3.33275 10.0183 3.39989 10.0197 3.46802C10.0211 3.53616 10.0085 3.60386 9.98273 3.66696C9.95698 3.73006 9.9186 3.78723 9.86995 3.83496L5.29995 8.83496C5.25377 8.88613 5.19751 8.92721 5.1347 8.9556C5.07188 8.984 5.00388 8.9991 4.93495 8.99996H4.92995Z" fill="white"/>
</svg>
