<svg width="23" height="24" viewBox="0 0 23 24" fill="none" xmlns="http://www.w3.org/2000/svg">
<path d="M17.014 21H11.3426C10.5905 21 9.86921 20.6839 9.3374 20.1213C8.8056 19.5587 8.50684 18.7956 8.50684 18V12C8.50684 11.2044 8.8056 10.4413 9.3374 9.87868C9.86921 9.31607 10.5905 9 11.3426 9H17.014C17.7661 9 18.4874 9.31607 19.0192 9.87868C19.551 10.4413 19.8498 11.2044 19.8498 12V18C19.8498 18.7956 19.551 19.5587 19.0192 20.1213C18.4874 20.6839 17.7661 21 17.014 21ZM11.3426 11C11.0919 11 10.8514 11.1054 10.6742 11.2929C10.4969 11.4804 10.3973 11.7348 10.3973 12V18C10.3973 18.2652 10.4969 18.5196 10.6742 18.7071C10.8514 18.8946 11.0919 19 11.3426 19H17.014C17.2647 19 17.5052 18.8946 17.6824 18.7071C17.8597 18.5196 17.9593 18.2652 17.9593 18V12C17.9593 11.7348 17.8597 11.4804 17.6824 11.2929C17.5052 11.1054 17.2647 11 17.014 11H11.3426Z" fill="#263BBA"/>
<path d="M9.19744 15H5.35974C4.69115 14.9974 4.05066 14.7152 3.57789 14.2151C3.10513 13.7149 2.83843 13.0373 2.83594 12.33V5.67C2.83843 4.96268 3.10513 4.28509 3.57789 3.78494C4.05066 3.28478 4.69115 3.00263 5.35974 3H11.6551C12.3237 3.00263 12.9642 3.28478 13.4369 3.78494C13.9097 4.28509 14.1764 4.96268 14.1789 5.67V9.4H12.2884V5.67C12.2884 5.49231 12.2217 5.32189 12.1029 5.19624C11.9841 5.07059 11.823 5 11.6551 5H5.35974C5.19178 5 5.03069 5.07059 4.91192 5.19624C4.79315 5.32189 4.72643 5.49231 4.72643 5.67V12.33C4.72643 12.5077 4.79315 12.6781 4.91192 12.8038C5.03069 12.9294 5.19178 13 5.35974 13H9.19744V15Z" fill="#263BBA"/>
</svg>
