<svg width="32" height="32" viewBox="0 0 32 32" fill="none" xmlns="http://www.w3.org/2000/svg">
<path d="M25.3337 6.66663H6.66699C5.60613 6.66663 4.58871 7.08805 3.83857 7.8382C3.08842 8.58834 2.66699 9.60576 2.66699 10.6666V21.3333C2.66699 22.3942 3.08842 23.4116 3.83857 24.1617C4.58871 24.9119 5.60613 25.3333 6.66699 25.3333H25.3337C26.3945 25.3333 27.4119 24.9119 28.1621 24.1617C28.9122 23.4116 29.3337 22.3942 29.3337 21.3333V10.6666C29.3337 9.60576 28.9122 8.58834 28.1621 7.8382C27.4119 7.08805 26.3945 6.66663 25.3337 6.66663ZM5.33366 10.6666C5.33366 10.313 5.47413 9.97387 5.72418 9.72382C5.97423 9.47377 6.31337 9.33329 6.66699 9.33329H25.3337C25.6873 9.33329 26.0264 9.47377 26.2765 9.72382C26.5265 9.97387 26.667 10.313 26.667 10.6666V12H5.33366V10.6666ZM26.667 21.3333C26.667 21.6869 26.5265 22.0261 26.2765 22.2761C26.0264 22.5262 25.6873 22.6666 25.3337 22.6666H6.66699C6.31337 22.6666 5.97423 22.5262 5.72418 22.2761C5.47413 22.0261 5.33366 21.6869 5.33366 21.3333V14.6666H26.667V21.3333Z" fill="#263BBA"/>
<path d="M9.33333 20H14.6667C15.0203 20 15.3594 19.8596 15.6095 19.6095C15.8595 19.3595 16 19.0203 16 18.6667C16 18.3131 15.8595 17.9739 15.6095 17.7239C15.3594 17.4739 15.0203 17.3334 14.6667 17.3334H9.33333C8.97971 17.3334 8.64057 17.4739 8.39052 17.7239C8.14048 17.9739 8 18.3131 8 18.6667C8 19.0203 8.14048 19.3595 8.39052 19.6095C8.64057 19.8596 8.97971 20 9.33333 20Z" fill="#263BBA"/>
<path d="M20.0003 20H22.667C23.0206 20 23.3598 19.8596 23.6098 19.6095C23.8599 19.3595 24.0003 19.0203 24.0003 18.6667C24.0003 18.3131 23.8599 17.9739 23.6098 17.7239C23.3598 17.4739 23.0206 17.3334 22.667 17.3334H20.0003C19.6467 17.3334 19.3076 17.4739 19.0575 17.7239C18.8075 17.9739 18.667 18.3131 18.667 18.6667C18.667 19.0203 18.8075 19.3595 19.0575 19.6095C19.3076 19.8596 19.6467 20 20.0003 20Z" fill="#263BBA"/>
</svg>
