<svg width="35" height="35" viewBox="0 0 35 35" fill="none" xmlns="http://www.w3.org/2000/svg">
<g clip-path="url(#clip0)">
<path d="M30.3337 5.66675H11.667C10.6061 5.66675 9.58871 6.08818 8.83857 6.83832C8.08842 7.58847 7.66699 8.60588 7.66699 9.66675V20.3334C7.66699 21.3943 8.08842 22.4117 8.83857 23.1618C9.58871 23.912 10.6061 24.3334 11.667 24.3334H30.3337C31.3945 24.3334 32.4119 23.912 33.1621 23.1618C33.9122 22.4117 34.3337 21.3943 34.3337 20.3334V9.66675C34.3337 8.60588 33.9122 7.58847 33.1621 6.83832C32.4119 6.08818 31.3945 5.66675 30.3337 5.66675ZM10.3337 9.66675C10.3337 9.31313 10.4741 8.97399 10.7242 8.72394C10.9742 8.47389 11.3134 8.33341 11.667 8.33341H30.3337C30.6873 8.33341 31.0264 8.47389 31.2765 8.72394C31.5265 8.97399 31.667 9.31313 31.667 9.66675V11.0001H10.3337V9.66675ZM31.667 20.3334C31.667 20.687 31.5265 21.0262 31.2765 21.2762C31.0264 21.5263 30.6873 21.6667 30.3337 21.6667H11.667C11.3134 21.6667 10.9742 21.5263 10.7242 21.2762C10.4741 21.0262 10.3337 20.687 10.3337 20.3334V13.6667H31.667V20.3334Z" fill="#263BBA"/>
<path d="M14.3333 18.9999H19.6667C20.0203 18.9999 20.3594 18.8594 20.6095 18.6094C20.8595 18.3593 21 18.0202 21 17.6666C21 17.313 20.8595 16.9738 20.6095 16.7238C20.3594 16.4737 20.0203 16.3333 19.6667 16.3333H14.3333C13.9797 16.3333 13.6406 16.4737 13.3905 16.7238C13.1405 16.9738 13 17.313 13 17.6666C13 18.0202 13.1405 18.3593 13.3905 18.6094C13.6406 18.8594 13.9797 18.9999 14.3333 18.9999Z" fill="#263BBA"/>
<path d="M25.0003 18.9999H27.667C28.0206 18.9999 28.3598 18.8594 28.6098 18.6094C28.8599 18.3593 29.0003 18.0202 29.0003 17.6666C29.0003 17.313 28.8599 16.9738 28.6098 16.7238C28.3598 16.4737 28.0206 16.3333 27.667 16.3333H25.0003C24.6467 16.3333 24.3076 16.4737 24.0575 16.7238C23.8075 16.9738 23.667 17.313 23.667 17.6666C23.667 18.0202 23.8075 18.3593 24.0575 18.6094C24.3076 18.8594 24.6467 18.9999 25.0003 18.9999Z" fill="#263BBA"/>
</g>
<defs>
<clipPath id="clip0">
<rect width="35" height="35" fill="white"/>
</clipPath>
</defs>
</svg>
