<svg width="32" height="21" viewBox="0 0 32 21" fill="none" xmlns="http://www.w3.org/2000/svg">
<path fill-rule="evenodd" clip-rule="evenodd" d="M19.5 13C19.5 12.1716 20.1716 11.5 21 11.5H25.5C26.3284 11.5 27 12.1716 27 13C27 13.8284 26.3284 14.5 25.5 14.5H21C20.1716 14.5 19.5 13.8284 19.5 13ZM29 9.5H3V16C3 17.1046 3.89543 18 5 18H27C28.1046 18 29 17.1046 29 16V9.5ZM29 6.5H3V5C3 3.89543 3.89543 3 5 3H27C28.1046 3 29 3.89543 29 5V6.5ZM32 5C32 2.23858 29.7614 0 27 0H5C2.23858 0 0 2.23858 0 5V16C0 18.7614 2.23858 21 5 21H27C29.7614 21 32 18.7614 32 16V5Z" fill="#263BBA"/>
</svg>
