<svg width="28" height="28" viewBox="0 0 28 28" fill="none" xmlns="http://www.w3.org/2000/svg">
<path d="M4.71429 4.90189L5.42853 5.60179L4.71429 4.90189ZM26.7008 11.2143L25.7238 11.4276L26.7008 11.2143ZM15 8.42857C15 7.87629 14.5523 7.42857 14 7.42857C13.4477 7.42857 13 7.87629 13 8.42857H15ZM13 20.5C13 21.0523 13.4477 21.5 14 21.5C14.5523 21.5 15 21.0523 15 20.5H13ZM7.90333 13.4643C7.35105 13.4643 6.90333 13.912 6.90333 14.4643C6.90333 15.0166 7.35105 15.4643 7.90333 15.4643V13.4643ZM20.1374 15.4643C20.6897 15.4643 21.1374 15.0166 21.1374 14.4643C21.1374 13.912 20.6897 13.4643 20.1374 13.4643V15.4643ZM26 14C26 20.6274 20.6274 26 14 26V28C21.732 28 28 21.732 28 14H26ZM14 26C7.37258 26 2 20.6274 2 14H0C0 21.732 6.26801 28 14 28V26ZM2 14C2 10.73 3.30663 7.76716 5.42853 5.60179L4.00004 4.20199C1.52667 6.72604 0 10.1857 0 14H2ZM5.42853 5.60179C7.60772 3.37794 10.642 2 14 2V0C10.0828 0 6.53991 1.61008 4.00004 4.20199L5.42853 5.60179ZM14 2C19.7435 2 24.5468 6.0361 25.7238 11.4276L27.6778 11.001C26.3044 4.71037 20.7035 0 14 0V2ZM25.7238 11.4276C25.9046 12.2554 26 13.116 26 14H28C28 12.9716 27.889 11.968 27.6778 11.001L25.7238 11.4276ZM13 8.42857V14.4643H15V8.42857H13ZM13 14.4643V20.5H15V14.4643H13ZM14 13.4643H7.90333V15.4643H14V13.4643ZM14 15.4643H20.1374V13.4643H14V15.4643Z" fill="white"/>
</svg>
