<svg width="30" height="24" viewBox="0 0 30 24" fill="none" xmlns="http://www.w3.org/2000/svg">
<path d="M1.51852 21.5463C1.1043 21.5463 0.768519 21.8821 0.768519 22.2963C0.768519 22.7105 1.1043 23.0463 1.51852 23.0463V21.5463ZM29 23.0463C29.4142 23.0463 29.75 22.7105 29.75 22.2963C29.75 21.8821 29.4142 21.5463 29 21.5463V23.0463ZM10.8056 2.0281L10.2872 1.48612L10.8056 2.0281ZM15.0006 2.0747L14.4703 2.60503L15.0006 2.0747ZM3.21664 9.28715L2.69822 8.74516L3.21664 9.28715ZM1.51852 23.0463H11.8889V21.5463H1.51852V23.0463ZM12.4192 21.766L3.69932 13.0461L2.63866 14.1067L11.3586 22.8266L12.4192 21.766ZM3.73505 9.82913L11.3241 2.57008L10.2872 1.48612L2.69822 8.74516L3.73505 9.82913ZM14.4703 2.60503L26.3483 14.4831L27.409 13.4224L15.531 1.54437L14.4703 2.60503ZM11.8889 23.0463H22.7778V21.5463H11.8889V23.0463ZM22.7778 23.0463H29V21.5463H22.7778V23.0463ZM26.3483 17.6651L22.2474 21.766L23.3081 22.8266L27.409 18.7257L26.3483 17.6651ZM26.3483 14.4831C27.227 15.3618 27.227 16.7864 26.3483 17.6651L27.409 18.7257C28.8735 17.2613 28.8735 14.8869 27.409 13.4224L26.3483 14.4831ZM11.3241 2.57008C12.208 1.7246 13.6054 1.74013 14.4703 2.60503L15.531 1.54437C14.0894 0.102863 11.7604 0.0769886 10.2872 1.48612L11.3241 2.57008ZM3.69932 13.0461C2.8068 12.1535 2.82293 10.7016 3.73505 9.82913L2.69822 8.74516C1.17801 10.1993 1.15113 12.6192 2.63866 14.1067L3.69932 13.0461Z" fill="#555555"/>
<path d="M14.2144 15.6966C14.4152 15.5061 14.5209 15.2987 14.5316 15.0745C14.5471 14.8505 14.4784 14.5574 14.3256 14.1952C14.1727 13.833 14.0535 13.5086 13.9679 13.2222C13.8848 12.9335 13.8407 12.6589 13.8356 12.3985C13.8353 12.1382 13.8849 11.8864 13.9844 11.6431C14.0863 11.4022 14.2572 11.1679 14.4972 10.9403C14.9111 10.5476 15.3758 10.3581 15.8912 10.3716C16.3545 10.3838 16.7955 10.5508 17.214 10.8725C17.2955 10.9351 17.411 10.933 17.4855 10.8623L17.9953 10.3787C18.0755 10.3027 18.202 10.306 18.2781 10.3861L18.5604 10.6837C18.6364 10.7638 18.6331 10.8904 18.5529 10.9665L18.0269 11.4655C17.9546 11.5341 17.9446 11.645 17.9974 11.7295C18.2763 12.1766 18.3847 12.6395 18.3225 13.1184C18.2629 13.5922 18.0381 14.0357 17.6479 14.449C17.572 14.5293 17.4449 14.5256 17.3689 14.4454L16.637 13.674C16.561 13.5938 16.5653 13.4679 16.6392 13.3859C16.8447 13.1578 16.9592 12.9363 16.9827 12.7214C17.0157 12.462 16.9359 12.2306 16.743 12.0274C16.5525 11.8265 16.3474 11.7256 16.1278 11.7246C15.9106 11.7213 15.7016 11.8149 15.5007 12.0054C15.3146 12.182 15.2163 12.3776 15.2059 12.5922C15.1955 12.8068 15.2697 13.1156 15.4287 13.5186C15.5899 13.924 15.7073 14.2709 15.7809 14.5594C15.8569 14.8456 15.8904 15.1163 15.8813 15.3716C15.8746 15.6245 15.8193 15.8654 15.7154 16.0943C15.6139 16.3209 15.4518 16.5398 15.2289 16.7513C14.8126 17.1462 14.3515 17.3371 13.8456 17.3237C13.3889 17.3117 12.9432 17.1375 12.5086 16.801C12.4275 16.7381 12.3122 16.7404 12.2377 16.811L11.7828 17.2426C11.7027 17.3186 11.5761 17.3153 11.5001 17.2351L11.2212 16.9412C11.1452 16.8611 11.1486 16.7345 11.2287 16.6585L11.6806 16.2298C11.7547 16.1594 11.7633 16.0448 11.7053 15.9607C11.3567 15.4552 11.2001 14.9458 11.2354 14.4326C11.2746 13.9254 11.5002 13.4533 11.9124 13.0161C11.9881 12.9358 12.1153 12.9395 12.1913 13.0196L12.9232 13.7911C12.9992 13.8712 12.9948 13.9971 12.9217 14.0799C12.7184 14.3099 12.6058 14.5432 12.5837 14.7797C12.5619 15.0657 12.6741 15.3384 12.9204 15.598C13.1248 15.8135 13.3426 15.9303 13.5738 15.9483C13.8074 15.964 14.0209 15.8801 14.2144 15.6966Z" fill="#555555"/>
</svg>
