<svg width="29" height="23" viewBox="0 0 29 23" fill="none" xmlns="http://www.w3.org/2000/svg">
<path d="M1 21.25C0.585786 21.25 0.25 21.5858 0.25 22C0.25 22.4142 0.585786 22.75 1 22.75V21.25ZM27.5 22.75C27.9142 22.75 28.25 22.4142 28.25 22C28.25 21.5858 27.9142 21.25 27.5 21.25V22.75ZM25.3787 13.8787L24.8483 14.409L25.3787 13.8787ZM1 22.75H11V21.25H1V22.75ZM11.5303 21.4697L3.19931 13.1387L2.13865 14.1993L10.4697 22.5303L11.5303 21.4697ZM3.23505 9.92172L10.3981 3.07008L9.3613 1.98612L2.19822 8.83776L3.23505 9.92172ZM13.5444 3.10503L24.8483 14.409L25.909 13.3483L14.605 2.04437L13.5444 3.10503ZM11 22.75H21.5V21.25H11V22.75ZM21.5 22.75H27.5V21.25H21.5V22.75ZM24.8484 17.591L20.9697 21.4697L22.0303 22.5303L25.909 18.6516L24.8484 17.591ZM24.8483 14.409C25.727 15.2877 25.727 16.7123 24.8484 17.591L25.909 18.6516C27.3735 17.1872 27.3735 14.8128 25.909 13.3483L24.8483 14.409ZM10.3981 3.07008C11.282 2.2246 12.6795 2.24013 13.5444 3.10503L14.605 2.04437C13.1635 0.602862 10.8345 0.57699 9.3613 1.98612L10.3981 3.07008ZM3.19931 13.1387C2.3068 12.2461 2.32293 10.7942 3.23505 9.92172L2.19822 8.83776C0.678012 10.2919 0.651127 12.7118 2.13865 14.1993L3.19931 13.1387Z" fill="white"/>
<path d="M13.2424 15.636C13.4361 15.4523 13.5381 15.2523 13.5484 15.0362C13.5633 14.8201 13.497 14.5375 13.3496 14.1882C13.2023 13.8389 13.0873 13.5262 13.0048 13.25C12.9246 12.9716 12.8821 12.7068 12.8772 12.4557C12.8769 12.2047 12.9247 11.9619 13.0207 11.7273C13.1189 11.495 13.2837 11.2691 13.5152 11.0495C13.9143 10.6709 14.3623 10.4881 14.8594 10.5012C15.3043 10.5129 15.7278 10.6726 16.1298 10.9803C16.2114 11.0427 16.3269 11.0406 16.4014 10.9699L16.8832 10.5129C16.9633 10.4369 17.0899 10.4402 17.1659 10.5204L17.4283 10.797C17.5043 10.8771 17.501 11.0037 17.4208 11.0797L16.9233 11.5517C16.851 11.6203 16.841 11.7313 16.8936 11.8159C17.1601 12.2453 17.2636 12.69 17.2039 13.1499C17.1467 13.6048 16.9314 14.0307 16.5582 14.4278C16.4826 14.5082 16.3554 14.5045 16.2793 14.4244L15.5834 13.6908C15.5074 13.6107 15.5117 13.4848 15.5854 13.4025C15.7806 13.1844 15.8894 12.9726 15.9118 12.767C15.9438 12.5169 15.8667 12.2938 15.6808 12.0978C15.4971 11.9042 15.2993 11.8069 15.0875 11.8059C14.878 11.8027 14.6765 11.8929 14.4828 12.0766C14.3034 12.2469 14.2086 12.4355 14.1985 12.6425C14.1885 12.8495 14.2601 13.1472 14.4133 13.5358C14.5688 13.9267 14.6821 14.2613 14.753 14.5394C14.8263 14.8154 14.8586 15.0764 14.8498 15.3226C14.8434 15.5665 14.7901 15.7988 14.6899 16.0195C14.592 16.238 14.4356 16.4491 14.2207 16.653C13.8193 17.0339 13.3746 17.2179 12.8868 17.205C12.4482 17.1935 12.0202 17.0268 11.6027 16.7049C11.5215 16.6422 11.4061 16.6444 11.3317 16.715L10.9029 17.1218C10.8228 17.1979 10.6962 17.1945 10.6201 17.1144L10.3611 16.8414C10.2851 16.7612 10.2884 16.6346 10.3686 16.5586L10.7945 16.1545C10.8686 16.0842 10.8772 15.9696 10.8194 15.8854C10.4857 15.3997 10.3359 14.9103 10.3698 14.4171C10.4075 13.9301 10.6234 13.4765 11.0177 13.0565C11.0933 12.9759 11.2205 12.9797 11.2965 13.0598L11.9924 13.7934C12.0685 13.8735 12.064 13.9993 11.9912 14.0824C11.7982 14.3025 11.6911 14.5256 11.67 14.7518C11.649 15.0276 11.7572 15.2906 11.9946 15.541C12.1918 15.7488 12.4018 15.8614 12.6247 15.8788C12.85 15.8939 13.0559 15.813 13.2424 15.636Z" fill="white"/>
</svg>
