<svg width="20" height="20" viewBox="0 0 20 20" fill="none" xmlns="http://www.w3.org/2000/svg">
<path d="M10 13.3334C9.80532 13.3338 9.61662 13.266 9.46669 13.1417L4.46669 8.97507C4.29651 8.83362 4.18949 8.63036 4.16918 8.41C4.14886 8.18965 4.21691 7.97025 4.35836 7.80007C4.49981 7.62989 4.70307 7.52287 4.92342 7.50255C5.14378 7.48223 5.36318 7.55028 5.53336 7.69173L10 11.4251L14.4667 7.82507C14.5519 7.75585 14.65 7.70415 14.7553 7.67296C14.8606 7.64177 14.971 7.63169 15.0802 7.6433C15.1894 7.65492 15.2952 7.688 15.3916 7.74065C15.4879 7.79329 15.5729 7.86446 15.6417 7.95007C15.718 8.03575 15.7758 8.13627 15.8115 8.24533C15.8471 8.3544 15.8599 8.46965 15.8489 8.58387C15.838 8.69809 15.8036 8.80881 15.7478 8.90911C15.6921 9.00941 15.6162 9.09711 15.525 9.16673L10.525 13.1917C10.3708 13.2963 10.1859 13.3462 10 13.3334Z" fill="#263BBA"/>
</svg>
