<svg width="41" height="41" viewBox="0 0 41 41" fill="none" xmlns="http://www.w3.org/2000/svg">
<rect opacity="0.1" width="41" height="41" rx="8" fill="#263BBA"/>
<path d="M20.8264 7.30388L13.2498 20.5629C13.1121 20.8038 13.1969 21.1108 13.4387 21.2468L20.5097 25.2242C20.8142 25.3955 21.1858 25.3955 21.4903 25.2242L28.5613 21.2468C28.8031 21.1108 28.8879 20.8038 28.7502 20.5629L21.1736 7.30389C21.0969 7.16952 20.9031 7.16952 20.8264 7.30388Z" fill="#263BBA"/>
<path d="M20.8336 34.7504L13.5152 23.7728C13.3957 23.5936 13.605 23.3781 13.7876 23.4923L20.47 27.6688C20.7943 27.8714 21.2057 27.8714 21.53 27.6688L28.2124 23.4923C28.395 23.3781 28.6043 23.5936 28.4848 23.7728L21.1664 34.7504C21.0872 34.8691 20.9128 34.8691 20.8336 34.7504Z" fill="#263BBA"/>
</svg>
