<svg class="shadow" width="80" height="80" viewBox="0 0 80 80" fill="none" xmlns="http://www.w3.org/2000/svg">
<g filter="url(#filter0_d)">
<circle cx="40" cy="36" r="20" fill="white"/>
</g>
<path d="M32.1029 36.0001C32.1032 34.3814 32.5844 32.8007 33.4834 31.465C34.3823 30.1293 35.6571 29.101 37.1407 28.5149C38.6242 27.9288 40.2473 27.8123 41.7971 28.1805C43.3469 28.5488 44.7511 29.3847 45.8257 30.5786L42.6452 31.6571C42.5557 31.6874 42.4728 31.7353 42.4015 31.7982C42.3301 31.861 42.2717 31.9376 42.2294 32.0234C42.1871 32.1092 42.1619 32.2027 42.1551 32.2984C42.1484 32.3942 42.1603 32.4904 42.19 32.5815C42.2198 32.6725 42.267 32.7568 42.3288 32.8293C42.3906 32.9019 42.4658 32.9614 42.5502 33.0044C42.6346 33.0473 42.7265 33.073 42.8207 33.0799C42.9148 33.0867 43.0094 33.0747 43.099 33.0444L47.4066 31.5841C47.55 31.5355 47.6747 31.4422 47.7628 31.3174C47.851 31.1925 47.8982 31.0426 47.8977 30.8889V26.508C47.8977 26.3143 47.8221 26.1286 47.6874 25.9917C47.5528 25.8548 47.3702 25.7778 47.1798 25.7778C46.9894 25.7778 46.8068 25.8548 46.6721 25.9917C46.5375 26.1286 46.4618 26.3143 46.4618 26.508V29.1753C45.1463 27.8799 43.4845 27.0077 41.6842 26.6674C39.884 26.3272 38.025 26.5341 36.3397 27.2623C34.6544 27.9905 33.2175 29.2077 32.2086 30.7618C31.1997 32.3158 30.6635 34.1378 30.667 36.0001C30.667 36.1937 30.7427 36.3794 30.8773 36.5164C31.0119 36.6533 31.1945 36.7302 31.385 36.7302C31.5754 36.7302 31.758 36.6533 31.8926 36.5164C32.0273 36.3794 32.1029 36.1937 32.1029 36.0001Z" fill="#263BBA"/>
<path d="M48.6153 35.2698C48.4249 35.2698 48.2423 35.3467 48.1076 35.4836C47.973 35.6206 47.8974 35.8063 47.8974 35.9999C47.897 37.6186 47.4159 39.1993 46.5169 40.535C45.6179 41.8707 44.3431 42.899 42.8596 43.4851C41.376 44.0712 39.753 44.1877 38.2032 43.8195C36.6534 43.4512 35.2491 42.6153 34.1745 41.4214L37.355 40.3429C37.4446 40.3126 37.5274 40.2647 37.5988 40.2018C37.6701 40.139 37.7286 40.0624 37.7709 39.9766C37.8131 39.8908 37.8384 39.7973 37.8451 39.7016C37.8519 39.6058 37.84 39.5096 37.8102 39.4185C37.7804 39.3274 37.7333 39.2432 37.6715 39.1707C37.6097 39.0981 37.5344 39.0386 37.45 38.9956C37.3656 38.9526 37.2737 38.927 37.1796 38.9201C37.0854 38.9133 36.9909 38.9253 36.9013 38.9556L32.5936 40.4159C32.4502 40.4645 32.3256 40.5578 32.2374 40.6826C32.1493 40.8074 32.1021 40.9574 32.1025 41.111V45.492C32.1025 45.6857 32.1782 45.8714 32.3128 46.0083C32.4475 46.1452 32.6301 46.2222 32.8205 46.2222C33.0109 46.2222 33.1935 46.1452 33.3282 46.0083C33.4628 45.8714 33.5384 45.6857 33.5384 45.492V42.8247C34.854 44.1201 36.5158 44.9923 38.316 45.3326C40.1163 45.6728 41.9752 45.4659 43.6605 44.7377C45.3458 44.0095 46.7827 42.7923 47.7917 41.2382C48.8006 39.6842 49.3368 37.8622 49.3333 35.9999C49.3333 35.8063 49.2576 35.6206 49.123 35.4836C48.9883 35.3467 48.8057 35.2698 48.6153 35.2698Z" fill="#263BBA"/>
<defs>
<filter id="filter0_d" x="0" y="0" width="80" height="80" filterUnits="userSpaceOnUse" color-interpolation-filters="sRGB">
<feFlood flood-opacity="0" result="BackgroundImageFix"/>
<feColorMatrix in="SourceAlpha" type="matrix" values="0 0 0 0 0 0 0 0 0 0 0 0 0 0 0 0 0 0 127 0"/>
<feOffset dy="4"/>
<feGaussianBlur stdDeviation="10"/>
<feColorMatrix type="matrix" values="0 0 0 0 0.14902 0 0 0 0 0.231373 0 0 0 0 0.729412 0 0 0 0.2 0"/>
<feBlend mode="normal" in2="BackgroundImageFix" result="effect1_dropShadow"/>
<feBlend mode="normal" in="SourceGraphic" in2="effect1_dropShadow" result="shape"/>
</filter>
</defs>
</svg>
