<svg width="15" height="15" viewBox="0 0 15 15" fill="none" xmlns="http://www.w3.org/2000/svg">
<path d="M7.27601 2.87679C8.62283 2.87679 9.53134 3.45855 10.0493 3.94468L12.0736 1.96828C10.8303 0.812727 9.21256 0.103455 7.27601 0.103455C4.4708 0.103455 2.04812 1.71326 0.868652 4.05625L3.18773 5.85732C3.7695 4.12798 5.3793 2.87679 7.27601 2.87679Z" fill="#EA4335"/>
<path d="M14.1614 7.43523C14.1614 6.8455 14.1136 6.41516 14.01 5.96887H7.27588V8.63063H11.2287C11.149 9.29209 10.7186 10.2883 9.76232 10.9577L12.0256 12.7109C13.3804 11.4598 14.1614 9.61883 14.1614 7.43523Z" fill="#4285F4"/>
<path d="M3.19562 8.69444C3.0442 8.24815 2.95654 7.76999 2.95654 7.27589C2.95654 6.78179 3.0442 6.30363 3.18765 5.85735L0.868573 4.05627C0.382443 5.02854 0.103516 6.12034 0.103516 7.27589C0.103516 8.43145 0.382443 9.52325 0.868573 10.4955L3.19562 8.69444Z" fill="#FBBC05"/>
<path d="M7.27585 14.4482C9.21241 14.4482 10.8382 13.8107 12.0256 12.7109L9.76229 10.9576C9.15662 11.38 8.34375 11.6749 7.27585 11.6749C5.37915 11.6749 3.76934 10.4237 3.19555 8.69434L0.876465 10.4954C2.05593 12.8384 4.47064 14.4482 7.27585 14.4482Z" fill="#34A853"/>
</svg>
