<svg width="24" height="24" viewBox="0 0 24 24" fill="none" xmlns="http://www.w3.org/2000/svg">
<path d="M7.5 8C7.5 7.33333 7.9 6 9.5 6C11.1 6 11.5 7.33333 11.5 8C11.5 8.5 11.1 9.7 9.5 10.5V11.5M9.5 13.5V13.6005M9.03779 17.205C9.3892 20.4632 12.1484 23 15.5 23C16.9569 23 18.3019 22.5207 19.3858 21.7111L22.5 23L21.2271 19.5768C21.7202 18.6609 22 17.6131 22 16.5C22 13.4617 19.9154 10.9102 17.0984 10.198M9.5 2C13.6421 2 17 5.35786 17 9.5C17 13.6421 13.6421 17 9.5 17C8.13633 17 6.85766 16.6361 5.75583 16L2 17.5L3.15456 13.5C2.42324 12.3423 2 10.9706 2 9.5C2 5.35786 5.35786 2 9.5 2Z" stroke="#263BBA" stroke-width="1.5" stroke-linecap="round" stroke-linejoin="round"/>
</svg>
