<svg width="24" height="24" viewBox="0 0 24 24" fill="none" xmlns="http://www.w3.org/2000/svg">
<path d="M2 12.5L1.32036 12.1828C1.22655 12.3839 1.22655 12.6161 1.32036 12.8172L2 12.5ZM23 12.5L23.6796 12.8172C23.7735 12.6161 23.7735 12.3839 23.6796 12.1828L23 12.5ZM9.7994 4.61891C9.40028 4.7297 9.16654 5.14306 9.27733 5.54218C9.38811 5.94131 9.80148 6.17505 10.2006 6.06426L9.7994 4.61891ZM5.88423 8.5536C6.18998 8.27415 6.21129 7.79975 5.93184 7.49401C5.65239 7.18826 5.17799 7.16695 4.87225 7.4464L5.88423 8.5536ZM16.2769 20.0185C16.6619 19.8656 16.8499 19.4295 16.697 19.0446C16.5441 18.6596 16.108 18.4716 15.7231 18.6245L16.2769 20.0185ZM19.6096 15.972C19.318 16.2661 19.3201 16.741 19.6142 17.0326C19.9084 17.3242 20.3833 17.3222 20.6749 17.028L19.6096 15.972ZM3.5431 1.48276C3.25744 1.18281 2.78271 1.17123 2.48276 1.4569C2.18281 1.74256 2.17123 2.21729 2.4569 2.51724L3.5431 1.48276ZM22.4569 23.5172C22.7426 23.8172 23.2173 23.8288 23.5172 23.5431C23.8172 23.2574 23.8288 22.7827 23.5431 22.4828L22.4569 23.5172ZM9.05425 11.0175C9.21818 10.6371 9.0427 10.1958 8.6623 10.0319C8.28191 9.86794 7.84065 10.0434 7.67672 10.4238L9.05425 11.0175ZM11.0756 7.44574C10.6768 7.55792 10.4445 7.9721 10.5567 8.37083C10.6689 8.76957 11.0831 9.00186 11.4818 8.88968L11.0756 7.44574ZM16.0368 13.7501C15.8988 14.1406 16.1035 14.5691 16.494 14.7071C16.8845 14.8452 17.313 14.6405 17.4511 14.2499L16.0368 13.7501ZM14.4456 17.3775C14.8303 17.2239 15.0177 16.7875 14.8641 16.4028C14.7105 16.0181 14.2742 15.8308 13.8895 15.9844L14.4456 17.3775ZM12.5 5.75C15.0646 5.75 17.2291 6.8932 18.9176 8.37603C20.6108 9.86308 21.7762 11.6511 22.3204 12.8172L23.6796 12.1828C23.0571 10.8489 21.7725 8.88692 19.9074 7.24897C18.0375 5.6068 15.5354 4.25 12.5 4.25V5.75ZM12.5 19.25C9.93538 19.25 7.77086 18.1068 6.08241 16.624C4.38915 15.1369 3.22381 13.3489 2.67964 12.1828L1.32036 12.8172C1.94286 14.1511 3.22751 16.1131 5.09259 17.751C6.96248 19.3932 9.46462 20.75 12.5 20.75V19.25ZM10.2006 6.06426C10.9238 5.8635 11.6906 5.75 12.5 5.75V4.25C11.5486 4.25 10.6469 4.38365 9.7994 4.61891L10.2006 6.06426ZM2.67964 12.8172C3.20171 11.6984 4.29707 10.0043 5.88423 8.5536L4.87225 7.4464C3.1271 9.04148 1.91864 10.9008 1.32036 12.1828L2.67964 12.8172ZM15.7231 18.6245C14.7372 19.0162 13.6615 19.25 12.5 19.25V20.75C13.8676 20.75 15.1306 20.4739 16.2769 20.0185L15.7231 18.6245ZM22.3204 12.1828C21.8556 13.1787 20.9335 14.6366 19.6096 15.972L20.6749 17.028C22.125 15.5654 23.1447 13.9634 23.6796 12.8172L22.3204 12.1828ZM2.4569 2.51724L22.4569 23.5172L23.5431 22.4828L3.5431 1.48276L2.4569 2.51724ZM12.5 8.75C14.5711 8.75 16.25 10.4289 16.25 12.5H17.75C17.75 9.6005 15.3995 7.25 12.5 7.25V8.75ZM12.5 16.25C10.4289 16.25 8.75 14.5711 8.75 12.5H7.25C7.25 15.3995 9.6005 17.75 12.5 17.75V16.25ZM8.75 12.5C8.75 11.9719 8.85871 11.4712 9.05425 11.0175L7.67672 10.4238C7.40188 11.0616 7.25 11.764 7.25 12.5H8.75ZM11.4818 8.88968C11.8047 8.79884 12.146 8.75 12.5 8.75V7.25C12.0074 7.25 11.5294 7.31806 11.0756 7.44574L11.4818 8.88968ZM16.25 12.5C16.25 12.9396 16.1747 13.3601 16.0368 13.7501L17.4511 14.2499C17.6449 13.7016 17.75 13.1123 17.75 12.5H16.25ZM13.8895 15.9844C13.4608 16.1555 12.9923 16.25 12.5 16.25V17.75C13.186 17.75 13.843 17.618 14.4456 17.3775L13.8895 15.9844Z" fill="#263BBA"/>
</svg>
