<svg width="15" height="15" viewBox="0 0 15 15" fill="none" xmlns="http://www.w3.org/2000/svg">
<path d="M8.89286 3.16667C8.89286 3.42308 9.10073 3.63095 9.35714 3.63095C9.61356 3.63095 9.82143 3.42308 9.82143 3.16667H8.89286ZM9.82143 11.8333C9.82143 11.5769 9.61356 11.369 9.35714 11.369C9.10073 11.369 8.89286 11.5769 8.89286 11.8333H9.82143ZM5.33333 7.03571C5.07692 7.03571 4.86905 7.24358 4.86905 7.5C4.86905 7.75642 5.07692 7.96429 5.33333 7.96429V7.03571ZM14 7.5L14.3085 7.84701C14.4076 7.75891 14.4643 7.63262 14.4643 7.5C14.4643 7.36738 14.4076 7.2411 14.3085 7.15299L14 7.5ZM11.5227 4.6768C11.3311 4.50644 11.0376 4.52371 10.8673 4.71535C10.6969 4.907 10.7142 5.20047 10.9058 5.37082L11.5227 4.6768ZM10.9058 9.62918C10.7142 9.79953 10.6969 10.093 10.8673 10.2846C11.0376 10.4763 11.3311 10.4936 11.5227 10.3232L10.9058 9.62918ZM9.82143 3.16667V2.23809H8.89286V3.16667H9.82143ZM8.11905 0.535714H2.23809V1.46429H8.11905V0.535714ZM0.535714 2.2381V12.7619H1.46429V2.2381H0.535714ZM2.2381 14.4643H8.11905V13.5357H2.2381V14.4643ZM9.82143 12.7619V11.8333H8.89286V12.7619H9.82143ZM5.33333 7.96429H14V7.03571H5.33333V7.96429ZM14.3085 7.15299L11.5227 4.6768L10.9058 5.37082L13.6915 7.84701L14.3085 7.15299ZM13.6915 7.15299L10.9058 9.62918L11.5227 10.3232L14.3085 7.84701L13.6915 7.15299ZM8.11905 14.4643C9.05925 14.4643 9.82143 13.7021 9.82143 12.7619H8.89286C8.89286 13.1893 8.54641 13.5357 8.11905 13.5357V14.4643ZM0.535714 12.7619C0.535714 13.7021 1.2979 14.4643 2.2381 14.4643V13.5357C1.81073 13.5357 1.46429 13.1893 1.46429 12.7619H0.535714ZM2.23809 0.535714C1.2979 0.535714 0.535714 1.2979 0.535714 2.2381H1.46429C1.46429 1.81073 1.81073 1.46429 2.23809 1.46429V0.535714ZM9.82143 2.23809C9.82143 1.2979 9.05925 0.535714 8.11905 0.535714V1.46429C8.54641 1.46429 8.89286 1.81073 8.89286 2.23809H9.82143Z" fill="#263BBA"/>
</svg>
