<svg width="34" height="21" viewBox="0 0 34 21" fill="none" xmlns="http://www.w3.org/2000/svg">
<path fill-rule="evenodd" clip-rule="evenodd" d="M16.8444 18.4918C15.0603 20.0558 12.746 21 10.2171 21C4.57436 21 0 16.299 0 10.5C0 4.70101 4.57436 0 10.2171 0C12.746 0 15.0603 0.944189 16.8444 2.50825C18.6285 0.944189 20.9428 0 23.4716 0C29.1144 0 33.6887 4.70101 33.6887 10.5C33.6887 16.299 29.1144 21 23.4716 21C20.9428 21 18.6285 20.0558 16.8444 18.4918Z" fill="#FF5E00"/>
<path fill-rule="evenodd" clip-rule="evenodd" d="M16.8444 18.4918C15.0603 20.0558 12.746 21 10.2171 21C4.57436 21 0 16.299 0 10.5C0 4.70101 4.57436 0 10.2171 0C12.746 0 15.0603 0.944189 16.8444 2.50825C14.6475 4.43414 13.2545 7.29989 13.2545 10.5C13.2545 13.7001 14.6475 16.5659 16.8444 18.4918Z" fill="#ED0006"/>
<path fill-rule="evenodd" clip-rule="evenodd" d="M16.8439 18.4918C18.628 20.0558 20.9423 21 23.4712 21C29.1139 21 33.6883 16.299 33.6883 10.5C33.6883 4.70101 29.1139 0 23.4712 0C20.9423 0 18.628 0.944188 16.8439 2.50825C19.0408 4.43414 20.4338 7.29989 20.4338 10.5C20.4338 13.7001 19.0408 16.5659 16.8439 18.4918Z" fill="#F9A000"/>
</svg>
