<svg width="45" height="45" viewBox="0 0 45 45" fill="none" xmlns="http://www.w3.org/2000/svg">
<path d="M35.625 5.625H9.375C7.88316 5.625 6.45242 6.21763 5.39752 7.27252C4.34263 8.32742 3.75 9.75816 3.75 11.25V39.375C3.75057 39.7072 3.83942 40.0334 4.00744 40.32C4.17546 40.6066 4.41663 40.8435 4.70625 41.0063C4.98648 41.1651 5.3029 41.249 5.625 41.25C5.96153 41.2499 6.29183 41.1592 6.58125 40.9875L15 35.8875C15.3112 35.7022 15.6694 35.6111 16.0312 35.625H35.625C37.1168 35.625 38.5476 35.0324 39.6025 33.9775C40.6574 32.9226 41.25 31.4918 41.25 30V11.25C41.25 9.75816 40.6574 8.32742 39.6025 7.27252C38.5476 6.21763 37.1168 5.625 35.625 5.625ZM15 22.5C14.6292 22.5 14.2666 22.39 13.9583 22.184C13.65 21.978 13.4096 21.6851 13.2677 21.3425C13.1258 20.9999 13.0887 20.6229 13.161 20.2592C13.2334 19.8955 13.412 19.5614 13.6742 19.2992C13.9364 19.037 14.2705 18.8584 14.6342 18.786C14.9979 18.7137 15.3749 18.7508 15.7175 18.8927C16.0601 19.0346 16.353 19.275 16.559 19.5833C16.765 19.8916 16.875 20.2542 16.875 20.625C16.875 21.1223 16.6775 21.5992 16.3258 21.9508C15.9742 22.3025 15.4973 22.5 15 22.5ZM22.5 22.5C22.1292 22.5 21.7666 22.39 21.4583 22.184C21.15 21.978 20.9096 21.6851 20.7677 21.3425C20.6258 20.9999 20.5887 20.6229 20.661 20.2592C20.7334 19.8955 20.912 19.5614 21.1742 19.2992C21.4364 19.037 21.7705 18.8584 22.1342 18.786C22.4979 18.7137 22.8749 18.7508 23.2175 18.8927C23.5601 19.0346 23.853 19.275 24.059 19.5833C24.265 19.8916 24.375 20.2542 24.375 20.625C24.375 21.1223 24.1775 21.5992 23.8258 21.9508C23.4742 22.3025 22.9973 22.5 22.5 22.5ZM30 22.5C29.6292 22.5 29.2666 22.39 28.9583 22.184C28.65 21.978 28.4096 21.6851 28.2677 21.3425C28.1258 20.9999 28.0887 20.6229 28.161 20.2592C28.2334 19.8955 28.412 19.5614 28.6742 19.2992C28.9364 19.037 29.2705 18.8584 29.6342 18.786C29.9979 18.7137 30.3749 18.7508 30.7175 18.8927C31.0601 19.0346 31.353 19.275 31.559 19.5833C31.765 19.8916 31.875 20.2542 31.875 20.625C31.875 21.1223 31.6775 21.5992 31.3258 21.9508C30.9742 22.3025 30.4973 22.5 30 22.5Z" fill="#263BBA"/>
</svg>
