<svg width="32" height="32" viewBox="0 0 32 32" fill="none" xmlns="http://www.w3.org/2000/svg">
<path d="M29.125 9.59375C28.6417 9.59375 28.25 9.21596 28.25 8.75V4.42578C28.25 4.01867 27.9066 3.6875 27.4844 3.6875H23C22.5167 3.6875 22.125 3.30971 22.125 2.84375C22.125 2.37779 22.5167 2 23 2H27.4844C28.8715 2 30 3.08823 30 4.42578V8.75C30 9.21596 29.6083 9.59375 29.125 9.59375Z" fill="#263BBA"/>
<path d="M2.875 9.59375C2.39173 9.59375 2 9.21596 2 8.75V4.42578C2 3.08823 3.12853 2 4.51562 2H9C9.48327 2 9.875 2.37779 9.875 2.84375C9.875 3.30971 9.48327 3.6875 9 3.6875H4.51562C4.09344 3.6875 3.75 4.01867 3.75 4.42578V8.75C3.75 9.21596 3.35827 9.59375 2.875 9.59375Z" fill="#263BBA"/>
<path d="M9 29H4.51562C3.12853 29 2 27.9118 2 26.5742V22.25C2 21.784 2.39173 21.4062 2.875 21.4062C3.35827 21.4062 3.75 21.784 3.75 22.25V26.5742C3.75 26.9813 4.09344 27.3125 4.51562 27.3125H9C9.48327 27.3125 9.875 27.6903 9.875 28.1562C9.875 28.6222 9.48327 29 9 29Z" fill="#263BBA"/>
<path d="M27.4844 29H23C22.5167 29 22.125 28.6222 22.125 28.1562C22.125 27.6903 22.5167 27.3125 23 27.3125H27.4844C27.9066 27.3125 28.25 26.9813 28.25 26.5742V22.25C28.25 21.784 28.6417 21.4062 29.125 21.4062C29.6083 21.4062 30 21.784 30 22.25V26.5742C30 27.9118 28.8715 29 27.4844 29Z" fill="#263BBA"/>
<path d="M12.6094 14.6562H8.01562C6.62853 14.6562 5.5 13.568 5.5 12.2305V7.80078C5.5 6.46323 6.62853 5.375 8.01562 5.375H12.6094C13.9965 5.375 15.125 6.46323 15.125 7.80078V12.2305C15.125 13.568 13.9965 14.6562 12.6094 14.6562ZM8.01562 7.0625C7.59344 7.0625 7.25 7.39367 7.25 7.80078V12.2305C7.25 12.6376 7.59344 12.9688 8.01562 12.9688H12.6094C13.0316 12.9688 13.375 12.6376 13.375 12.2305V7.80078C13.375 7.39367 13.0316 7.0625 12.6094 7.0625H8.01562Z" fill="#263BBA"/>
<path d="M12.6094 25.625H8.01562C6.62853 25.625 5.5 24.5368 5.5 23.1992V18.7695C5.5 17.432 6.62853 16.3438 8.01562 16.3438H12.6094C13.9965 16.3438 15.125 17.432 15.125 18.7695V23.1992C15.125 24.5368 13.9965 25.625 12.6094 25.625ZM8.01562 18.0312C7.59344 18.0312 7.25 18.3624 7.25 18.7695V23.1992C7.25 23.6063 7.59344 23.9375 8.01562 23.9375H12.6094C13.0316 23.9375 13.375 23.6063 13.375 23.1992V18.7695C13.375 18.3624 13.0316 18.0312 12.6094 18.0312H8.01562Z" fill="#263BBA"/>
<path d="M23.9844 14.6562H19.3906C18.0035 14.6562 16.875 13.568 16.875 12.2305V7.80078C16.875 6.46323 18.0035 5.375 19.3906 5.375H23.9844C25.3715 5.375 26.5 6.46323 26.5 7.80078V12.2305C26.5 13.568 25.3715 14.6562 23.9844 14.6562ZM19.3906 7.0625C18.9684 7.0625 18.625 7.39367 18.625 7.80078V12.2305C18.625 12.6376 18.9684 12.9688 19.3906 12.9688H23.9844C24.4066 12.9688 24.75 12.6376 24.75 12.2305V7.80078C24.75 7.39367 24.4066 7.0625 23.9844 7.0625H19.3906Z" fill="#263BBA"/>
<path d="M25.0781 20.5625H23V17.7148C23 16.9588 22.3622 16.3438 21.5781 16.3438H18.2969C17.5128 16.3438 16.875 16.9588 16.875 17.7148V20.8789C16.875 21.6349 17.5128 22.25 18.2969 22.25H21.25V24.2539C21.25 25.0099 21.8878 25.625 22.6719 25.625H25.0781C25.8622 25.625 26.5 25.0099 26.5 24.2539V21.9336C26.5 21.1776 25.8622 20.5625 25.0781 20.5625ZM18.625 18.0312H21.25V20.5625H18.625V18.0312ZM24.75 23.9375H23V22.25H24.75V23.9375Z" fill="#263BBA"/>
<path d="M10.75 11.2812H9.875C9.39173 11.2812 9 10.9035 9 10.4375V9.59375C9 9.12779 9.39173 8.75 9.875 8.75H10.75C11.2333 8.75 11.625 9.12779 11.625 9.59375V10.4375C11.625 10.9035 11.2333 11.2812 10.75 11.2812Z" fill="#263BBA"/>
<path d="M22.125 11.2812H21.25C20.7667 11.2812 20.375 10.9035 20.375 10.4375V9.59375C20.375 9.12779 20.7667 8.75 21.25 8.75H22.125C22.6083 8.75 23 9.12779 23 9.59375V10.4375C23 10.9035 22.6083 11.2812 22.125 11.2812Z" fill="#263BBA"/>
<path d="M10.75 22.25H9.875C9.39173 22.25 9 21.8722 9 21.4062V20.5625C9 20.0965 9.39173 19.7188 9.875 19.7188H10.75C11.2333 19.7188 11.625 20.0965 11.625 20.5625V21.4062C11.625 21.8722 11.2333 22.25 10.75 22.25Z" fill="#263BBA"/>
</svg>
