<svg width="32" height="25" viewBox="0 0 32 25" fill="none" xmlns="http://www.w3.org/2000/svg">
<path d="M24.3265 8.50391C24.3265 8.29036 24.2666 8.12109 24.1469 7.99609C24.0297 7.86849 23.8291 7.7513 23.5453 7.64453C23.2614 7.53776 23.0166 7.43229 22.8109 7.32812C22.6052 7.22135 22.4281 7.10026 22.2797 6.96484C22.1338 6.82682 22.0192 6.66536 21.9359 6.48047C21.8552 6.29557 21.8148 6.07552 21.8148 5.82031C21.8148 5.38021 21.9554 5.01953 22.2367 4.73828C22.4809 4.49404 22.7949 4.33817 23.1786 4.27069C23.2797 4.25289 23.3578 4.1679 23.3578 4.0652V3.61016C23.3578 3.4997 23.4473 3.41016 23.5578 3.41016H23.7828C23.8932 3.41016 23.9828 3.4997 23.9828 3.61016V4.08408C23.9828 4.18373 24.0565 4.26704 24.1537 4.28882C24.5338 4.37397 24.8375 4.55634 25.0648 4.83594C25.2902 5.11088 25.418 5.45701 25.4484 5.87433C25.4564 5.9845 25.3659 6.07422 25.2554 6.07422H24.5265C24.4161 6.07422 24.3282 5.98436 24.3166 5.87452C24.2938 5.66043 24.232 5.49392 24.1312 5.375C24.0036 5.21875 23.8317 5.14062 23.6156 5.14062C23.4021 5.14062 23.2367 5.20182 23.1195 5.32422C23.0023 5.44401 22.9437 5.61068 22.9437 5.82422C22.9437 6.02214 23.001 6.18099 23.1156 6.30078C23.2302 6.42057 23.4424 6.54297 23.7523 6.66797C24.0648 6.79297 24.3213 6.91146 24.5219 7.02344C24.7224 7.13281 24.8916 7.25781 25.0297 7.39844C25.1677 7.53646 25.2732 7.69531 25.3461 7.875C25.419 8.05208 25.4554 8.25911 25.4554 8.49609C25.4554 8.9388 25.3174 9.29818 25.0414 9.57422C24.8003 9.81531 24.4797 9.96999 24.0797 10.0383C23.9786 10.0555 23.9008 10.1405 23.9008 10.2431V10.6398C23.9008 10.7503 23.8112 10.8398 23.7008 10.8398H23.4797C23.3692 10.8398 23.2797 10.7503 23.2797 10.6398V10.2461C23.2797 10.1439 23.2024 10.059 23.1017 10.0417C22.6529 9.96433 22.2982 9.78378 22.0375 9.5C21.7831 9.21842 21.6397 8.85666 21.6071 8.4147C21.599 8.30454 21.6895 8.21484 21.8 8.21484H22.5289C22.6393 8.21484 22.727 8.30477 22.7401 8.41445C22.7657 8.62903 22.8348 8.80078 22.9476 8.92969C23.0961 9.09375 23.3083 9.17578 23.5844 9.17578C23.8135 9.17578 23.9945 9.11589 24.1273 8.99609C24.2601 8.8737 24.3265 8.70964 24.3265 8.50391Z" fill="white"/>
<path d="M1 21H4.39075C5.12137 21 5.83911 21.1648 6.51476 21.4429C9.44556 22.649 14.9027 24.3536 19.5 24C20.3333 23.8333 22.3558 23.2047 24 22.5C27.5 21 32 20 31 17.5C30.2 15.5 27.3333 16 26 16.5L19.5 18.5M19.5 18.5L12 16M19.5 18.5C21.3293 15.939 16.4659 13.8799 12.9443 12.3993C12.3201 12.1369 11.6508 12 10.9737 12H1.5M23.5 1C26.8137 1 29.5 3.68629 29.5 7C29.5 10.3137 26.8137 13 23.5 13C20.1863 13 17.5 10.3137 17.5 7C17.5 3.68629 20.1863 1 23.5 1Z" stroke="white" stroke-width="1.5" stroke-linecap="round" stroke-linejoin="round"/>
</svg>
