<svg width="24" height="24" viewBox="0 0 24 24" fill="none" xmlns="http://www.w3.org/2000/svg">
<path d="M13.3915 19.25C12.9773 19.25 12.6415 19.5858 12.6415 20C12.6415 20.4142 12.9773 20.75 13.3915 20.75V19.25ZM6.19577 15.5L5.66544 16.0303C5.95833 16.3232 6.4332 16.3232 6.7261 16.0303L6.19577 15.5ZM10.9219 11.8346C11.2148 11.5417 11.2148 11.0668 10.9219 10.7739C10.629 10.481 10.1541 10.481 9.8612 10.7739L10.9219 11.8346ZM2.53033 10.7739C2.23744 10.481 1.76256 10.481 1.46967 10.7739C1.17678 11.0668 1.17678 11.5417 1.46967 11.8346L2.53033 10.7739ZM6.14153 12C6.14153 7.99594 9.38747 4.75 13.3915 4.75V3.25C8.55904 3.25 4.64153 7.16751 4.64153 12H6.14153ZM13.3915 4.75C17.3956 4.75 20.6415 7.99594 20.6415 12H22.1415C22.1415 7.16751 18.224 3.25 13.3915 3.25V4.75ZM20.6415 12C20.6415 16.0041 17.3956 19.25 13.3915 19.25V20.75C18.224 20.75 22.1415 16.8325 22.1415 12H20.6415ZM6.86998 15.1715C6.40358 14.2144 6.14153 13.1388 6.14153 12H4.64153C4.64153 13.3715 4.9576 14.6712 5.52156 15.8285L6.86998 15.1715ZM6.7261 16.0303L10.9219 11.8346L9.8612 10.7739L5.66544 14.9697L6.7261 16.0303ZM6.7261 14.9697L2.53033 10.7739L1.46967 11.8346L5.66544 16.0303L6.7261 14.9697Z" fill="#263BBA"/>
</svg>
