<svg width="14" height="14" viewBox="0 0 14 14" fill="none" xmlns="http://www.w3.org/2000/svg">
<path d="M5.75001 0C2.57438 0 0 2.57438 0 5.75001C0 8.92563 2.57438 11.5 5.75001 11.5C8.92563 11.5 11.5 8.92563 11.5 5.75001C11.4973 2.5755 8.92451 0.00275 5.75001 0ZM5.75001 9.50001C3.67894 9.50001 2 7.82107 2 5.75001C2 3.67894 3.67894 2 5.75001 2C7.82107 2 9.50001 3.67894 9.50001 5.75001C9.49726 7.81995 7.81995 9.49726 5.75001 9.50001Z" fill="#C4CAD3"/>
<path d="M13.5603 11.532L10.5768 8.64219C9.99389 8.07759 9.04885 8.07759 8.46594 8.64219C7.88303 9.20679 7.88303 10.1221 8.46594 10.6867L11.4495 13.5766C12.0324 14.1411 12.9774 14.1411 13.5603 13.5766C14.1432 13.012 14.1432 12.0966 13.5603 11.532Z" fill="#C4CAD3"/>
</svg>
