<svg width="28" height="28" viewBox="0 0 28 28" fill="none" xmlns="http://www.w3.org/2000/svg">
<path d="M23.2857 23.0981L22.5715 22.3982L23.2857 23.0981ZM1.29917 16.7857L2.27615 16.5724L1.29917 16.7857ZM10.0714 8L10.7714 7.28579C10.3825 6.90474 9.76033 6.90474 9.3715 7.28579L10.0714 8ZM9.07143 20C9.07143 20.5523 9.51914 21 10.0714 21C10.6237 21 11.0714 20.5523 11.0714 20L9.07143 20ZM12.9429 12.2142C13.3374 12.6008 13.9705 12.5944 14.3571 12.1999C14.7436 11.8055 14.7372 11.1723 14.3428 10.7858L12.9429 12.2142ZM5.80007 10.7858C5.40562 11.1723 5.39923 11.8055 5.78579 12.1999C6.17235 12.5944 6.80548 12.6008 7.19993 12.2142L5.80007 10.7858ZM18.0714 20L17.3715 20.7142C17.7603 21.0953 18.3825 21.0953 18.7714 20.7142L18.0714 20ZM19.0714 8C19.0714 7.44772 18.6237 7 18.0714 7C17.5191 7 17.0714 7.44771 17.0714 8L19.0714 8ZM22.3428 17.2142C22.7372 16.8277 22.7436 16.1945 22.3571 15.8001C21.9705 15.4056 21.3374 15.3992 20.9429 15.7858L22.3428 17.2142ZM15.1999 15.7858C14.8055 15.3992 14.1723 15.4056 13.7858 15.8001C13.3992 16.1945 13.4056 16.8277 13.8001 17.2142L15.1999 15.7858ZM2 14C2 7.37258 7.37259 2 14 2L14 -1.1365e-06C6.26802 -1.81245e-06 1.81245e-06 6.26801 1.1365e-06 14L2 14ZM14 2C20.6274 2 26 7.37258 26 14L28 14C28 6.26801 21.732 -4.60544e-07 14 -1.1365e-06L14 2ZM26 14C26 17.27 24.6934 20.2328 22.5715 22.3982L24 23.798C26.4733 21.274 28 17.8143 28 14L26 14ZM22.5715 22.3982C20.3923 24.6221 17.358 26 14 26L14 28C17.9172 28 21.4601 26.3899 24 23.798L22.5715 22.3982ZM14 26C8.25645 26 3.45325 21.9639 2.27615 16.5724L0.322183 16.999C1.69558 23.2896 7.29654 28 14 28L14 26ZM2.27615 16.5724C2.09542 15.7446 2 14.884 2 14L1.1365e-06 14C1.04659e-06 15.0284 0.111051 16.032 0.322183 16.999L2.27615 16.5724ZM9.07143 8L9.07143 20L11.0714 20L11.0714 8L9.07143 8ZM9.3715 8.71421L12.9429 12.2142L14.3428 10.7858L10.7714 7.28579L9.3715 8.71421ZM9.3715 7.28579L5.80007 10.7858L7.19993 12.2142L10.7714 8.71421L9.3715 7.28579ZM19.0714 20L19.0714 8L17.0714 8L17.0714 20L19.0714 20ZM18.7714 20.7142L22.3428 17.2142L20.9429 15.7858L17.3715 19.2858L18.7714 20.7142ZM18.7714 19.2858L15.1999 15.7858L13.8001 17.2142L17.3715 20.7142L18.7714 19.2858Z" fill="white"/>
</svg>
