<svg width="28" height="28" viewBox="0 0 28 28" fill="none" xmlns="http://www.w3.org/2000/svg">
<path fill-rule="evenodd" clip-rule="evenodd" d="M9.95743 4.00243L10.2128 1.16381C10.251 0.741879 10.5594 0.39381 10.9741 0.305948C12.8931 -0.101983 14.8763 -0.101983 16.7952 0.305948C17.2099 0.39381 17.5184 0.741879 17.5565 1.16381L17.8119 4.00243C18.8088 4.39395 19.742 4.93222 20.5791 5.59988L23.1652 4.40215C23.5495 4.22402 24.0052 4.31719 24.2886 4.63195C25.6017 6.08988 26.5933 7.80753 27.1996 9.67388C27.3305 10.0765 27.1832 10.5177 26.8371 10.7615L24.5063 12.4024C24.6656 13.4616 24.6656 14.5386 24.5063 15.5973L26.8371 17.2382C27.1832 17.482 27.3305 17.9233 27.1996 18.3259C26.5933 20.1922 25.6017 21.9099 24.2886 23.3678C24.0052 23.6826 23.5495 23.7757 23.1652 23.5976L20.5791 22.3999C19.7415 23.0675 18.8088 23.6058 17.8119 23.9973L17.5565 26.8359C17.5184 27.2579 17.2099 27.6059 16.7952 27.6938C14.8763 28.1017 12.8931 28.1017 10.9741 27.6938C10.5594 27.6059 10.251 27.2579 10.2128 26.8359L9.95743 23.9973C8.96054 23.6058 8.02737 23.0675 7.19026 22.3999L4.60413 23.5976C4.21985 23.7757 3.76413 23.6826 3.48075 23.3678C2.16764 21.9099 1.17606 20.1922 0.569712 18.3259C0.438884 17.9233 0.586125 17.482 0.932263 17.2382L3.26302 15.5973C3.10371 14.5382 3.10371 13.4611 3.26302 12.4024L0.932263 10.7615C0.586125 10.5177 0.438884 10.0765 0.569712 9.67388C1.17606 7.80753 2.16764 6.08988 3.48075 4.63195C3.76413 4.31719 4.21985 4.22402 4.60413 4.40215L7.19026 5.59988C8.02785 4.93222 8.96054 4.39395 9.95743 4.00243ZM15.6989 2.0685C14.4963 1.88505 13.273 1.88505 12.0705 2.0685L11.8252 4.78884C11.791 5.17409 11.5298 5.5014 11.1619 5.62064C9.98785 6.0025 8.90695 6.62622 7.98923 7.45271C7.70199 7.71098 7.28826 7.77374 6.9373 7.61105L4.45881 6.46305C3.69895 7.41264 3.0873 8.47229 2.64461 9.60533L4.87833 11.1777C5.19454 11.4002 5.34709 11.7898 5.26695 12.1683C5.01012 13.3757 5.01012 14.6241 5.26695 15.8315C5.34709 16.2099 5.19454 16.5995 4.87833 16.8221L2.64461 18.3944C3.0873 19.5275 3.69895 20.5871 4.45881 21.5367L6.9373 20.3887C7.28826 20.226 7.70199 20.2888 7.98923 20.547C8.90695 21.3735 9.98785 21.9973 11.1619 22.3791C11.5298 22.4984 11.791 22.8257 11.8252 23.2109L12.0705 25.9313C13.273 26.1147 14.4963 26.1147 15.6989 25.9313L15.9441 23.2109C15.9784 22.8257 16.2396 22.4984 16.6074 22.3791C17.7815 21.9973 18.8624 21.3735 19.7801 20.547C20.0674 20.2888 20.4811 20.226 20.8321 20.3887L23.3105 21.5367C24.0704 20.5871 24.6821 19.5275 25.1247 18.3944L22.891 16.8221C22.5748 16.5995 22.4223 16.2099 22.5024 15.8315C22.7592 14.6241 22.7592 13.3757 22.5024 12.1683C22.4223 11.7898 22.5748 11.4002 22.891 11.1777L25.1247 9.60533C24.6821 8.47229 24.0704 7.41264 23.3105 6.46305L20.8321 7.61105C20.4811 7.77374 20.0674 7.71098 19.7801 7.45271C18.8624 6.62622 17.7815 6.0025 16.6074 5.62064C16.2396 5.5014 15.9784 5.17409 15.9441 4.78884L15.6989 2.0685Z" fill="white"/>
<path fill-rule="evenodd" clip-rule="evenodd" d="M13.8842 9.17236C11.2202 9.17236 9.05664 11.3359 9.05664 13.9999C9.05664 16.664 11.2202 18.8275 13.8842 18.8275C16.5483 18.8275 18.7118 16.664 18.7118 13.9999C18.7118 11.3359 16.5483 9.17236 13.8842 9.17236ZM13.8842 11.1034C15.4831 11.1034 16.7808 12.4011 16.7808 13.9999C16.7808 15.5988 15.4831 16.8965 13.8842 16.8965C12.2853 16.8965 10.9877 15.5988 10.9877 13.9999C10.9877 12.4011 12.2853 11.1034 13.8842 11.1034Z" fill="white"/>
</svg>
