<svg width="28" height="28" viewBox="0 0 28 28" fill="none" xmlns="http://www.w3.org/2000/svg">
<path d="M17.8333 16C17.2128 16 16.6517 16.235 16.2144 16.6094L11.955 13.9472C11.9817 13.8017 12 13.6528 12 13.5C12 13.3472 11.9817 13.1983 11.955 13.0528L16.2144 10.3906C16.6517 10.765 17.2128 11 17.8333 11C19.2139 11 20.3333 9.88056 20.3333 8.5C20.3333 7.11944 19.2139 6 17.8333 6C16.4528 6 15.3333 7.11944 15.3333 8.5C15.3333 8.65278 15.3517 8.80167 15.3783 8.94722L11.1189 11.6094C10.6817 11.235 10.1206 11 9.5 11C8.11944 11 7 12.1194 7 13.5C7 14.8806 8.11944 16 9.5 16C10.1206 16 10.6817 15.765 11.1189 15.3906L15.3783 18.0528C15.3517 18.1983 15.3333 18.3472 15.3333 18.5C15.3333 19.8806 16.4528 21 17.8333 21C19.2139 21 20.3333 19.8806 20.3333 18.5C20.3333 17.1194 19.2139 16 17.8333 16Z" fill="white"/>
<path d="M14 0.999999C6.8203 0.999998 1 6.82029 1 14C1 14.9562 1.10324 15.8883 1.29917 16.7857C2.57441 22.6268 7.77649 27 14 27C17.6376 27 20.9262 25.506 23.2857 23.0981C25.5833 20.7534 27 17.5421 27 14C27 6.8203 21.1797 0.999999 14 0.999999Z" stroke="white" stroke-width="2"/>
</svg>
