<svg width="32" height="32" viewBox="0 0 32 32" fill="none" xmlns="http://www.w3.org/2000/svg">
<path d="M22.6663 2.66663H9.33301C8.27214 2.66663 7.25473 3.08805 6.50458 3.8382C5.75444 4.58834 5.33301 5.60576 5.33301 6.66663V25.3333C5.33301 26.3942 5.75444 27.4116 6.50458 28.1617C7.25473 28.9119 8.27214 29.3333 9.33301 29.3333H22.6663C23.7272 29.3333 24.7446 28.9119 25.4948 28.1617C26.2449 27.4116 26.6663 26.3942 26.6663 25.3333V6.66663C26.6663 5.60576 26.2449 4.58834 25.4948 3.8382C24.7446 3.08805 23.7272 2.66663 22.6663 2.66663ZM23.9997 25.3333C23.9997 25.6869 23.8592 26.0261 23.6091 26.2761C23.3591 26.5262 23.02 26.6666 22.6663 26.6666H9.33301C8.97939 26.6666 8.64025 26.5262 8.3902 26.2761C8.14015 26.0261 7.99967 25.6869 7.99967 25.3333V6.66663C7.99967 6.313 8.14015 5.97387 8.3902 5.72382C8.64025 5.47377 8.97939 5.33329 9.33301 5.33329H22.6663C23.02 5.33329 23.3591 5.47377 23.6091 5.72382C23.8592 5.97387 23.9997 6.313 23.9997 6.66663V25.3333Z" fill="#263BBA"/>
<path d="M16 24C17.1046 24 18 23.1046 18 22C18 20.8954 17.1046 20 16 20C14.8954 20 14 20.8954 14 22C14 23.1046 14.8954 24 16 24Z" fill="#263BBA"/>
<path d="M19.333 8H12.6663C12.3127 8 11.9736 8.14048 11.7235 8.39052C11.4735 8.64057 11.333 8.97971 11.333 9.33333C11.333 9.68696 11.4735 10.0261 11.7235 10.2761C11.9736 10.5262 12.3127 10.6667 12.6663 10.6667H19.333C19.6866 10.6667 20.0258 10.5262 20.2758 10.2761C20.5259 10.0261 20.6663 9.68696 20.6663 9.33333C20.6663 8.97971 20.5259 8.64057 20.2758 8.39052C20.0258 8.14048 19.6866 8 19.333 8Z" fill="#263BBA"/>
</svg>
