<svg width="24" height="24" viewBox="0 0 24 24" fill="none" xmlns="http://www.w3.org/2000/svg">
<path d="M4 8.99994H17L15.4 10.1999C15.2949 10.2787 15.2064 10.3775 15.1395 10.4905C15.0726 10.6034 15.0286 10.7285 15.0101 10.8585C14.9915 10.9885 14.9987 11.1209 15.0313 11.2481C15.0639 11.3753 15.1212 11.4949 15.2 11.5999C15.2931 11.7241 15.4139 11.8249 15.5528 11.8944C15.6916 11.9638 15.8448 11.9999 16 11.9999C16.2164 11.9999 16.4269 11.9298 16.6 11.7999L20.6 8.79994C20.7223 8.70662 20.8214 8.58634 20.8897 8.44845C20.9579 8.31056 20.9934 8.15879 20.9934 8.00494C20.9934 7.8511 20.9579 7.69933 20.8897 7.56144C20.8214 7.42355 20.7223 7.30327 20.6 7.20994L16.74 4.20994C16.5305 4.04684 16.2647 3.97364 16.0013 4.00646C15.7378 4.03928 15.4981 4.17542 15.335 4.38495C15.1719 4.59447 15.0987 4.8602 15.1315 5.12369C15.1643 5.38718 15.3005 5.62684 15.51 5.78994L17.08 6.99994H4C3.73478 6.99994 3.48043 7.1053 3.29289 7.29284C3.10536 7.48037 3 7.73473 3 7.99994C3 8.26516 3.10536 8.51952 3.29289 8.70705C3.48043 8.89459 3.73478 8.99994 4 8.99994Z" fill="#848484"/>
<path d="M20 16H6.99998L8.59998 14.8C8.81216 14.6409 8.95242 14.404 8.98993 14.1414C9.02744 13.8789 8.95911 13.6122 8.79998 13.4C8.64085 13.1878 8.40395 13.0476 8.1414 13.0101C7.87885 12.9725 7.61216 13.0409 7.39998 13.2L3.39998 16.2C3.27768 16.2933 3.17855 16.4136 3.11032 16.5515C3.04209 16.6894 3.00659 16.8412 3.00659 16.995C3.00659 17.1488 3.04209 17.3006 3.11032 17.4385C3.17855 17.5764 3.27768 17.6967 3.39998 17.79L7.25998 20.79C7.43453 20.9255 7.64903 20.9993 7.86998 21C8.0227 20.9996 8.17331 20.9643 8.31025 20.8967C8.44719 20.8291 8.56682 20.731 8.65998 20.61C8.82237 20.4015 8.89565 20.1373 8.86379 19.8749C8.83194 19.6126 8.69755 19.3735 8.48998 19.21L6.91998 18H20C20.2652 18 20.5196 17.8946 20.7071 17.7071C20.8946 17.5196 21 17.2652 21 17C21 16.7348 20.8946 16.4804 20.7071 16.2929C20.5196 16.1054 20.2652 16 20 16Z" fill="#848484"/>
</svg>
