<svg width="40" height="43" viewBox="0 0 40 43" fill="none" xmlns="http://www.w3.org/2000/svg">
<rect x="0.25" y="0.25" width="39.5" height="42.5" rx="7.75" fill="white" stroke="#ECECEC" stroke-width="0.5"/>
<path d="M30.7469 15.8463C30.7469 21.8365 25.9412 26.6925 20.0131 26.6925C14.085 26.6925 9.2793 21.8365 9.2793 15.8463C9.2793 9.85603 14.085 5 20.0131 5C25.9412 5 30.7469 9.85603 30.7469 15.8463Z" fill="url(#paint0_radial)"/>
<mask id="mask0" mask-type="alpha" maskUnits="userSpaceOnUse" x="9" y="5" width="22" height="22">
<path d="M30.7469 15.8463C30.7469 21.8365 25.9412 26.6925 20.0131 26.6925C14.085 26.6925 9.2793 21.8365 9.2793 15.8463C9.2793 9.85603 14.085 5 20.0131 5C25.9412 5 30.7469 9.85603 30.7469 15.8463Z" fill="url(#paint1_radial)"/>
</mask>
<g mask="url(#mask0)">
<path d="M16.8196 7.8684C15.6132 8.08353 14.3653 7.24093 13.8922 6.79274V4.64142H32.255V25.9754H24.1824C20.1905 24.8101 22.5857 21.0452 21.876 20.3281C21.1663 19.611 19.126 20.6867 18.2389 19.611C17.3519 18.5354 18.3277 17.4597 18.9486 16.8322C19.5696 16.2048 20.5454 14.6809 17.8841 14.3224C15.2228 13.9638 15.0454 12.2607 16.0212 11.5436C16.8019 10.9699 17.4701 9.75081 17.7067 9.21298C17.9137 8.67515 18.026 7.65327 16.8196 7.8684Z" fill="url(#paint2_radial)"/>
</g>
<path d="M7.19555 36.9605C7.91764 36.9605 8.28844 36.8126 8.4836 36.6844L8.22989 35.9252C8.06401 36.0435 7.8103 36.1323 7.42974 36.1323C6.99063 36.1323 6.7174 35.8956 6.7174 35.3632V32.2572H8.15183V31.4881H6.7174V30.0781H6.07338L5.76112 31.4487L5 31.6459V32.2572H5.76112V35.3829C5.76112 36.4872 6.29781 36.9605 7.19555 36.9605Z" fill="#2A619E"/>
<path d="M12.8622 35.7379C12.6378 35.9449 12.1791 36.1816 11.6327 36.1816C10.6081 36.1816 10.1104 35.6787 10.0519 34.4856H13.4086C13.4477 34.1208 13.4574 33.8052 13.4574 33.539C13.4574 32.2375 12.7451 31.3895 11.4473 31.3895C10.1495 31.3895 9.09561 32.2769 9.09561 34.1799C9.09561 36.152 9.93479 36.9901 11.5156 36.9901C12.3645 36.9901 12.911 36.7633 13.2915 36.4675L12.8622 35.7379ZM11.3887 32.1882C12.1694 32.1882 12.5304 32.6516 12.5304 33.4897C12.5304 33.5587 12.5304 33.6573 12.5207 33.7559H10.0714C10.1202 32.6417 10.7057 32.1882 11.3887 32.1882Z" fill="#2A619E"/>
<path d="M14.8019 29.4273V35.7576C14.8019 36.5267 15.202 36.9901 15.9826 36.9901C16.2266 36.9901 16.4705 36.9408 16.6657 36.8619V36.0632C16.5778 36.0928 16.4607 36.1421 16.2851 36.1421C15.9241 36.1421 15.7582 35.9548 15.7582 35.5012V29.4273H14.8019Z" fill="#2A619E"/>
<path d="M21.1241 35.7379C20.8996 35.9449 20.441 36.1816 19.8946 36.1816C18.87 36.1816 18.3723 35.6787 18.3138 34.4856H21.6705C21.7096 34.1208 21.7193 33.8052 21.7193 33.539C21.7193 32.2375 21.007 31.3895 19.7092 31.3895C18.4114 31.3895 17.3575 32.2769 17.3575 34.1799C17.3575 36.152 18.1967 36.9901 19.7775 36.9901C20.6264 36.9901 21.1729 36.7633 21.5534 36.4675L21.1241 35.7379ZM19.6506 32.1882C20.4313 32.1882 20.7923 32.6516 20.7923 33.4897C20.7923 33.5587 20.7923 33.6573 20.7825 33.7559H18.3333C18.3821 32.6417 18.9676 32.1882 19.6506 32.1882Z" fill="#2A619E"/>
<path d="M22.732 34.2687C22.732 36.221 23.6005 37 24.9568 37C25.9424 37 26.4108 36.6351 26.6547 36.3393L26.0497 35.7083C25.8546 35.9548 25.5325 36.1717 25.0446 36.1717C24.2152 36.1717 23.7273 35.59 23.7273 34.1701C23.7273 32.7502 24.2543 32.2276 25.0446 32.2276C25.5716 32.2276 25.8838 32.5037 26.0595 32.7009L26.7035 32.0205C26.4596 31.7149 25.9326 31.3895 25.0739 31.3895C23.7176 31.3895 22.732 32.2966 22.732 34.2687Z" fill="#2A619E"/>
<path d="M31.1965 35.7379C30.9721 35.9449 30.5135 36.1816 29.967 36.1816C28.9424 36.1816 28.4448 35.6787 28.3862 34.4856H31.743C31.782 34.1208 31.7918 33.8052 31.7918 33.539C31.7918 32.2375 31.0794 31.3895 29.7816 31.3895C28.4838 31.3895 27.4299 32.2769 27.4299 34.1799C27.4299 36.152 28.2691 36.9901 29.8499 36.9901C30.6989 36.9901 31.2453 36.7633 31.6259 36.4675L31.1965 35.7379ZM29.7231 32.1882C30.5037 32.1882 30.8647 32.6516 30.8647 33.4897C30.8647 33.5587 30.8647 33.6573 30.855 33.7559H28.4057C28.4545 32.6417 29.04 32.1882 29.7231 32.1882Z" fill="#2A619E"/>
<path d="M33.1362 29.4273V35.7576C33.1362 36.5267 33.5363 36.9901 34.3169 36.9901C34.5609 36.9901 34.8048 36.9408 35 36.8619V36.0632C34.9122 36.0928 34.7951 36.1421 34.6194 36.1421C34.2584 36.1421 34.0925 35.9548 34.0925 35.5012V29.4273H33.1362Z" fill="#2A619E"/>
<defs>
<radialGradient id="paint0_radial" cx="0" cy="0" r="1" gradientUnits="userSpaceOnUse" gradientTransform="translate(19.9244 15.9359) rotate(89.5275) scale(10.757 10.6454)">
<stop stop-color="#5AB4E4"/>
<stop offset="1" stop-color="#316EA1"/>
</radialGradient>
<radialGradient id="paint1_radial" cx="0" cy="0" r="1" gradientUnits="userSpaceOnUse" gradientTransform="translate(19.9244 15.9359) rotate(89.5275) scale(10.757 10.6454)">
<stop stop-color="#5AB4E4"/>
<stop offset="1" stop-color="#316EA1"/>
</radialGradient>
<radialGradient id="paint2_radial" cx="0" cy="0" r="1" gradientUnits="userSpaceOnUse" gradientTransform="translate(26.4889 9.57153) rotate(107.977) scale(17.2457 14.8737)">
<stop stop-color="#54AAD8"/>
<stop offset="0.9999" stop-color="#225196"/>
<stop offset="1" stop-color="#023379"/>
</radialGradient>
</defs>
</svg>
