<svg width="24" height="24" viewBox="0 0 24 24" fill="none" xmlns="http://www.w3.org/2000/svg">
<path d="M22.2107 8.10383C21.9583 8.10383 21.709 7.98232 21.5582 7.75607C19.3774 4.50897 15.8036 2.57013 11.9983 2.57013C8.19303 2.57013 4.61922 4.50897 2.43849 7.75607C2.19653 8.11745 1.70739 8.21381 1.34812 7.9708C0.987805 7.72884 0.891442 7.24073 1.1334 6.8804C3.60636 3.1986 7.66827 1 11.9983 1C16.3284 1 20.3903 3.19861 22.8632 6.88145C23.1052 7.24178 23.0099 7.72989 22.6485 7.97185C22.5145 8.06088 22.3626 8.10383 22.2107 8.10383Z" fill="#263BBA"/>
<path d="M9.51691 23.0649C9.31476 23.0649 9.11261 22.9874 8.95863 22.8324C8.78686 22.6595 4.76161 18.5504 4.76161 14.5942C4.76161 10.4881 8.00757 7.14781 11.9983 7.14781C15.9889 7.14781 19.2349 10.4881 19.2349 14.5942C19.2349 15.0278 18.883 15.3797 18.4493 15.3797C18.0157 15.3797 17.6638 15.0278 17.6638 14.5942C17.6638 11.3544 15.1227 8.71899 11.9983 8.71899C8.87379 8.71899 6.33274 11.3544 6.33274 14.5942C6.33274 17.9114 10.0375 21.6886 10.0752 21.7263C10.381 22.0342 10.3789 22.5318 10.07 22.8376C9.91703 22.9895 9.71697 23.0649 9.51691 23.0649Z" fill="#263BBA"/>
<path d="M14.4792 23.0648C12.5897 23.0648 8.20935 19.4699 7.78515 15.4665C7.63537 14.0514 8.08576 12.6039 8.98864 11.5941C9.7742 10.7163 10.8352 10.2293 11.9759 10.223H11.9979C13.1102 10.223 14.1619 10.6598 14.9621 11.4548C15.7979 12.2854 16.2578 13.401 16.2578 14.5951V15.1073C16.2578 16.3694 17.2402 17.396 18.449 17.396C19.6577 17.396 20.6412 16.3694 20.6412 15.1073V14.9282C20.6412 10.0365 17.0978 5.96719 12.574 5.66552C10.2152 5.50526 7.95274 6.32018 6.20668 7.95211C4.39464 9.64689 3.35559 12.0686 3.35559 14.5951C3.35559 16.6732 4.05946 18.6979 5.33732 20.2964C5.60755 20.6357 5.55309 21.1291 5.21372 21.4004C4.8754 21.6717 4.38102 21.6161 4.10869 21.2768C2.60983 19.4008 1.78341 17.0272 1.78341 14.594C1.78341 11.6339 3.00471 8.79427 5.13202 6.8041C7.19859 4.87051 9.8779 3.90894 12.6766 4.09644C18.0227 4.45362 22.2113 9.21115 22.2113 14.9271V15.1062C22.2113 17.2346 20.5229 18.9661 18.4479 18.9661C16.373 18.9661 14.6856 17.2346 14.6856 15.1062V14.594C14.6856 13.821 14.3902 13.1024 13.8539 12.5682C13.3512 12.0676 12.6923 11.7931 11.9979 11.7931C11.9926 11.7931 11.9885 11.7931 11.9832 11.7931C11.0981 11.7973 10.5022 12.2571 10.1586 12.6416C9.54587 13.3255 9.24211 14.3206 9.34581 15.301C9.69251 18.567 13.4454 21.4946 14.4782 21.4946C14.9118 21.4946 15.2638 21.8466 15.2638 22.2802C15.2638 22.7139 14.9129 23.0648 14.4792 23.0648Z" fill="#263BBA"/>
<path d="M17.3943 21.5286C14.583 21.5286 11.1506 18.0929 11.1506 14.0823C11.1506 13.6486 11.5025 13.2967 11.9362 13.2967C12.3698 13.2967 12.7217 13.6486 12.7217 14.0823C12.7217 17.1911 15.3351 19.9574 17.3943 19.9574C17.8279 19.9574 18.1799 20.3094 18.1799 20.743C18.1799 21.1767 17.8279 21.5286 17.3943 21.5286Z" fill="#263BBA"/>
</svg>
