<svg width="32" height="32" viewBox="0 0 32 32" fill="none" xmlns="http://www.w3.org/2000/svg">
<path d="M8.11967 25.3333H24.1197L22.3863 27.0533C22.1353 27.3044 21.9942 27.6449 21.9942 28C21.9942 28.3551 22.1353 28.6956 22.3863 28.9467C22.6374 29.1977 22.9779 29.3388 23.333 29.3388C23.6881 29.3388 24.0286 29.1977 24.2797 28.9467L28.2797 24.9467C28.4046 24.8227 28.5038 24.6752 28.5715 24.5128C28.6392 24.3503 28.6741 24.176 28.6741 24C28.6741 23.824 28.6392 23.6497 28.5715 23.4872C28.5038 23.3248 28.4046 23.1773 28.2797 23.0533L24.2797 19.0533C24.1557 18.9284 24.0083 18.8292 23.8458 18.7615C23.6833 18.6938 23.509 18.6589 23.333 18.6589C23.157 18.6589 22.9827 18.6938 22.8202 18.7615C22.6578 18.8292 22.5103 18.9284 22.3863 19.0533C22.2614 19.1773 22.1622 19.3248 22.0945 19.4872C22.0268 19.6497 21.9919 19.824 21.9919 20C21.9919 20.176 22.0268 20.3503 22.0945 20.5128C22.1622 20.6752 22.2614 20.8227 22.3863 20.9467L24.1197 22.6667H8.11967C7.84651 22.672 7.57498 22.6234 7.32059 22.5237C7.0662 22.4241 6.83394 22.2753 6.63707 22.0858C6.4402 21.8964 6.28258 21.67 6.17321 21.4197C6.06385 21.1693 6.00488 20.8998 5.99967 20.6267V17.3333C5.99967 16.9797 5.8592 16.6406 5.60915 16.3905C5.3591 16.1405 5.01996 16 4.66634 16C4.31272 16 3.97358 16.1405 3.72353 16.3905C3.47348 16.6406 3.33301 16.9797 3.33301 17.3333V20.6267C3.33824 21.25 3.4662 21.8662 3.70959 22.4401C3.95298 23.014 4.30702 23.5343 4.75151 23.9714C5.196 24.4085 5.72222 24.7537 6.30013 24.9874C6.87805 25.2211 7.49633 25.3386 8.11967 25.3333Z" fill="#263BBA"/>
<path d="M7.71959 12.9467C7.97066 13.1977 8.31119 13.3388 8.66626 13.3388C9.02133 13.3388 9.36186 13.1977 9.61293 12.9467C9.864 12.6956 10.005 12.3551 10.005 12C10.005 11.6449 9.864 11.3044 9.61293 11.0533L7.87959 9.33333H23.8796C24.1528 9.32803 24.4243 9.37659 24.6787 9.47625C24.9331 9.57591 25.1653 9.72471 25.3622 9.91415C25.5591 10.1036 25.7167 10.33 25.8261 10.5803C25.9354 10.8307 25.9944 11.1002 25.9996 11.3733V14.6667C25.9996 15.0203 26.1401 15.3594 26.3901 15.6095C26.6402 15.8595 26.9793 16 27.3329 16C27.6865 16 28.0257 15.8595 28.2757 15.6095C28.5258 15.3594 28.6663 15.0203 28.6663 14.6667V11.3733C28.661 10.75 28.5331 10.1338 28.2897 9.55988C28.0463 8.98599 27.6922 8.46566 27.2478 8.0286C26.8033 7.59154 26.277 7.24631 25.6991 7.01263C25.1212 6.77895 24.5029 6.66139 23.8796 6.66667H7.87959L9.61293 4.94667C9.7379 4.82272 9.83709 4.67525 9.90478 4.51277C9.97247 4.35029 10.0073 4.17602 10.0073 4C10.0073 3.82398 9.97247 3.64971 9.90478 3.48723C9.83709 3.32475 9.7379 3.17728 9.61293 3.05333C9.48898 2.92836 9.34151 2.82917 9.17903 2.76148C9.01655 2.69379 8.84228 2.65894 8.66626 2.65894C8.49024 2.65894 8.31597 2.69379 8.15349 2.76148C7.99101 2.82917 7.84354 2.92836 7.71959 3.05333L3.71959 7.05333C3.59462 7.17728 3.49543 7.32475 3.42774 7.48723C3.36005 7.64971 3.3252 7.82398 3.3252 8C3.3252 8.17602 3.36005 8.35029 3.42774 8.51277C3.49543 8.67525 3.59462 8.82272 3.71959 8.94667L7.71959 12.9467Z" fill="#263BBA"/>
</svg>
