<svg width="24" height="24" viewBox="0 0 24 24" fill="none" xmlns="http://www.w3.org/2000/svg">
<path d="M8.53033 10.9697C8.23744 10.6768 7.76256 10.6768 7.46967 10.9697C7.17678 11.2626 7.17678 11.7374 7.46967 12.0303L8.53033 10.9697ZM11.5 15L10.9697 15.5303C11.2626 15.8232 11.7374 15.8232 12.0303 15.5303L11.5 15ZM17.5303 10.0303C17.8232 9.73744 17.8232 9.26256 17.5303 8.96967C17.2374 8.67678 16.7626 8.67678 16.4697 8.96967L17.5303 10.0303ZM12 2.75C17.1086 2.75 21.25 6.89137 21.25 12H22.75C22.75 6.06294 17.9371 1.25 12 1.25V2.75ZM21.25 12C21.25 17.1086 17.1086 21.25 12 21.25V22.75C17.9371 22.75 22.75 17.9371 22.75 12H21.25ZM12 21.25C6.89137 21.25 2.75 17.1086 2.75 12H1.25C1.25 17.9371 6.06294 22.75 12 22.75V21.25ZM2.75 12C2.75 6.89137 6.89137 2.75 12 2.75V1.25C6.06294 1.25 1.25 6.06294 1.25 12H2.75ZM7.46967 12.0303L10.9697 15.5303L12.0303 14.4697L8.53033 10.9697L7.46967 12.0303ZM12.0303 15.5303L17.5303 10.0303L16.4697 8.96967L10.9697 14.4697L12.0303 15.5303Z" fill="#263BBA"/>
</svg>
