<svg width="42" height="14" viewBox="0 0 42 14" fill="none" xmlns="http://www.w3.org/2000/svg">
<path fill-rule="evenodd" clip-rule="evenodd" d="M10.6334 13.8082H6.95256L4.19235 2.76312C4.06134 2.25504 3.78317 1.80587 3.37398 1.59418C2.35282 1.06217 1.22756 0.638775 0 0.425236V0H5.9296C6.74797 0 7.36175 0.638775 7.46404 1.38064L8.89619 9.34784L12.5753 0H16.1538L10.6334 13.8082ZM18.0822 13.8082H14.5386L17.4566 0H21.0002L18.0822 13.8082ZM25.2882 4.01879C25.3902 3.29752 26.0021 2.88511 26.7161 2.88511C27.838 2.78156 29.0601 2.98865 30.0801 3.50283L30.692 0.619512C29.6721 0.207099 28.5502 0 27.532 0C24.168 0 21.7202 1.85497 21.7202 4.42942C21.7202 6.38794 23.4541 7.41629 24.678 8.0358C26.0021 8.65353 26.5121 9.06594 26.4101 9.68367C26.4101 10.6103 25.3902 11.0227 24.372 11.0227C23.1481 11.0227 21.9242 10.7138 20.804 10.1978L20.192 13.083C21.416 13.5971 22.7401 13.8042 23.964 13.8042C27.736 13.906 30.0801 12.0528 30.0801 9.27126C30.0801 5.76842 25.2882 5.56311 25.2882 4.01879ZM42 13.8082L39.2743 0H36.3464C35.7403 0 35.1342 0.425236 34.9321 1.06217L29.8847 13.8082H33.4186L34.124 11.7906H38.4661L38.8702 13.8082H42ZM36.8089 4.06125L37.9615 9.74699H34.7307L36.8089 4.06125Z" fill="#224DBA"/>
</svg>
