<svg width="16" height="15" viewBox="0 0 16 15" fill="none" xmlns="http://www.w3.org/2000/svg">
<path id="ico-warning" fill-rule="evenodd" clip-rule="evenodd" d="M15.7955 13.2856L8.84076 0.560817C8.64378 0.20438 8.34991 0 8.03596 0C7.72111 0 7.4276 0.20438 7.23115 0.559494L0.185433 13.4772C-0.0296789 13.8665 -0.059368 14.2811 0.105433 14.5875C0.248367 14.8538 0.521612 15 0.874325 15H15.1974C15.5025 15 15.7373 14.8651 15.8756 14.6082C16.0671 14.2512 16.0353 13.7206 15.7955 13.2856ZM7.99311 13.4972C7.38226 13.4972 6.91044 12.9959 6.91044 12.3614C6.91044 11.712 7.38226 11.2105 7.99311 11.2105C8.60396 11.2105 9.08965 11.7118 9.08965 12.3614C9.08965 12.9959 8.60378 13.4972 7.99311 13.4972ZM8.63187 10.4732L9.04823 4.33674H6.95222L7.3684 10.4732H8.63187Z" fill="#DF5956"/>
</svg>
