<svg width="32" height="32" viewBox="0 0 32 32" fill="none" xmlns="http://www.w3.org/2000/svg">
<path d="M28.1889 9.58706C28.1889 10.1572 28.1889 10.7327 28.1889 11.3056C28.1889 11.7829 27.9475 12.2523 27.5046 12.4645C27.1837 12.6183 26.8496 12.605 26.5075 12.605H25.2186V8.30616C25.2186 8.28494 25.2186 8.26372 25.2186 8.24516V8.2372C25.2186 7.82084 24.8527 7.4257 24.423 7.44691C24.3833 7.44956 24.3435 7.43896 24.3063 7.46548H9.81059C9.13964 7.46548 8.46868 7.44426 7.79773 7.45487C7.78712 7.45487 7.77917 7.44956 7.76856 7.44956C7.33894 7.44956 6.97296 7.80758 6.97296 8.23986V12.6024C6.40279 12.6024 5.83526 12.5997 5.26508 12.5971C4.74795 12.5944 4.2865 12.2947 4.09026 11.8121C4.00804 11.6132 4.00009 11.4063 4.00009 11.1968V5.45262C4.00009 5.30411 3.99744 5.1609 4.0213 5.01239C4.11678 4.42365 4.64982 4.01259 5.23591 4.00198C5.67349 3.99403 6.11107 4.01259 6.5513 4.01259H26.8788C26.9424 4.01259 27.0034 4.00198 27.0644 4.00729C27.6929 4.07093 28.165 4.57746 28.1889 5.20333C28.1889 5.21129 28.1889 5.21394 28.1889 5.2219C28.1889 5.2219 28.1889 5.2219 28.1889 5.22455V5.24842C28.2074 5.78942 28.1889 6.33573 28.1889 6.87939V9.58706Z" fill="#263BBA"/>
<path d="M23.0809 26.9974L9.10225 27C8.80258 27 8.55859 26.756 8.55859 26.4564V24.6663H23.6245L23.6272 26.4537C23.6272 26.7534 23.3832 26.9974 23.0809 26.9974Z" fill="#263BBA"/>
<path d="M23.6246 9.04614C23.2082 9.04614 22.7945 9.0541 22.3782 9.0541H8.56662C8.56662 9.37234 8.56396 9.71975 8.56396 10.0565V22.5819C8.56396 22.8816 8.8053 23.1255 9.10497 23.1255C11.3883 23.1255 20.2221 23.1282 23.0836 23.1308C23.3833 23.1308 23.6272 22.8895 23.6272 22.5898L23.6246 9.04614ZM20.0762 16.9809C19.6917 17.3654 19.3045 17.7526 18.92 18.1371C18.3074 18.7498 17.6974 19.3597 17.0848 19.9723C16.9416 20.1129 16.801 20.2561 16.6578 20.3993C16.6234 20.4338 16.5889 20.4629 16.5491 20.4868L16.5464 20.4895C16.3794 20.6035 16.1752 20.6459 15.9789 20.6194C15.9763 20.6194 15.9736 20.6194 15.971 20.6194C15.8092 20.5955 15.6527 20.5213 15.5307 20.3993C15.1462 20.0148 14.759 19.6276 14.3745 19.243L12.1123 16.9809C11.818 16.6865 11.7967 16.1455 12.1123 15.8564C12.4306 15.5647 12.9238 15.5409 13.2368 15.8564C13.6213 16.241 14.0085 16.6282 14.393 17.0127C14.6927 17.3124 14.995 17.6147 15.2974 17.917V12.5759C15.2974 12.1596 15.6633 11.7618 16.093 11.7803C16.5252 11.7989 16.8885 12.1304 16.8885 12.5759V17.9144C17.4322 17.3707 17.9759 16.8244 18.5222 16.2808L18.9491 15.8538C19.2435 15.5594 19.7845 15.5382 20.0736 15.8538C20.368 16.172 20.3918 16.6653 20.0762 16.9809Z" fill="#263BBA"/>
</svg>
