<svg width="14" height="19" viewBox="0 0 14 19" fill="none" opacity="0.3" xmlns="http://www.w3.org/2000/svg">
<path d="M4.4 4.46667C4.12386 4.46667 3.9 4.69052 3.9 4.96667C3.9 5.24281 4.12386 5.46667 4.4 5.46667V4.46667ZM10.0667 5.46667C10.3428 5.46667 10.5667 5.24281 10.5667 4.96667C10.5667 4.69052 10.3428 4.46667 10.0667 4.46667V5.46667ZM3 1.5H11.4667V0.5H3V1.5ZM12.9667 3V16H13.9667V3H12.9667ZM11.4667 17.5H3V18.5H11.4667V17.5ZM1.5 16V3H0.5V16H1.5ZM4.4 5.46667H10.0667V4.46667H4.4V5.46667ZM7.23333 13.9667C7.27015 13.9667 7.3 13.9965 7.3 14.0333H8.3C8.3 13.4442 7.82244 12.9667 7.23333 12.9667V13.9667ZM7.3 14.0333C7.3 14.0702 7.27015 14.1 7.23333 14.1V15.1C7.82244 15.1 8.3 14.6224 8.3 14.0333H7.3ZM7.23333 14.1C7.19651 14.1 7.16667 14.0702 7.16667 14.0333H6.16667C6.16667 14.6224 6.64423 15.1 7.23333 15.1V14.1ZM7.16667 14.0333C7.16667 13.9965 7.19651 13.9667 7.23333 13.9667V12.9667C6.64423 12.9667 6.16667 13.4442 6.16667 14.0333H7.16667ZM3 17.5C2.17157 17.5 1.5 16.8284 1.5 16H0.5C0.5 17.3807 1.61929 18.5 3 18.5V17.5ZM12.9667 16C12.9667 16.8284 12.2951 17.5 11.4667 17.5V18.5C12.8474 18.5 13.9667 17.3807 13.9667 16H12.9667ZM11.4667 1.5C12.2951 1.5 12.9667 2.17157 12.9667 3H13.9667C13.9667 1.61929 12.8474 0.5 11.4667 0.5V1.5ZM3 0.5C1.61929 0.5 0.5 1.61929 0.5 3H1.5C1.5 2.17157 2.17157 1.5 3 1.5V0.5Z" fill="white"/>
</svg>
