<svg width="20" height="20" viewBox="0 0 20 20" fill="white" opacity="0.3" xmlns="http://www.w3.org/2000/svg">
<path fill-rule="evenodd" clip-rule="evenodd" d="M10 1.5C5.30558 1.5 1.5 5.30558 1.5 10C1.5 12.0683 2.23816 13.9632 3.46616 15.4372C4.59361 14.3464 6.95792 12.7727 10 12.7727C13.0421 12.7727 15.4064 14.3464 16.5338 15.4372C17.7618 13.9632 18.5 12.0683 18.5 10C18.5 5.30558 14.6944 1.5 10 1.5ZM15.8501 16.1665C14.8767 15.2183 12.7372 13.7727 10 13.7727C7.26277 13.7727 5.12334 15.2183 4.14987 16.1665C5.67422 17.6132 7.73321 18.5 10 18.5C12.2668 18.5 14.3258 17.6132 15.8501 16.1665ZM0.5 10C0.5 4.75329 4.7533 0.5 10 0.5C15.2467 0.5 19.5 4.75329 19.5 10C19.5 12.5242 18.5149 14.8195 16.909 16.5204C15.1776 18.3544 12.7222 19.5 10 19.5C7.27782 19.5 4.82239 18.3544 3.09097 16.5204C1.48516 14.8195 0.5 12.5242 0.5 10ZM10 4.77273C8.46867 4.77273 7.22728 6.01412 7.22728 7.54545C7.22728 9.07679 8.46867 10.3182 10 10.3182C11.5313 10.3182 12.7727 9.07679 12.7727 7.54545C12.7727 6.01412 11.5313 4.77273 10 4.77273ZM6.22728 7.54545C6.22728 5.46183 7.91639 3.77273 10 3.77273C12.0836 3.77273 13.7727 5.46183 13.7727 7.54545C13.7727 9.62907 12.0836 11.3182 10 11.3182C7.91639 11.3182 6.22728 9.62907 6.22728 7.54545Z"/>
</svg>
