<svg width="20" height="20" viewBox="0 0 20 20" fill="white" opacity="0.3" xmlns="http://www.w3.org/2000/svg">
<g>
<path fill-rule="evenodd" clip-rule="evenodd" d="M10 18.5C12.3785 18.5 14.5281 17.5237 16.0715 15.9487C17.5742 14.4151 18.5 12.3162 18.5 10C18.5 5.30558 14.6944 1.5 10 1.5C5.30558 1.5 1.5 5.30558 1.5 10C1.5 10.6259 1.56756 11.2354 1.69561 11.8219C2.52939 15.6409 5.9314 18.5 10 18.5ZM16.7857 16.6486C15.062 18.4076 12.6581 19.5 10 19.5C5.45144 19.5 1.65056 16.3038 0.718622 12.0352C0.575376 11.3791 0.5 10.6981 0.5 10C0.5 4.75329 4.7533 0.5 10 0.5C15.2467 0.5 19.5 4.75329 19.5 10C19.5 12.5883 18.4642 14.9357 16.7857 16.6486Z"/>
<path d="M7 10C7 10.5523 6.55228 11 6 11C5.44771 11 5 10.5523 5 10C5 9.44771 5.44771 9 6 9C6.55228 9 7 9.44771 7 10Z" fill="white"/>
<path d="M11 10C11 10.5523 10.5523 11 10 11C9.44771 11 9 10.5523 9 10C9 9.44771 9.44771 9 10 9C10.5523 9 11 9.44771 11 10Z" fill="white"/>
<path d="M15 10C15 10.5523 14.5523 11 14 11C13.4477 11 13 10.5523 13 10C13 9.44771 13.4477 9 14 9C14.5523 9 15 9.44771 15 10Z" fill="white"/>
</g>
</svg>
