<svg width="21" height="21" viewBox="0 0 21 21" fill="white" opacity="0.3" xmlns="http://www.w3.org/2000/svg">
<path d="M13 14.6179L13.1581 14.1436L13.1391 14.1372L13.1196 14.1324L13 14.6179ZM8.65811 15.6436C8.39614 15.5562 8.11298 15.6978 8.02566 15.9598C7.93833 16.2218 8.07991 16.5049 8.34189 16.5922L8.65811 15.6436ZM17.5 15.6179L17.4019 15.1276L17.3903 15.1299L17.3787 15.1328L17.5 15.6179ZM3.73077 17.6179L3.24357 17.5055L3.73077 17.6179ZM8.265 4.19391C8.03083 4.04755 7.72236 4.11874 7.576 4.35291C7.42965 4.58708 7.50083 4.89555 7.735 5.04191L8.265 4.19391ZM11.5 10.1179C11.5 10.394 11.7239 10.6179 12 10.6179C12.2761 10.6179 12.5 10.394 12.5 10.1179H11.5ZM15.7481 5.05203C15.9878 4.91502 16.0711 4.6096 15.9341 4.36984C15.7971 4.13008 15.4917 4.04678 15.2519 4.18378L15.7481 5.05203ZM19 1.11791L19.4472 1.34151C19.5195 1.19702 19.5174 1.02653 19.4418 0.883785C19.3662 0.741043 19.2262 0.643643 19.0661 0.622293L19 1.11791ZM3.5 1.11791L3.44766 0.620654C3.26867 0.639495 3.11362 0.753075 3.04168 0.918047C2.96974 1.08302 2.99201 1.27392 3.1 1.41791L3.5 1.11791ZM5 4.61792L4.52566 4.77603L5 4.61792ZM3.58944 18.2303L4.07663 18.3428L3.58944 18.2303ZM4.6437 11.9503L4.84596 11.493L4.6437 11.9503ZM4.91148 12.5015L4.42428 12.3891L4.91148 12.5015ZM19.9811 16.8356L19.4859 16.9052L19.9811 16.8356ZM19.758 17.2618L19.5041 16.8311L19.758 17.2618ZM1.4988 11.1433L1.54332 10.6453L1.4988 11.1433ZM1.45429 11.6413C2.17338 11.7056 3.3225 11.9126 4.44144 12.4075L4.84596 11.493C3.60194 10.9427 2.34016 10.7165 1.54332 10.6453L1.45429 11.6413ZM3.10224 18.1179H1.5V19.1179H3.10224V18.1179ZM1.5 18.1179V11.6179H0.5V18.1179H1.5ZM4.42428 12.3891L4.39742 12.5055L5.37181 12.7303L5.39867 12.6139L4.42428 12.3891ZM4.76497 13.1034L12.8804 15.1034L13.1196 14.1324L5.00426 12.1324L4.76497 13.1034ZM12.8419 15.0922C13.0223 15.1524 13.3245 15.3109 13.5749 15.5747C13.8172 15.8299 14 16.17 14 16.6179H15C15 15.8658 14.6828 15.2892 14.3001 14.8862C13.9255 14.4916 13.4777 14.2501 13.1581 14.1436L12.8419 15.0922ZM8.34189 16.5922C8.86815 16.7677 9.74717 16.9999 10.7037 17.1378C11.6504 17.2743 12.727 17.3266 13.6213 17.103L13.3787 16.1328C12.673 16.3093 11.7496 16.2782 10.8463 16.148C9.95283 16.0192 9.13185 15.8015 8.65811 15.6436L8.34189 16.5922ZM13.6213 17.103C13.6505 17.0957 13.6108 17.1056 13.64 17.0983C13.665 17.092 13.6338 17.0999 13.6588 17.0936C13.6619 17.0928 13.665 17.092 13.6682 17.0912C13.6713 17.0905 13.6744 17.0897 13.6776 17.0889C13.6807 17.0881 13.6838 17.0873 13.687 17.0866C13.6901 17.0858 13.6932 17.085 13.6964 17.0842C13.6995 17.0834 13.7026 17.0826 13.7058 17.0819C13.7089 17.0811 13.712 17.0803 13.7152 17.0795C13.757 17.0691 13.6922 17.0853 13.734 17.0748C13.7371 17.074 13.7402 17.0732 13.7434 17.0724C13.7465 17.0717 13.7497 17.0709 13.7528 17.0701C13.7737 17.0649 13.7507 17.0706 13.7716 17.0654C13.7748 17.0646 13.7779 17.0638 13.781 17.063C13.7842 17.0623 13.7873 17.0615 13.7905 17.0607C13.7936 17.0599 13.7967 17.0591 13.7999 17.0583C13.803 17.0575 13.8062 17.0568 13.8093 17.056C13.8124 17.0552 13.8156 17.0544 13.8187 17.0536C13.8219 17.0528 13.825 17.052 13.8282 17.0513C13.8324 17.0502 13.8428 17.0476 13.847 17.0465C13.8596 17.0434 13.8533 17.045 13.8659 17.0418C13.869 17.041 13.8722 17.0402 13.8753 17.0395C13.8785 17.0387 13.8816 17.0379 13.8848 17.0371C13.9016 17.0329 13.8869 17.0366 13.9036 17.0324C13.9068 17.0316 13.9099 17.0308 13.9131 17.03C13.9162 17.0292 13.9194 17.0284 13.9225 17.0277C13.9561 17.0193 13.9078 17.0313 13.9414 17.0229C13.9666 17.0166 13.9351 17.0245 13.9603 17.0182C13.9635 17.0174 13.9666 17.0166 13.9698 17.0159C13.9729 17.0151 13.9761 17.0143 13.9792 17.0135C13.9824 17.0127 13.9855 17.0119 13.9887 17.0111C13.9918 17.0103 13.995 17.0095 13.9981 17.0088C14.0013 17.008 14.0044 17.0072 14.0076 17.0064C14.0107 17.0056 14.0139 17.0048 14.017 17.004C14.0423 16.9977 14.0107 17.0056 14.036 16.9993C14.0696 16.9909 14.0212 17.003 14.0549 16.9946C14.058 16.9938 14.0612 16.993 14.0643 16.9922C14.0675 16.9914 14.0706 16.9906 14.0738 16.9898C14.0906 16.9856 14.0759 16.9893 14.0927 16.9851C14.1011 16.983 14.1032 16.9825 14.1116 16.9804C14.1537 16.9699 14.0885 16.9862 14.1306 16.9757C14.1474 16.9714 14.1327 16.9751 14.1495 16.9709C14.1526 16.9701 14.1558 16.9693 14.1589 16.9686C14.1621 16.9678 14.1653 16.967 14.1684 16.9662C14.1936 16.9599 14.1621 16.9678 14.1873 16.9615C14.221 16.9531 14.1726 16.9651 14.2063 16.9567C14.2094 16.9559 14.2126 16.9552 14.2157 16.9544C14.2189 16.9536 14.222 16.9528 14.2252 16.952C14.242 16.9478 14.2273 16.9515 14.2441 16.9473C14.2472 16.9465 14.2504 16.9457 14.2536 16.9449C14.2567 16.9441 14.2599 16.9433 14.263 16.9425C14.2714 16.9404 14.2735 16.9399 14.2819 16.9378C14.2851 16.937 14.2882 16.9362 14.2914 16.9354C14.2945 16.9347 14.2977 16.9339 14.3008 16.9331C14.3345 16.9247 14.2861 16.9368 14.3198 16.9284C14.3229 16.9276 14.3261 16.9268 14.3292 16.926C14.3324 16.9252 14.3355 16.9244 14.3387 16.9236C14.3723 16.9152 14.324 16.9273 14.3576 16.9189C14.3607 16.9181 14.3639 16.9173 14.367 16.9165C14.3702 16.9158 14.3733 16.915 14.3765 16.9142C14.3932 16.91 14.3786 16.9137 14.3953 16.9095C14.4037 16.9074 14.4058 16.9068 14.4142 16.9047C14.4226 16.9026 14.4247 16.9021 14.4331 16.9C14.4499 16.8958 14.4352 16.8995 14.452 16.8953C14.4551 16.8945 14.4583 16.8937 14.4614 16.8929C14.4646 16.8922 14.4677 16.8914 14.4709 16.8906C14.496 16.8843 14.4646 16.8922 14.4897 16.8859C14.5232 16.8775 14.4751 16.8895 14.5086 16.8812C14.5128 16.8801 14.5232 16.8775 14.5274 16.8764C14.54 16.8733 14.5337 16.8749 14.5463 16.8717C14.5494 16.8709 14.5525 16.8702 14.5557 16.8694C14.5588 16.8686 14.5619 16.8678 14.5651 16.867C14.5735 16.8649 14.5755 16.8644 14.5839 16.8623C14.587 16.8615 14.5902 16.8608 14.5933 16.86C14.5964 16.8592 14.5996 16.8584 14.6027 16.8576C14.632 16.8503 14.5923 16.8602 14.6215 16.8529C14.6246 16.8521 14.6278 16.8513 14.6309 16.8506C14.634 16.8498 14.6372 16.849 14.6403 16.8482C14.6737 16.8399 14.6257 16.8519 14.6591 16.8435C14.6633 16.8425 14.6737 16.8399 14.6778 16.8388C14.6903 16.8357 14.6841 16.8373 14.6966 16.8341C14.7049 16.8321 14.707 16.8315 14.7153 16.8295C14.757 16.8191 14.6925 16.8352 14.7341 16.8248C14.7549 16.8196 14.732 16.8253 14.7528 16.8201C14.7559 16.8193 14.759 16.8185 14.7621 16.8178C14.7653 16.817 14.7684 16.8162 14.7715 16.8154C14.7964 16.8092 14.7653 16.817 14.7902 16.8107C14.8234 16.8025 14.7757 16.8144 14.8089 16.8061C14.813 16.805 14.8234 16.8025 14.8275 16.8014C14.8399 16.7983 14.8337 16.7999 14.8462 16.7968C14.8493 16.796 14.8524 16.7952 14.8555 16.7944C14.8586 16.7936 14.8617 16.7929 14.8648 16.7921C14.8689 16.7911 14.8793 16.7885 14.8834 16.7874C14.8865 16.7867 14.8896 16.7859 14.8927 16.7851C14.8958 16.7843 14.8989 16.7836 14.902 16.7828C14.9309 16.7756 14.8917 16.7854 14.9206 16.7781C14.9237 16.7774 14.9268 16.7766 14.9299 16.7758C14.933 16.7751 14.936 16.7743 14.9391 16.7735C14.968 16.7663 14.9289 16.7761 14.9577 16.7689C14.9618 16.7678 14.9721 16.7653 14.9762 16.7642C14.9885 16.7612 14.9824 16.7627 14.9947 16.7596C15.0071 16.7565 15.0009 16.7581 15.0132 16.755C15.0173 16.754 15.0276 16.7514 15.0317 16.7504C15.044 16.7473 15.0378 16.7488 15.0501 16.7458C15.0542 16.7447 15.0645 16.7422 15.0686 16.7412C15.0972 16.734 15.0583 16.7437 15.087 16.7366C15.1155 16.7294 15.0768 16.7391 15.1053 16.732C15.1084 16.7312 15.1115 16.7304 15.1145 16.7297C15.1176 16.7289 15.1207 16.7281 15.1237 16.7274C15.14 16.7233 15.1258 16.7269 15.1421 16.7228C15.1451 16.722 15.1482 16.7213 15.1512 16.7205C15.1543 16.7197 15.1573 16.719 15.1604 16.7182C15.1644 16.7172 15.1746 16.7146 15.1787 16.7136C15.1817 16.7129 15.1848 16.7121 15.1878 16.7113C15.1909 16.7106 15.1939 16.7098 15.1969 16.7091C15.2 16.7083 15.203 16.7075 15.2061 16.7068C15.2091 16.706 15.2122 16.7053 15.2152 16.7045C15.2182 16.7037 15.2213 16.703 15.2243 16.7022C15.2273 16.7015 15.2304 16.7007 15.2334 16.6999C15.2617 16.6929 15.2233 16.7025 15.2516 16.6954C15.2678 16.6913 15.2536 16.6949 15.2698 16.6908C15.302 16.6828 15.2557 16.6944 15.2879 16.6863C15.3041 16.6823 15.2899 16.6858 15.3061 16.6818C15.3382 16.6737 15.292 16.6853 15.3242 16.6773C15.3272 16.6765 15.3302 16.6757 15.3332 16.675C15.3362 16.6742 15.3392 16.6735 15.3422 16.6727C15.3583 16.6687 15.3442 16.6722 15.3603 16.6682C15.3923 16.6602 15.3463 16.6717 15.3783 16.6637C15.4023 16.6577 15.3723 16.6652 15.3963 16.6592C15.3993 16.6585 15.4023 16.6577 15.4053 16.657C15.4083 16.6562 15.4112 16.6555 15.4142 16.6547C15.4172 16.654 15.4202 16.6532 15.4232 16.6525C15.4262 16.6517 15.4292 16.651 15.4322 16.6503C15.4352 16.6495 15.4381 16.6488 15.4411 16.648C15.4441 16.6473 15.4471 16.6465 15.4501 16.6458C15.453 16.645 15.456 16.6443 15.459 16.6435C15.462 16.6428 15.465 16.6421 15.4679 16.6413C15.4719 16.6403 15.4818 16.6378 15.4858 16.6369C15.4976 16.6339 15.4917 16.6354 15.5036 16.6324C15.5066 16.6317 15.5095 16.6309 15.5125 16.6302C15.5154 16.6294 15.5184 16.6287 15.5214 16.628C15.5608 16.6181 15.4997 16.6334 15.5391 16.6235C15.5588 16.6186 15.5371 16.624 15.5568 16.6191C15.5598 16.6184 15.5627 16.6176 15.5657 16.6169C15.5686 16.6161 15.5716 16.6154 15.5745 16.6147C15.5784 16.6137 15.5882 16.6112 15.5922 16.6103C15.6039 16.6073 15.598 16.6088 15.6098 16.6059C15.645 16.597 15.5922 16.6103 15.6274 16.6015C15.6303 16.6007 15.6332 16.6 15.6361 16.5993C15.6391 16.5985 15.642 16.5978 15.6449 16.5971C15.6566 16.5941 15.6507 16.5956 15.6624 16.5927C15.7051 16.582 15.6372 16.599 15.6799 16.5883C15.6993 16.5835 15.678 16.5888 15.6973 16.584C15.7002 16.5832 15.7031 16.5825 15.706 16.5818C15.709 16.5811 15.7119 16.5803 15.7147 16.5796C15.7176 16.5789 15.7205 16.5782 15.7234 16.5774C15.7263 16.5767 15.7292 16.576 15.7321 16.5753C15.7514 16.5705 15.7302 16.5757 15.7495 16.5709C15.7572 16.569 15.7591 16.5685 15.7668 16.5666C15.7744 16.5647 15.7764 16.5642 15.784 16.5623C15.7869 16.5616 15.7898 16.5609 15.7926 16.5601C15.7955 16.5594 15.7984 16.5587 15.8012 16.558C15.8394 16.5484 15.7803 16.5632 15.8184 16.5537C15.8413 16.548 15.8127 16.5551 15.8356 16.5494C15.8384 16.5487 15.8413 16.548 15.8441 16.5473C15.847 16.5466 15.8498 16.5458 15.8527 16.5451C15.8555 16.5444 15.8584 16.5437 15.8612 16.543C15.864 16.5423 15.8669 16.5416 15.8697 16.5409C15.8726 16.5402 15.8754 16.5394 15.8783 16.5387C15.8811 16.538 15.8839 16.5373 15.8868 16.5366C15.9246 16.5272 15.866 16.5418 15.9037 16.5324C15.9066 16.5317 15.9094 16.5309 15.9122 16.5302C15.915 16.5295 15.9179 16.5288 15.9207 16.5281C15.9357 16.5244 15.9226 16.5277 15.9376 16.5239C15.975 16.5145 15.917 16.529 15.9544 16.5197C15.9806 16.5131 15.9451 16.522 15.9713 16.5155C15.9741 16.5148 15.9769 16.5141 15.9797 16.5134C15.9825 16.5127 15.9853 16.512 15.988 16.5113C15.9908 16.5106 15.9936 16.5099 15.9964 16.5092C15.9992 16.5085 16.002 16.5078 16.0048 16.5071C16.0159 16.5043 16.0104 16.5057 16.0215 16.5029C16.0252 16.502 16.0344 16.4997 16.0381 16.4988C16.0455 16.4969 16.0473 16.4965 16.0547 16.4946C16.0731 16.49 16.0529 16.4951 16.0713 16.4905C16.0749 16.4896 16.0841 16.4873 16.0878 16.4864C16.0951 16.4845 16.0969 16.4841 16.1042 16.4822C16.1115 16.4804 16.1134 16.48 16.1207 16.4781C16.1571 16.469 16.1006 16.4831 16.137 16.474C16.1398 16.4734 16.1425 16.4727 16.1452 16.472C16.1479 16.4713 16.1506 16.4706 16.1534 16.47C16.1751 16.4645 16.1479 16.4713 16.1696 16.4659C16.1723 16.4652 16.175 16.4645 16.1778 16.4639C16.1805 16.4632 16.1832 16.4625 16.1859 16.4618C16.1886 16.4612 16.1913 16.4605 16.194 16.4598C16.1967 16.4591 16.1993 16.4585 16.202 16.4578C16.245 16.447 16.1752 16.4645 16.2182 16.4538C16.2289 16.4511 16.2235 16.4524 16.2343 16.4497C16.2378 16.4488 16.2467 16.4466 16.2503 16.4457C16.253 16.4451 16.2556 16.4444 16.2583 16.4437C16.261 16.4431 16.2636 16.4424 16.2663 16.4417C16.2689 16.4411 16.2716 16.4404 16.2742 16.4397C16.2769 16.4391 16.2796 16.4384 16.2822 16.4377C16.2849 16.4371 16.2875 16.4364 16.2902 16.4358C16.2928 16.4351 16.2954 16.4344 16.2981 16.4338C16.3122 16.4303 16.2999 16.4333 16.3139 16.4298C16.3174 16.4289 16.3262 16.4267 16.3297 16.4259C16.3472 16.4215 16.328 16.4263 16.3454 16.4219C16.3594 16.4185 16.3472 16.4215 16.3611 16.418C16.3637 16.4174 16.3663 16.4167 16.3689 16.4161C16.3715 16.4154 16.3741 16.4148 16.3767 16.4141C16.3975 16.4089 16.3715 16.4154 16.3923 16.4102C16.413 16.4051 16.3872 16.4115 16.4078 16.4063C16.4353 16.3995 16.3957 16.4094 16.4233 16.4025C16.4258 16.4018 16.4284 16.4012 16.431 16.4006C16.4335 16.3999 16.4361 16.3993 16.4387 16.3986C16.4728 16.3901 16.4199 16.4033 16.454 16.3948C16.4642 16.3922 16.4591 16.3935 16.4693 16.391C16.4863 16.3867 16.4676 16.3914 16.4845 16.3872C16.4879 16.3863 16.4964 16.3842 16.4997 16.3834C16.5023 16.3827 16.5048 16.3821 16.5073 16.3815C16.5098 16.3808 16.5123 16.3802 16.5149 16.3796C16.5174 16.379 16.5199 16.3783 16.5224 16.3777C16.5249 16.3771 16.5274 16.3764 16.5299 16.3758C16.5324 16.3752 16.5349 16.3746 16.5374 16.3739C16.5399 16.3733 16.5424 16.3727 16.5449 16.3721C16.5715 16.3654 16.5334 16.375 16.5599 16.3683C16.5731 16.365 16.5615 16.3679 16.5748 16.3646C16.5814 16.363 16.583 16.3625 16.5896 16.3609C16.5921 16.3603 16.5945 16.3597 16.597 16.359C16.5995 16.3584 16.6019 16.3578 16.6044 16.3572C16.6142 16.3547 16.6093 16.356 16.6191 16.3535C16.6322 16.3503 16.6207 16.3531 16.6338 16.3499C16.637 16.349 16.6451 16.347 16.6483 16.3462C16.6645 16.3422 16.6467 16.3466 16.6629 16.3426C16.6653 16.342 16.6677 16.3414 16.6701 16.3408C16.6725 16.3402 16.6749 16.3396 16.6774 16.339C16.6998 16.3333 16.6693 16.341 16.6918 16.3354C16.7109 16.3306 16.687 16.3365 16.7061 16.3318C16.7125 16.3302 16.714 16.3298 16.7204 16.3282C16.7267 16.3266 16.7283 16.3262 16.7346 16.3246C16.737 16.3241 16.7393 16.3235 16.7417 16.3229C16.7441 16.3223 16.7464 16.3217 16.7488 16.3211C16.7511 16.3205 16.7535 16.3199 16.7558 16.3193C16.7582 16.3188 16.7605 16.3182 16.7629 16.3176C16.7652 16.317 16.7675 16.3164 16.7699 16.3158C16.7722 16.3152 16.7746 16.3147 16.7769 16.3141C16.7924 16.3102 16.7754 16.3145 16.7908 16.3106C16.7939 16.3098 16.8017 16.3079 16.8047 16.3071C16.8201 16.3033 16.8032 16.3075 16.8186 16.3037C16.8209 16.3031 16.8232 16.3025 16.8255 16.3019C16.8278 16.3014 16.8301 16.3008 16.8323 16.3002C16.8506 16.2956 16.8278 16.3013 16.846 16.2968C16.8643 16.2922 16.8415 16.2979 16.8597 16.2934C16.8898 16.2859 16.8432 16.2975 16.8732 16.29C16.8823 16.2877 16.8777 16.2889 16.8867 16.2866C16.8897 16.2859 16.8972 16.284 16.9002 16.2833C16.915 16.2795 16.8987 16.2836 16.9135 16.2799C16.94 16.2733 16.9003 16.2832 16.9268 16.2766C16.929 16.276 16.9312 16.2755 16.9334 16.2749C16.9356 16.2744 16.9378 16.2738 16.94 16.2733C16.9517 16.2704 16.9415 16.2729 16.9532 16.27C16.9554 16.2695 16.9575 16.2689 16.9597 16.2684C16.9619 16.2678 16.9641 16.2673 16.9662 16.2667C16.9692 16.266 16.9764 16.2642 16.9793 16.2635C16.9814 16.2629 16.9836 16.2624 16.9857 16.2619C16.9879 16.2613 16.99 16.2608 16.9922 16.2602C17.015 16.2545 16.9822 16.2627 17.005 16.257C17.0072 16.2565 17.0093 16.256 17.0115 16.2554C17.0136 16.2549 17.0157 16.2544 17.0178 16.2538C17.0404 16.2482 17.008 16.2563 17.0306 16.2507C17.0327 16.2501 17.0348 16.2496 17.0369 16.2491C17.039 16.2485 17.0411 16.248 17.0432 16.2475C17.0453 16.247 17.0474 16.2464 17.0495 16.2459C17.0516 16.2454 17.0537 16.2449 17.0558 16.2444C17.0579 16.2438 17.0599 16.2433 17.062 16.2428C17.0641 16.2423 17.0662 16.2417 17.0683 16.2412C17.0738 16.2398 17.0752 16.2395 17.0807 16.2381C17.1082 16.2312 17.0655 16.2419 17.093 16.235C17.0951 16.2345 17.0971 16.234 17.0992 16.2335C17.1012 16.233 17.1033 16.2325 17.1053 16.232C17.1216 16.2279 17.1012 16.233 17.1175 16.2289C17.1444 16.2222 17.1028 16.2326 17.1296 16.2259C17.1457 16.2219 17.1256 16.2269 17.1417 16.2229C17.1437 16.2224 17.1457 16.2219 17.1477 16.2214C17.1497 16.2209 17.1517 16.2204 17.1536 16.2199C17.1556 16.2194 17.1576 16.2189 17.1596 16.2184C17.1616 16.2179 17.1636 16.2174 17.1655 16.2169C17.1675 16.2164 17.1695 16.2159 17.1714 16.2154C17.1734 16.2149 17.1754 16.2144 17.1773 16.214C17.1793 16.2135 17.1813 16.213 17.1832 16.2125C17.1852 16.212 17.1871 16.2115 17.1891 16.211C17.1943 16.2097 17.1956 16.2094 17.2007 16.2081C17.2111 16.2055 17.202 16.2078 17.2123 16.2052C17.2174 16.2039 17.2187 16.2036 17.2238 16.2023C17.2289 16.2011 17.2302 16.2008 17.2352 16.1995C17.2403 16.1982 17.2415 16.1979 17.2466 16.1967C17.2616 16.1929 17.2428 16.1976 17.2578 16.1938C17.2677 16.1914 17.2591 16.1935 17.269 16.191C17.2888 16.1861 17.2603 16.1932 17.2801 16.1883C17.2819 16.1878 17.2838 16.1874 17.2856 16.1869C17.2874 16.1864 17.2893 16.186 17.2911 16.1855C17.3203 16.1782 17.2728 16.1901 17.302 16.1828C17.3164 16.1792 17.2985 16.1837 17.3129 16.1801C17.3177 16.1789 17.3188 16.1786 17.3236 16.1774C17.3284 16.1762 17.3296 16.1759 17.3343 16.1747C17.3361 16.1743 17.3378 16.1738 17.3396 16.1734C17.3414 16.173 17.3431 16.1725 17.3449 16.1721C17.3466 16.1716 17.3484 16.1712 17.3501 16.1708C17.3519 16.1703 17.3536 16.1699 17.3554 16.1694C17.3571 16.169 17.3589 16.1686 17.3606 16.1681C17.3623 16.1677 17.3641 16.1673 17.3658 16.1668C17.3841 16.1623 17.3578 16.1688 17.3761 16.1643C17.3779 16.1638 17.3796 16.1634 17.3813 16.163C17.383 16.1625 17.3847 16.1621 17.3864 16.1617C17.3999 16.1583 17.3831 16.1625 17.3966 16.1592C17.3982 16.1587 17.3999 16.1583 17.4016 16.1579C17.4033 16.1575 17.405 16.1571 17.4066 16.1566C17.4155 16.1544 17.4078 16.1564 17.4166 16.1541C17.4183 16.1537 17.4199 16.1533 17.4216 16.1529C17.4232 16.1525 17.4249 16.1521 17.4265 16.1517C17.4282 16.1513 17.4298 16.1508 17.4314 16.1504C17.4331 16.15 17.4347 16.1496 17.4363 16.1492C17.4537 16.1449 17.4287 16.1511 17.4461 16.1468C17.4477 16.1464 17.4493 16.146 17.4509 16.1456C17.4525 16.1452 17.4541 16.1448 17.4557 16.1444C17.4685 16.1412 17.4525 16.1452 17.4652 16.142C17.4862 16.1367 17.4538 16.1448 17.4747 16.1396C17.4872 16.1365 17.4715 16.1404 17.4841 16.1373C17.4856 16.1369 17.4872 16.1365 17.4887 16.1361C17.4903 16.1357 17.4918 16.1353 17.4933 16.135C17.4949 16.1346 17.4964 16.1342 17.4979 16.1338C17.4995 16.1334 17.501 16.133 17.5025 16.1327C17.504 16.1323 17.5056 16.1319 17.5071 16.1315C17.5086 16.1311 17.5101 16.1308 17.5116 16.1304C17.5131 16.13 17.5146 16.1296 17.5161 16.1293C17.5176 16.1289 17.5191 16.1285 17.5206 16.1281C17.5285 16.1262 17.5216 16.1279 17.5295 16.1259C17.5374 16.1239 17.5305 16.1257 17.5383 16.1237C17.5538 16.1198 17.5316 16.1254 17.5471 16.1215C17.5509 16.1206 17.5519 16.1203 17.5557 16.1194C17.5595 16.1184 17.5604 16.1182 17.5642 16.1172C17.568 16.1163 17.5689 16.1161 17.5727 16.1151C17.5874 16.1114 17.5662 16.1167 17.581 16.113C17.5884 16.1112 17.5819 16.1128 17.5892 16.111C17.5929 16.1101 17.5938 16.1098 17.5974 16.1089C17.6082 16.1062 17.5947 16.1096 17.6054 16.1069C17.6266 16.1017 17.5923 16.1102 17.6134 16.1049C17.6204 16.1032 17.6143 16.1047 17.6213 16.103L17.3787 15.1328C17.3774 15.1332 17.3761 15.1335 17.3748 15.1338C17.3735 15.1341 17.3722 15.1345 17.3709 15.1348C17.3696 15.1351 17.3682 15.1355 17.3669 15.1358C17.3656 15.1361 17.3642 15.1365 17.3629 15.1368C17.3593 15.1377 17.3585 15.1379 17.3549 15.1388C17.3535 15.1391 17.3522 15.1395 17.3508 15.1398C17.3494 15.1402 17.3481 15.1405 17.3467 15.1408C17.332 15.1445 17.3532 15.1392 17.3385 15.1429C17.3371 15.1432 17.3357 15.1436 17.3343 15.1439C17.3329 15.1443 17.3315 15.1446 17.3301 15.145C17.3188 15.1478 17.333 15.1443 17.3217 15.1471C17.3179 15.148 17.3169 15.1483 17.3131 15.1492C17.3093 15.1502 17.3084 15.1504 17.3045 15.1514C17.3045 15.1514 17.2958 15.1536 17.2958 15.1536C17.2943 15.1539 17.2929 15.1543 17.2914 15.1547C17.2899 15.155 17.2885 15.1554 17.287 15.1558C17.2712 15.1597 17.2939 15.1541 17.2781 15.158C17.2766 15.1584 17.2751 15.1587 17.2736 15.1591C17.2721 15.1595 17.2706 15.1599 17.2691 15.1602C17.2409 15.1673 17.2882 15.1555 17.26 15.1625C17.2585 15.1629 17.2569 15.1633 17.2554 15.1637C17.2539 15.1641 17.2523 15.1644 17.2508 15.1648C17.2426 15.1669 17.2498 15.1651 17.2415 15.1671C17.24 15.1675 17.2384 15.1679 17.2369 15.1683C17.2353 15.1687 17.2337 15.1691 17.2322 15.1695C17.2306 15.1699 17.229 15.1703 17.2274 15.1707C17.2259 15.1711 17.2243 15.1714 17.2227 15.1718C17.2185 15.1729 17.2174 15.1732 17.2132 15.1742C17.2089 15.1753 17.2078 15.1756 17.2035 15.1766C17.1949 15.1788 17.2025 15.1769 17.1938 15.1791C17.1938 15.1791 17.184 15.1815 17.184 15.1815C17.1619 15.187 17.1962 15.1785 17.1741 15.184C17.1741 15.184 17.1641 15.1865 17.1641 15.1865C17.1506 15.1899 17.1675 15.1856 17.154 15.189C17.1495 15.1901 17.1484 15.1904 17.1439 15.1916C17.1256 15.1961 17.1519 15.1895 17.1336 15.1941C17.1245 15.1964 17.1324 15.1944 17.1233 15.1967C17.1215 15.1971 17.1198 15.1976 17.1181 15.198C17.1163 15.1984 17.1146 15.1989 17.1129 15.1993C17.0849 15.2063 17.1303 15.1949 17.1023 15.2019C17.0882 15.2055 17.1059 15.201 17.0918 15.2046C17.087 15.2058 17.0858 15.2061 17.0811 15.2072C17.0763 15.2084 17.0751 15.2087 17.0703 15.2099C17.0685 15.2104 17.0667 15.2108 17.0649 15.2113C17.0631 15.2117 17.0613 15.2122 17.0595 15.2127C17.0577 15.2131 17.0558 15.2136 17.054 15.214C17.0522 15.2145 17.0504 15.2149 17.0485 15.2154C17.0467 15.2158 17.0449 15.2163 17.0431 15.2168C17.0412 15.2172 17.0394 15.2177 17.0375 15.2181C17.0277 15.2206 17.0363 15.2184 17.0264 15.2209C17.0166 15.2234 17.0252 15.2212 17.0153 15.2237C17.0002 15.2275 17.0191 15.2227 17.004 15.2265C16.994 15.229 17.0028 15.2268 16.9927 15.2293C16.9908 15.2298 16.9889 15.2303 16.987 15.2308C16.9851 15.2312 16.9832 15.2317 16.9813 15.2322C16.9711 15.2347 16.98 15.2325 16.9698 15.2351C16.9679 15.2356 16.9659 15.236 16.964 15.2365C16.9621 15.237 16.9601 15.2375 16.9582 15.238C16.9401 15.2425 16.9646 15.2364 16.9465 15.2409C16.9446 15.2414 16.9426 15.2419 16.9407 15.2423C16.9387 15.2428 16.9368 15.2433 16.9348 15.2438C16.9139 15.249 16.944 15.2415 16.923 15.2468C16.9204 15.2474 16.9138 15.2491 16.9111 15.2497C16.8952 15.2537 16.9151 15.2488 16.8991 15.2527C16.8971 15.2532 16.8951 15.2537 16.8931 15.2542C16.8911 15.2547 16.8891 15.2552 16.8871 15.2557C16.8851 15.2562 16.8831 15.2568 16.881 15.2573C16.879 15.2578 16.877 15.2583 16.875 15.2588C16.8641 15.2615 16.8737 15.2591 16.8628 15.2618C16.8573 15.2632 16.856 15.2635 16.8505 15.2649C16.845 15.2663 16.8437 15.2666 16.8382 15.268C16.8361 15.2685 16.834 15.269 16.832 15.2695C16.8299 15.27 16.8278 15.2706 16.8257 15.2711C16.7979 15.278 16.8411 15.2672 16.8132 15.2742C16.7993 15.2777 16.8146 15.2739 16.8007 15.2774C16.7781 15.283 16.8106 15.2749 16.788 15.2805C16.7767 15.2833 16.7866 15.2809 16.7753 15.2837C16.7497 15.2901 16.7882 15.2805 16.7625 15.2869C16.7511 15.2897 16.7611 15.2872 16.7497 15.2901C16.7475 15.2906 16.7453 15.2912 16.7432 15.2917C16.741 15.2923 16.7389 15.2928 16.7367 15.2933C16.7165 15.2984 16.7439 15.2915 16.7237 15.2966C16.7004 15.3024 16.7339 15.294 16.7106 15.2999C16.7084 15.3004 16.7063 15.301 16.7041 15.3015C16.7019 15.302 16.6997 15.3026 16.6975 15.3031C16.6857 15.3061 16.696 15.3035 16.6843 15.3065C16.6821 15.307 16.6798 15.3076 16.6776 15.3081C16.6754 15.3087 16.6732 15.3092 16.671 15.3098C16.6621 15.312 16.6665 15.3109 16.6576 15.3131C16.6554 15.3137 16.6532 15.3142 16.6509 15.3148C16.6487 15.3153 16.6464 15.3159 16.6442 15.3165C16.6172 15.3232 16.6578 15.3131 16.6307 15.3198C16.6284 15.3204 16.6262 15.321 16.6239 15.3215C16.6217 15.3221 16.6194 15.3227 16.6171 15.3232C16.605 15.3263 16.6156 15.3236 16.6035 15.3266C16.6012 15.3272 16.5989 15.3278 16.5967 15.3284C16.5944 15.3289 16.5921 15.3295 16.5898 15.3301C16.5714 15.3347 16.5944 15.3289 16.576 15.3335C16.5607 15.3373 16.5776 15.3331 16.5622 15.337C16.5599 15.3375 16.5576 15.3381 16.5553 15.3387C16.553 15.3393 16.5506 15.3399 16.5483 15.3404C16.5266 15.3459 16.556 15.3385 16.5343 15.3439C16.532 15.3445 16.5297 15.3451 16.5273 15.3457C16.525 15.3463 16.5227 15.3469 16.5203 15.3474C16.4953 15.3537 16.5312 15.3447 16.5062 15.351C16.4873 15.3557 16.511 15.3498 16.4921 15.3545C16.4858 15.3561 16.4842 15.3565 16.4779 15.3581C16.4715 15.3596 16.4699 15.36 16.4636 15.3616C16.4612 15.3622 16.4588 15.3628 16.4564 15.3634C16.454 15.364 16.4516 15.3646 16.4492 15.3652C16.446 15.366 16.438 15.368 16.4348 15.3688C16.4324 15.3694 16.43 15.37 16.4276 15.3706C16.4252 15.3712 16.4228 15.3718 16.4203 15.3724C16.3977 15.3781 16.4285 15.3704 16.4058 15.3761C16.4034 15.3767 16.401 15.3773 16.3985 15.3779C16.3961 15.3785 16.3937 15.3791 16.3912 15.3797C16.3717 15.3846 16.3961 15.3785 16.3766 15.3834C16.3733 15.3842 16.3651 15.3862 16.3618 15.3871C16.3487 15.3903 16.3602 15.3875 16.3471 15.3907C16.3208 15.3973 16.3586 15.3879 16.3322 15.3945C16.319 15.3978 16.3306 15.3949 16.3173 15.3982C16.3041 15.4015 16.3157 15.3986 16.3024 15.4019C16.2999 15.4025 16.2974 15.4032 16.2949 15.4038C16.2924 15.4044 16.2899 15.405 16.2874 15.4057C16.2506 15.4149 16.3091 15.4002 16.2723 15.4094C16.2622 15.412 16.2673 15.4107 16.2572 15.4132C16.2471 15.4157 16.2521 15.4145 16.242 15.417C16.2395 15.4176 16.2369 15.4183 16.2344 15.4189C16.2319 15.4196 16.2293 15.4202 16.2268 15.4208C16.2242 15.4215 16.2217 15.4221 16.2191 15.4227C16.2166 15.4234 16.214 15.424 16.2115 15.4246C16.2089 15.4253 16.2064 15.4259 16.2038 15.4266C16.2013 15.4272 16.1987 15.4278 16.1961 15.4285C16.1927 15.4293 16.1842 15.4315 16.1807 15.4323C16.167 15.4358 16.179 15.4328 16.1653 15.4362C16.1584 15.4379 16.1567 15.4384 16.1498 15.4401C16.1359 15.4435 16.148 15.4405 16.1342 15.444C16.1203 15.4474 16.1324 15.4444 16.1186 15.4479C16.116 15.4485 16.1133 15.4492 16.1107 15.4498C16.1081 15.4505 16.1055 15.4511 16.1029 15.4518C16.0854 15.4562 16.1046 15.4514 16.0872 15.4557C16.0845 15.4564 16.0819 15.457 16.0793 15.4577C16.0766 15.4584 16.074 15.459 16.0714 15.4597C16.0433 15.4667 16.0837 15.4566 16.0556 15.4636C16.0529 15.4643 16.0503 15.465 16.0476 15.4656C16.045 15.4663 16.0423 15.4669 16.0397 15.4676C16.0079 15.4756 16.0556 15.4636 16.0237 15.4716C16.0131 15.4742 16.0184 15.4729 16.0078 15.4756C15.9971 15.4782 16.0024 15.4769 15.9917 15.4796C15.9882 15.4805 15.9792 15.4827 15.9756 15.4836C15.973 15.4843 15.9703 15.485 15.9676 15.4856C15.9649 15.4863 15.9622 15.487 15.9595 15.4876C15.9568 15.4883 15.9541 15.489 15.9514 15.4897C15.9487 15.4903 15.946 15.491 15.9433 15.4917C15.9406 15.4924 15.9379 15.493 15.9352 15.4937C15.9325 15.4944 15.9298 15.4951 15.9271 15.4957C15.9054 15.5012 15.9326 15.4944 15.9108 15.4998C15.8891 15.5052 15.9162 15.4985 15.8945 15.5039C15.8918 15.5046 15.889 15.5053 15.8863 15.5059C15.8836 15.5066 15.8809 15.5073 15.8781 15.508C15.8708 15.5098 15.869 15.5103 15.8617 15.5121C15.8544 15.5139 15.8526 15.5144 15.8452 15.5162C15.8123 15.5245 15.8617 15.5121 15.8287 15.5203C15.7882 15.5305 15.8527 15.5143 15.8122 15.5245C15.7753 15.5337 15.8324 15.5194 15.7956 15.5286C15.7928 15.5293 15.79 15.53 15.7873 15.5307C15.7845 15.5314 15.7817 15.5321 15.7789 15.5328C15.7604 15.5374 15.7808 15.5323 15.7622 15.537C15.7287 15.5453 15.779 15.5328 15.7455 15.5411C15.7194 15.5477 15.7548 15.5388 15.7287 15.5453C15.7259 15.546 15.7231 15.5467 15.7203 15.5474C15.7175 15.5481 15.7147 15.5488 15.7119 15.5495C15.7091 15.5502 15.7063 15.5509 15.7035 15.5516C15.7007 15.5523 15.6979 15.5531 15.6951 15.5538C15.68 15.5575 15.6932 15.5542 15.6782 15.558C15.6669 15.5608 15.6725 15.5594 15.6612 15.5622C15.6537 15.5641 15.6518 15.5646 15.6442 15.5665C15.6414 15.5672 15.6386 15.5679 15.6357 15.5686C15.6329 15.5693 15.63 15.57 15.6272 15.5707C15.5893 15.5802 15.6481 15.5655 15.6101 15.575C15.5874 15.5807 15.6158 15.5736 15.593 15.5793C15.5902 15.58 15.5873 15.5807 15.5845 15.5814C15.5816 15.5821 15.5787 15.5828 15.5759 15.5835C15.573 15.5843 15.5702 15.585 15.5673 15.5857C15.5644 15.5864 15.5616 15.5871 15.5587 15.5878C15.5434 15.5917 15.5568 15.5883 15.5415 15.5921C15.5032 15.6017 15.5625 15.5869 15.5242 15.5965C15.5213 15.5972 15.5185 15.5979 15.5156 15.5986C15.5127 15.5993 15.5098 15.6001 15.5069 15.6008C15.4954 15.6037 15.5011 15.6022 15.4896 15.6051C15.4471 15.6157 15.5147 15.5988 15.4722 15.6095C15.449 15.6153 15.478 15.608 15.4548 15.6138C15.4519 15.6145 15.449 15.6153 15.4461 15.616C15.4432 15.6167 15.4403 15.6174 15.4374 15.6182C15.4345 15.6189 15.4315 15.6196 15.4286 15.6204C15.4257 15.6211 15.4228 15.6218 15.4199 15.6225C15.4004 15.6274 15.4218 15.6221 15.4024 15.6269C15.3985 15.6279 15.3887 15.6303 15.3848 15.6313C15.3731 15.6342 15.379 15.6328 15.3672 15.6357C15.3643 15.6364 15.3614 15.6372 15.3584 15.6379C15.3555 15.6386 15.3526 15.6394 15.3496 15.6401C15.3143 15.6489 15.3673 15.6357 15.332 15.6445C15.3123 15.6494 15.3339 15.644 15.3143 15.6489C15.3113 15.6497 15.3084 15.6504 15.3054 15.6512C15.3025 15.6519 15.2995 15.6526 15.2966 15.6534C15.2966 15.6534 15.2788 15.6578 15.2788 15.6578C15.2759 15.6586 15.2729 15.6593 15.2699 15.66C15.267 15.6608 15.264 15.6615 15.2611 15.6623C15.2255 15.6712 15.2788 15.6578 15.2432 15.6667C15.2403 15.6675 15.2373 15.6682 15.2343 15.6689C15.2314 15.6697 15.2284 15.6704 15.2254 15.6712C15.1937 15.6791 15.2393 15.6677 15.2075 15.6756C15.1837 15.6816 15.2135 15.6741 15.1896 15.6801C15.1737 15.6841 15.1876 15.6806 15.1717 15.6846C15.1398 15.6926 15.1857 15.6811 15.1537 15.6891C15.1507 15.6898 15.1477 15.6906 15.1448 15.6913C15.1418 15.6921 15.1388 15.6928 15.1358 15.6936C15.1328 15.6943 15.1298 15.6951 15.1268 15.6958C15.1237 15.6966 15.1207 15.6973 15.1177 15.6981C15.1147 15.6988 15.1117 15.6996 15.1087 15.7003C15.1057 15.7011 15.1027 15.7018 15.0997 15.7026C15.0967 15.7033 15.0937 15.7041 15.0907 15.7049C15.0877 15.7056 15.0846 15.7064 15.0816 15.7071C15.0786 15.7079 15.0756 15.7086 15.0726 15.7094C15.0696 15.7101 15.0665 15.7109 15.0635 15.7116C15.0394 15.7177 15.0696 15.7101 15.0454 15.7162C15.0424 15.7169 15.0394 15.7177 15.0363 15.7184C15.0333 15.7192 15.0303 15.7199 15.0273 15.7207C15.0242 15.7215 15.0212 15.7222 15.0182 15.723C15.0151 15.7237 15.0121 15.7245 15.0091 15.7252C14.997 15.7283 15.003 15.7268 14.9909 15.7298C14.9868 15.7308 14.9767 15.7333 14.9727 15.7344C14.9727 15.7344 14.9544 15.7389 14.9544 15.7389C14.9514 15.7397 14.9483 15.7404 14.9453 15.7412C14.9422 15.742 14.9392 15.7427 14.9361 15.7435C14.9077 15.7506 14.9463 15.7409 14.9178 15.7481C14.8893 15.7552 14.928 15.7455 14.8995 15.7526C14.8995 15.7526 14.8812 15.7572 14.8812 15.7572C14.8608 15.7623 14.8832 15.7567 14.8628 15.7618C14.8597 15.7626 14.8567 15.7633 14.8536 15.7641C14.8506 15.7649 14.8475 15.7656 14.8444 15.7664C14.8403 15.7674 14.8301 15.77 14.826 15.771C14.8229 15.7718 14.8199 15.7725 14.8168 15.7733C14.8137 15.7741 14.8107 15.7749 14.8076 15.7756C14.7707 15.7848 14.8261 15.771 14.7891 15.7802C14.7861 15.781 14.783 15.7818 14.7799 15.7825C14.7768 15.7833 14.7738 15.7841 14.7707 15.7849C14.7419 15.792 14.781 15.7823 14.7522 15.7895C14.7481 15.7905 14.7378 15.7931 14.7337 15.7941C14.7213 15.7972 14.7275 15.7956 14.7151 15.7987C14.7028 15.8018 14.709 15.8003 14.6966 15.8034C14.6595 15.8126 14.7152 15.7987 14.678 15.808C14.6574 15.8132 14.6801 15.8075 14.6595 15.8127C14.6564 15.8134 14.6533 15.8142 14.6502 15.815C14.6471 15.8158 14.644 15.8165 14.6409 15.8173C14.6119 15.8245 14.6512 15.8147 14.6223 15.822C14.5933 15.8292 14.6326 15.8194 14.6036 15.8266C14.5995 15.8276 14.5891 15.8302 14.585 15.8313C14.5725 15.8344 14.5788 15.8328 14.5663 15.8359C14.5632 15.8367 14.5601 15.8375 14.557 15.8383C14.5539 15.839 14.5508 15.8398 14.5476 15.8406C14.5393 15.8427 14.5373 15.8432 14.529 15.8453C14.5258 15.8461 14.5227 15.8468 14.5196 15.8476C14.5165 15.8484 14.5134 15.8492 14.5103 15.85C14.4811 15.8572 14.5207 15.8474 14.4915 15.8546C14.4884 15.8554 14.4853 15.8562 14.4822 15.857C14.4791 15.8578 14.4759 15.8585 14.4728 15.8593C14.4395 15.8676 14.4874 15.8557 14.4541 15.864C14.4499 15.865 14.4395 15.8676 14.4353 15.8687C14.4228 15.8718 14.4291 15.8703 14.4165 15.8734C14.4082 15.8755 14.4061 15.876 14.3978 15.8781C14.3894 15.8802 14.3873 15.8807 14.379 15.8828C14.3581 15.888 14.3811 15.8823 14.3602 15.8875C14.357 15.8883 14.3539 15.889 14.3508 15.8898C14.3476 15.8906 14.3445 15.8914 14.3414 15.8922C14.3163 15.8984 14.3476 15.8906 14.3225 15.8969C14.2891 15.9053 14.3372 15.8932 14.3037 15.9016C14.2995 15.9026 14.2891 15.9053 14.2849 15.9063C14.2723 15.9094 14.2786 15.9079 14.266 15.911C14.2629 15.9118 14.2598 15.9126 14.2566 15.9134C14.2535 15.9142 14.2503 15.9149 14.2472 15.9157C14.2388 15.9178 14.2367 15.9183 14.2283 15.9204C14.2252 15.9212 14.222 15.922 14.2189 15.9228C14.2157 15.9236 14.2126 15.9244 14.2095 15.9252C14.1759 15.9335 14.2241 15.9215 14.1906 15.9299C14.1874 15.9307 14.1843 15.9314 14.1811 15.9322C14.178 15.933 14.1748 15.9338 14.1717 15.9346C14.1381 15.943 14.1864 15.9309 14.1528 15.9393C14.1497 15.9401 14.1465 15.9409 14.1434 15.9417C14.1402 15.9425 14.1371 15.9433 14.1339 15.944C14.1171 15.9482 14.1318 15.9446 14.115 15.9488C14.1066 15.9509 14.1045 15.9514 14.0961 15.9535C14.0541 15.964 14.1192 15.9477 14.0772 15.9582C14.0604 15.9624 14.0751 15.9587 14.0583 15.9629C14.0552 15.9637 14.052 15.9645 14.0488 15.9653C14.0457 15.9661 14.0425 15.9669 14.0394 15.9677C14.0142 15.974 14.0457 15.9661 14.0205 15.9724C13.9868 15.9808 14.0352 15.9687 14.0016 15.9771C13.9984 15.9779 13.9953 15.9787 13.9921 15.9795C13.9889 15.9803 13.9858 15.9811 13.9826 15.9819C13.9658 15.9861 13.9805 15.9824 13.9637 15.9866C13.9606 15.9874 13.9574 15.9882 13.9543 15.989C13.9511 15.9897 13.9479 15.9905 13.9448 15.9913C13.9364 15.9934 13.9343 15.9939 13.9259 15.9961C13.9227 15.9968 13.9196 15.9976 13.9164 15.9984C13.9133 15.9992 13.9101 16 13.9069 16.0008C13.8733 16.0092 13.9217 15.9971 13.888 16.0055C13.8849 16.0063 13.8817 16.0071 13.8786 16.0079C13.8754 16.0087 13.8723 16.0095 13.8691 16.0102C13.8355 16.0187 13.8838 16.0066 13.8502 16.015C13.847 16.0158 13.8439 16.0166 13.8407 16.0173C13.8376 16.0181 13.8344 16.0189 13.8313 16.0197C13.8144 16.0239 13.8292 16.0202 13.8123 16.0244C13.8039 16.0265 13.8018 16.0271 13.7934 16.0292C13.785 16.0313 13.7829 16.0318 13.7745 16.0339C13.7577 16.0381 13.7724 16.0344 13.7556 16.0386C13.7524 16.0394 13.7493 16.0402 13.7461 16.041C13.743 16.0418 13.7398 16.0426 13.7367 16.0433C13.7115 16.0496 13.743 16.0418 13.7178 16.0481C13.6842 16.0565 13.7325 16.0444 13.6989 16.0528C13.6957 16.0536 13.6926 16.0544 13.6894 16.0552C13.6863 16.0559 13.6832 16.0567 13.68 16.0575C13.6632 16.0617 13.6779 16.058 13.6611 16.0622C13.658 16.063 13.6548 16.0638 13.6517 16.0646C13.6485 16.0654 13.6454 16.0662 13.6422 16.067C13.6338 16.0691 13.6317 16.0696 13.6234 16.0717C13.6202 16.0725 13.6171 16.0733 13.6139 16.074C13.6108 16.0748 13.6076 16.0756 13.6045 16.0764C13.5751 16.0837 13.615 16.0738 13.5856 16.0811C13.5825 16.0819 13.5793 16.0827 13.5762 16.0835C13.5731 16.0843 13.5699 16.085 13.5668 16.0858C13.5333 16.0942 13.5814 16.0822 13.5479 16.0905C13.5437 16.0916 13.5333 16.0942 13.5291 16.0952C13.5165 16.0984 13.5228 16.0968 13.5103 16.1C13.5019 16.102 13.4998 16.1026 13.4914 16.1047C13.4496 16.1151 13.5144 16.0989 13.4726 16.1094C13.4517 16.1146 13.4747 16.1088 13.4538 16.1141C13.4507 16.1148 13.4476 16.1156 13.4444 16.1164C13.4413 16.1172 13.4382 16.118 13.435 16.1188C13.41 16.125 13.4413 16.1172 13.4163 16.1235C13.3829 16.1318 13.4308 16.1198 13.3975 16.1281C13.3933 16.1292 13.3829 16.1318 13.3787 16.1328L13.6213 17.103ZM17.5981 16.1082C17.9363 16.0405 18.419 16.0231 18.8126 16.1479C19.1769 16.2634 19.4261 16.4788 19.4859 16.9052L20.4762 16.7661C20.35 15.8673 19.7492 15.3958 19.1148 15.1946C18.5097 15.0028 17.8449 15.039 17.4019 15.1276L17.5981 16.1082ZM19.5041 16.8311C18.6365 17.3423 17.3595 18.0425 15.9292 18.6139C14.4933 19.1876 12.9359 19.6179 11.5 19.6179V20.6179C13.117 20.6179 14.8098 20.138 16.3002 19.5426C17.7962 18.9449 19.1217 18.2171 20.0118 17.6926L19.5041 16.8311ZM4.39742 12.5055L3.24357 17.5055L4.21796 17.7303L5.37181 12.7303L4.39742 12.5055ZM3.24357 17.5055L3.10224 18.1179L4.07663 18.3428L4.21796 17.7303L3.24357 17.5055ZM11.5 19.6179C9.9795 19.6179 8.371 19.2202 6.99771 18.7115C5.61965 18.2011 4.52664 17.5971 4.03449 17.2207L3.42704 18.0151C4.02464 18.4721 5.21625 19.1181 6.65036 19.6493C8.08926 20.1823 9.8205 20.6179 11.5 20.6179V19.6179ZM12.5 10.1179C12.5 9.28722 12.9194 7.44362 14.4807 5.98305L13.7975 5.25277C12.0056 6.92911 11.5 9.05206 11.5 10.1179H12.5ZM14.4807 5.98305C14.839 5.64788 15.2582 5.33193 15.7481 5.05203L15.2519 4.18378C14.6934 4.50293 14.2116 4.86545 13.7975 5.25277L14.4807 5.98305ZM14.5899 5.4016C14.1727 4.53224 13.9737 3.40766 14.4226 2.63049C14.8384 1.91073 15.9865 1.22053 18.9339 1.61352L19.0661 0.622293C16.0135 0.21528 14.2913 0.858418 13.5567 2.13033C12.8552 3.34482 13.2258 4.87024 13.6883 5.83421L14.5899 5.4016ZM18.5528 0.894302C18.2747 1.45055 18.1385 2.00254 18.0149 2.49665C17.8885 3.00254 17.7747 3.45055 17.5528 3.89431L18.4472 4.34153C18.7253 3.78529 18.8615 3.2333 18.9851 2.73919C19.1115 2.23329 19.2253 1.78528 19.4472 1.34151L18.5528 0.894302ZM17.5528 3.89431C17.3349 4.33012 16.9502 4.98202 16.4167 5.3566C16.1605 5.53648 15.8848 5.64181 15.5814 5.64212C15.2781 5.64243 14.8958 5.5378 14.4262 5.20853L13.852 6.02729C14.452 6.448 15.0312 6.64268 15.5824 6.64212C16.1336 6.64156 16.6056 6.44584 16.9913 6.17503C17.7417 5.64823 18.2179 4.80014 18.4472 4.34153L17.5528 3.89431ZM7.735 5.04191C8.32936 5.41338 9.21775 6.09624 9.98519 6.95179L10.7296 6.28405C9.89194 5.35022 8.92872 4.60873 8.265 4.19391L7.735 5.04191ZM9.98519 6.95179C10.8563 7.92289 11.5 9.03624 11.5 10.1179H12.5C12.5 8.66411 11.6556 7.31641 10.7296 6.28405L9.98519 6.95179ZM10.8206 6.80623C11.2916 5.64763 11.5337 3.86632 10.5136 2.46161C9.47956 1.03768 7.30802 0.214294 3.44766 0.620654L3.55234 1.61516C7.29198 1.22151 8.98957 2.06479 9.70445 3.04921C10.4333 4.05283 10.304 5.42154 9.89421 6.42961L10.8206 6.80623ZM3.1 1.41791C3.31089 1.69909 3.54162 2.15119 3.78799 2.74659C4.03118 3.3343 4.27678 4.02941 4.52566 4.77603L5.47434 4.45981C5.22322 3.70643 4.96882 2.98487 4.71201 2.36424C4.45838 1.7513 4.18911 1.20339 3.9 0.817908L3.1 1.41791ZM4.52566 4.77603C4.76972 5.50821 5.30994 6.76061 6.30075 7.49144C6.81241 7.86884 7.44721 8.10877 8.20335 8.05915C8.95015 8.01013 9.76544 7.6821 10.656 7.01895L10.0588 6.21689C9.27065 6.80374 8.63621 7.02859 8.13786 7.06129C7.64885 7.09339 7.24308 6.94389 6.89435 6.68667C6.1644 6.14826 5.70462 5.15066 5.47434 4.45981L4.52566 4.77603ZM1.5 18.1179H1.5H0.5C0.5 18.6702 0.947715 19.1179 1.5 19.1179V18.1179ZM3.10224 19.1179C3.5679 19.1179 3.97193 18.7965 4.07663 18.3428L3.10224 18.1179V19.1179ZM4.44144 12.4075C4.43805 12.406 4.43429 12.4035 4.43108 12.4004C4.42805 12.3974 4.42636 12.3947 4.4255 12.3929C4.4239 12.3896 4.4245 12.3881 4.42428 12.3891L5.39867 12.6139C5.50133 12.1691 5.28922 11.6891 4.84596 11.493L4.44144 12.4075ZM19.4859 16.9052C19.4821 16.8778 19.489 16.8549 19.4958 16.8423C19.5016 16.8316 19.5061 16.8299 19.5041 16.8311L20.0118 17.6926C20.3036 17.5207 20.5339 17.1764 20.4762 16.7661L19.4859 16.9052ZM1.54332 10.6453C0.949499 10.5922 0.5 11.075 0.5 11.6179H1.5C1.5 11.6163 1.50026 11.6211 1.49354 11.6276C1.49007 11.6309 1.48437 11.635 1.47621 11.638C1.46747 11.6412 1.45935 11.6418 1.45429 11.6413L1.54332 10.6453Z"/>
</svg>
