<svg width="20" height="16" viewBox="0 0 20 16" fill="white" opacity="0.3" xmlns="http://www.w3.org/2000/svg">
<path fill-rule="evenodd" clip-rule="evenodd" d="M0.5 3C0.5 1.61929 1.61929 0.5 3 0.5H17C18.3807 0.5 19.5 1.61929 19.5 3V13C19.5 14.3807 18.3807 15.5 17 15.5H3C1.61929 15.5 0.5 14.3807 0.5 13V3ZM3 1.5C2.17157 1.5 1.5 2.17157 1.5 3V13C1.5 13.8284 2.17157 14.5 3 14.5H17C17.8284 14.5 18.5 13.8284 18.5 13V10.1897H15.1897C13.9803 10.1897 13 9.20931 13 8C13 6.79069 13.9803 5.81034 15.1897 5.81034H18.5V3C18.5 2.17157 17.8284 1.5 17 1.5H3ZM18.5 6.81034H15.1897C14.5326 6.81034 14 7.34297 14 8C14 8.65703 14.5326 9.18966 15.1897 9.18966H18.5V6.81034Z"/>
</svg>
